<?xml version="1.0" encoding="utf-8" standalone="no"?>
<!DOCTYPE svg PUBLIC "-//W3C//DTD SVG 1.1//EN"
  "http://www.w3.org/Graphics/SVG/1.1/DTD/svg11.dtd">
<!-- Created with matplotlib (http://matplotlib.org/) -->
<svg height="209pt" version="1.1" viewBox="0 0 595 209" width="595pt" xmlns="http://www.w3.org/2000/svg" xmlns:xlink="http://www.w3.org/1999/xlink">
 <defs>
  <style type="text/css">
*{stroke-linecap:butt;stroke-linejoin:round;}
  </style>
 </defs>
 <g id="figure_1">
  <g id="patch_1">
   <path d="M 0 209.27625 
L 595.625 209.27625 
L 595.625 0 
L 0 0 
z
" style="fill:#ffffff;"/>
  </g>
  <g id="axes_1">
   <g id="patch_2">
    <path d="M 26.925 185.398125 
L 280.561364 185.398125 
L 280.561364 22.318125 
L 26.925 22.318125 
z
" style="fill:#ffffff;"/>
   </g>
   <g id="patch_3">
    <path clip-path="url(#pd3b969dc10)" d="M 38.453926 177.985398 
L 38.684735 177.983183 
L 38.915544 177.979142 
L 39.146354 177.973923 
L 39.377163 177.967758 
L 39.607972 177.960783 
L 39.838782 177.953089 
L 40.069591 177.944746 
L 40.3004 177.935806 
L 40.53121 177.926312 
L 40.762019 177.916301 
L 40.992828 177.905802 
L 41.223637 177.894842 
L 41.454447 177.883446 
L 41.685256 177.871632 
L 41.916065 177.859419 
L 42.146875 177.846825 
L 42.377684 177.833865 
L 42.608493 177.820552 
L 42.839303 177.806899 
L 43.070112 177.792918 
L 43.300921 177.77862 
L 43.531731 177.764016 
L 43.76254 177.749115 
L 43.993349 177.733926 
L 44.224159 177.718457 
L 44.454968 177.702718 
L 44.685777 177.686714 
L 44.916587 177.670455 
L 45.147396 177.653946 
L 45.378205 177.637194 
L 45.609015 177.620205 
L 45.839824 177.602986 
L 46.070633 177.585543 
L 46.301443 177.56788 
L 46.532252 177.550002 
L 46.763061 177.531917 
L 46.993871 177.513627 
L 47.22468 177.495138 
L 47.455489 177.476454 
L 47.686298 177.45758 
L 47.917108 177.43852 
L 48.147917 177.419278 
L 48.378726 177.399859 
L 48.609536 177.380266 
L 48.840345 177.360502 
L 49.071154 177.340572 
L 49.301964 177.320479 
L 49.532773 177.300227 
L 49.763582 177.279819 
L 49.994392 177.259258 
L 50.225201 177.238547 
L 50.45601 177.21769 
L 50.68682 177.196689 
L 50.917629 177.175548 
L 51.148438 177.154269 
L 51.379248 177.132856 
L 51.610057 177.111311 
L 51.840866 177.089636 
L 52.071676 177.067835 
L 52.302485 177.045909 
L 52.533294 177.023863 
L 52.764104 177.001697 
L 52.994913 176.979415 
L 53.225722 176.957018 
L 53.456532 176.93451 
L 53.687341 176.911892 
L 53.91815 176.889167 
L 54.148959 176.866336 
L 54.379769 176.843403 
L 54.610578 176.820369 
L 54.841387 176.797236 
L 55.072197 176.774006 
L 55.303006 176.750682 
L 55.533815 176.727266 
L 55.764625 176.703758 
L 55.995434 176.680162 
L 56.226243 176.656479 
L 56.457053 176.63271 
L 56.687862 176.608859 
L 56.918671 176.584926 
L 57.149481 176.560914 
L 57.38029 176.536823 
L 57.611099 176.512657 
L 57.841909 176.488415 
L 58.072718 176.464102 
L 58.303527 176.439716 
L 58.534337 176.415262 
L 58.765146 176.390739 
L 58.995955 176.36615 
L 59.226765 176.341497 
L 59.457574 176.31678 
L 59.688383 176.292001 
L 59.919193 176.267162 
L 60.150002 176.242264 
L 60.380811 176.217309 
L 60.611621 176.192298 
L 60.84243 176.167232 
L 61.073239 176.142113 
L 61.304048 176.116943 
L 61.534858 176.091722 
L 61.765667 176.066452 
L 61.996476 176.041135 
L 62.227286 176.015771 
L 62.458095 175.990362 
L 62.688904 175.96491 
L 62.919714 175.939414 
L 63.150523 175.913878 
L 63.381332 175.888302 
L 63.612142 175.862687 
L 63.842951 175.837034 
L 64.07376 175.811345 
L 64.30457 175.785621 
L 64.535379 175.759863 
L 64.766188 175.734072 
L 64.996998 175.70825 
L 65.227807 175.682397 
L 65.458616 175.656514 
L 65.689426 175.630603 
L 65.920235 175.604666 
L 66.151044 175.578702 
L 66.381854 175.552712 
L 66.612663 175.5267 
L 66.843472 175.500664 
L 67.074282 175.474606 
L 67.305091 175.448527 
L 67.5359 175.422429 
L 67.766709 175.396312 
L 67.997519 175.370177 
L 68.228328 175.344026 
L 68.459137 175.317859 
L 68.689947 175.291677 
L 68.920756 175.265481 
L 69.151565 175.239272 
L 69.382375 175.213052 
L 69.613184 175.18682 
L 69.843993 175.160579 
L 70.074803 175.134328 
L 70.305612 175.108069 
L 70.536421 175.081803 
L 70.767231 175.055531 
L 70.99804 175.029253 
L 71.228849 175.002971 
L 71.459659 174.976685 
L 71.690468 174.950396 
L 71.921277 174.924105 
L 72.152087 174.897813 
L 72.382896 174.871521 
L 72.613705 174.845229 
L 72.844515 174.818939 
L 73.075324 174.792651 
L 73.306133 174.766366 
L 73.536943 174.740085 
L 73.767752 174.713808 
L 73.998561 174.687538 
L 74.22937 174.661273 
L 74.46018 174.635016 
L 74.690989 174.608766 
L 74.921798 174.582525 
L 75.152608 174.556293 
L 75.383417 174.530072 
L 75.614226 174.503861 
L 75.845036 174.477663 
L 76.075845 174.451476 
L 76.306654 174.425303 
L 76.537464 174.399143 
L 76.768273 174.372999 
L 76.999082 174.346869 
L 77.229892 174.320756 
L 77.460701 174.294659 
L 77.69151 174.26858 
L 77.92232 174.242519 
L 78.153129 174.216477 
L 78.383938 174.190454 
L 78.614748 174.164452 
L 78.845557 174.13847 
L 79.076366 174.112511 
L 79.307176 174.086573 
L 79.537985 174.060658 
L 79.768794 174.034767 
L 79.999604 174.0089 
L 80.230413 173.983058 
L 80.461222 173.957242 
L 80.692031 173.931452 
L 80.922841 173.905688 
L 81.15365 173.879952 
L 81.384459 173.854244 
L 81.615269 173.828565 
L 81.846078 173.802915 
L 82.076887 173.777295 
L 82.307697 173.751706 
L 82.538506 173.726147 
L 82.769315 173.700621 
L 83.000125 173.675126 
L 83.230934 173.649665 
L 83.461743 173.624237 
L 83.692553 173.598843 
L 83.923362 173.573484 
L 84.154171 173.54816 
L 84.384981 173.522872 
L 84.61579 173.497621 
L 84.846599 173.472406 
L 85.077409 173.447229 
L 85.308218 173.42209 
L 85.539027 173.39699 
L 85.769837 173.371928 
L 86.000646 173.346907 
L 86.231455 173.321926 
L 86.462265 173.296985 
L 86.693074 173.272086 
L 86.923883 173.247229 
L 87.154693 173.222414 
L 87.385502 173.197642 
L 87.616311 173.172914 
L 87.84712 173.148229 
L 88.07793 173.123589 
L 88.308739 173.098994 
L 88.539548 173.074444 
L 88.770358 173.049941 
L 89.001167 173.025483 
L 89.231976 173.001073 
L 89.462786 172.976711 
L 89.693595 172.952396 
L 89.924404 172.92813 
L 90.155214 172.903912 
L 90.386023 172.879745 
L 90.616832 172.855627 
L 90.847642 172.831559 
L 91.078451 172.807542 
L 91.30926 172.783577 
L 91.54007 172.759663 
L 91.770879 172.735802 
L 92.001688 172.711993 
L 92.232498 172.688237 
L 92.463307 172.664535 
L 92.694116 172.640887 
L 92.924926 172.617294 
L 93.155735 172.593755 
L 93.386544 172.570272 
L 93.617354 172.546845 
L 93.848163 172.523474 
L 94.078972 172.50016 
L 94.309781 172.476903 
L 94.540591 172.453703 
L 94.7714 172.430562 
L 95.002209 172.407478 
L 95.233019 172.384454 
L 95.463828 172.361489 
L 95.694637 172.338583 
L 95.925447 172.315738 
L 96.156256 172.292953 
L 96.387065 172.270229 
L 96.617875 172.247566 
L 96.848684 172.224965 
L 97.079493 172.202426 
L 97.310303 172.179949 
L 97.541112 172.157536 
L 97.771921 172.135185 
L 98.002731 172.112899 
L 98.23354 172.090676 
L 98.464349 172.068518 
L 98.695159 172.046424 
L 98.925968 172.024396 
L 99.156777 172.002433 
L 99.387587 171.980536 
L 99.618396 171.958706 
L 99.849205 171.936942 
L 100.080015 171.915245 
L 100.310824 171.893616 
L 100.541633 171.872054 
L 100.772442 171.850561 
L 101.003252 171.829136 
L 101.234061 171.80778 
L 101.46487 171.786493 
L 101.69568 171.765275 
L 101.926489 171.744128 
L 102.157298 171.72305 
L 102.388108 171.702044 
L 102.618917 171.681108 
L 102.849726 171.660243 
L 103.080536 171.63945 
L 103.311345 171.618729 
L 103.542154 171.59808 
L 103.772964 171.577504 
L 104.003773 171.557001 
L 104.234582 171.536571 
L 104.465392 171.516215 
L 104.696201 171.495932 
L 104.92701 171.475724 
L 105.15782 171.45559 
L 105.388629 171.435531 
L 105.619438 171.415548 
L 105.850248 171.395639 
L 106.081057 171.375807 
L 106.311866 171.356051 
L 106.542676 171.336371 
L 106.773485 171.316767 
L 107.004294 171.297241 
L 107.235103 171.277792 
L 107.465913 171.258421 
L 107.696722 171.239127 
L 107.927531 171.219912 
L 108.158341 171.200775 
L 108.38915 171.181718 
L 108.619959 171.162739 
L 108.850769 171.143839 
L 109.081578 171.125019 
L 109.312387 171.106279 
L 109.543197 171.087619 
L 109.774006 171.06904 
L 110.004815 171.050541 
L 110.235625 171.032124 
L 110.466434 171.013788 
L 110.697243 170.995533 
L 110.928053 170.97736 
L 111.158862 170.959269 
L 111.389671 170.941261 
L 111.620481 170.923335 
L 111.85129 170.905493 
L 112.082099 170.887733 
L 112.312909 170.870057 
L 112.543718 170.852464 
L 112.774527 170.834956 
L 113.005337 170.817531 
L 113.236146 170.800191 
L 113.466955 170.782936 
L 113.697765 170.765765 
L 113.928574 170.74868 
L 114.159383 170.73168 
L 114.390192 170.714766 
L 114.621002 170.697938 
L 114.851811 170.681196 
L 115.08262 170.66454 
L 115.31343 170.647971 
L 115.544239 170.631489 
L 115.775048 170.615093 
L 116.005858 170.598786 
L 116.236667 170.582565 
L 116.467476 170.566433 
L 116.698286 170.550388 
L 116.929095 170.534432 
L 117.159904 170.518564 
L 117.390714 170.502784 
L 117.621523 170.487094 
L 117.852332 170.471493 
L 118.083142 170.455981 
L 118.313951 170.440558 
L 118.54476 170.425225 
L 118.77557 170.409983 
L 119.006379 170.39483 
L 119.237188 170.379768 
L 119.467998 170.364796 
L 119.698807 170.349915 
L 119.929616 170.335125 
L 120.160426 170.320426 
L 120.391235 170.305819 
L 120.622044 170.291303 
L 120.852853 170.276879 
L 121.083663 170.262546 
L 121.314472 170.248306 
L 121.545281 170.234159 
L 121.776091 170.220104 
L 122.0069 170.206141 
L 122.237709 170.192272 
L 122.468519 170.178495 
L 122.699328 170.164812 
L 122.930137 170.151222 
L 123.160947 170.137726 
L 123.391756 170.124324 
L 123.622565 170.111016 
L 123.853375 170.097802 
L 124.084184 170.084682 
L 124.314993 170.071657 
L 124.545803 170.058727 
L 124.776612 170.045891 
L 125.007421 170.03315 
L 125.238231 170.020505 
L 125.46904 170.007955 
L 125.699849 169.995501 
L 125.930659 169.983142 
L 126.161468 169.970879 
L 126.392277 169.958712 
L 126.623087 169.946641 
L 126.853896 169.934667 
L 127.084705 169.922789 
L 127.315514 169.911007 
L 127.546324 169.899323 
L 127.777133 169.887735 
L 128.007942 169.876245 
L 128.238752 169.864851 
L 128.469561 169.853556 
L 128.70037 169.842357 
L 128.93118 169.831257 
L 129.161989 169.820254 
L 129.392798 169.809349 
L 129.623608 169.798542 
L 129.854417 169.787833 
L 130.085226 169.777223 
L 130.316036 169.766711 
L 130.546845 169.756298 
L 130.777654 169.745984 
L 131.008464 169.735769 
L 131.239273 169.725652 
L 131.470082 169.715635 
L 131.700892 169.705717 
L 131.931701 169.695899 
L 132.16251 169.68618 
L 132.39332 169.67656 
L 132.624129 169.667041 
L 132.854938 169.657621 
L 133.085748 169.648301 
L 133.316557 169.639082 
L 133.547366 169.629963 
L 133.778175 169.620944 
L 134.008985 169.612025 
L 134.239794 169.603208 
L 134.470603 169.594491 
L 134.701413 169.585874 
L 134.932222 169.577359 
L 135.163031 169.568944 
L 135.393841 169.560631 
L 135.62465 169.552419 
L 135.855459 169.544309 
L 136.086269 169.536299 
L 136.317078 169.528392 
L 136.547887 169.520586 
L 136.778697 169.512881 
L 137.009506 169.505279 
L 137.240315 169.497778 
L 137.471125 169.49038 
L 137.701934 169.483083 
L 137.932743 169.475889 
L 138.163553 169.468797 
L 138.394362 169.461807 
L 138.625171 169.45492 
L 138.855981 169.448135 
L 139.08679 169.441453 
L 139.317599 169.434874 
L 139.548409 169.428397 
L 139.779218 169.422024 
L 140.010027 169.415753 
L 140.240836 169.409585 
L 140.471646 169.403521 
L 140.702455 169.397559 
L 140.933264 169.391701 
L 141.164074 169.385946 
L 141.394883 169.380295 
L 141.625692 169.374747 
L 141.856502 169.369302 
L 142.087311 169.363961 
L 142.31812 169.358724 
L 142.54893 169.35359 
L 142.779739 169.348561 
L 143.010548 169.343635 
L 143.241358 169.338813 
L 143.472167 169.334094 
L 143.702976 169.32948 
L 143.933786 169.32497 
L 144.164595 169.320565 
L 144.395404 169.316263 
L 144.626214 169.312065 
L 144.857023 169.307972 
L 145.087832 169.303983 
L 145.318642 169.300099 
L 145.549451 169.296319 
L 145.78026 169.292643 
L 146.01107 169.289072 
L 146.241879 169.285606 
L 146.472688 169.282244 
L 146.703498 169.278987 
L 146.934307 169.275834 
L 147.165116 169.272787 
L 147.395925 169.269843 
L 147.626735 169.267005 
L 147.857544 169.264272 
L 148.088353 169.261643 
L 148.319163 169.25912 
L 148.549972 169.256701 
L 148.780781 169.254387 
L 149.011591 169.252178 
L 149.2424 169.250074 
L 149.473209 169.248076 
L 149.704019 169.246182 
L 149.934828 169.244393 
L 150.165637 169.24271 
L 150.396447 169.241131 
L 150.627256 169.239658 
L 150.858065 169.23829 
L 151.088875 169.237027 
L 151.319684 169.235869 
L 151.550493 169.234817 
L 151.781303 169.23387 
L 152.012112 169.233027 
L 152.242921 169.232291 
L 152.473731 169.231659 
L 152.70454 169.231133 
L 152.935349 169.230712 
L 153.166159 169.230396 
L 153.396968 169.230185 
L 153.627777 169.23008 
L 153.858586 169.23008 
L 154.089396 169.230185 
L 154.320205 169.230396 
L 154.551014 169.230712 
L 154.781824 169.231133 
L 155.012633 169.231659 
L 155.243442 169.232291 
L 155.474252 169.233027 
L 155.705061 169.23387 
L 155.93587 169.234817 
L 156.16668 169.235869 
L 156.397489 169.237027 
L 156.628298 169.23829 
L 156.859108 169.239658 
L 157.089917 169.241131 
L 157.320726 169.24271 
L 157.551536 169.244393 
L 157.782345 169.246182 
L 158.013154 169.248076 
L 158.243964 169.250074 
L 158.474773 169.252178 
L 158.705582 169.254387 
L 158.936392 169.256701 
L 159.167201 169.25912 
L 159.39801 169.261643 
L 159.62882 169.264272 
L 159.859629 169.267005 
L 160.090438 169.269843 
L 160.321247 169.272787 
L 160.552057 169.275834 
L 160.782866 169.278987 
L 161.013675 169.282244 
L 161.244485 169.285606 
L 161.475294 169.289072 
L 161.706103 169.292643 
L 161.936913 169.296319 
L 162.167722 169.300099 
L 162.398531 169.303983 
L 162.629341 169.307972 
L 162.86015 169.312065 
L 163.090959 169.316263 
L 163.321769 169.320565 
L 163.552578 169.32497 
L 163.783387 169.32948 
L 164.014197 169.334094 
L 164.245006 169.338813 
L 164.475815 169.343635 
L 164.706625 169.348561 
L 164.937434 169.35359 
L 165.168243 169.358724 
L 165.399053 169.363961 
L 165.629862 169.369302 
L 165.860671 169.374747 
L 166.091481 169.380295 
L 166.32229 169.385946 
L 166.553099 169.391701 
L 166.783908 169.397559 
L 167.014718 169.403521 
L 167.245527 169.409585 
L 167.476336 169.415753 
L 167.707146 169.422024 
L 167.937955 169.428397 
L 168.168764 169.434874 
L 168.399574 169.441453 
L 168.630383 169.448135 
L 168.861192 169.45492 
L 169.092002 169.461807 
L 169.322811 169.468797 
L 169.55362 169.475889 
L 169.78443 169.483083 
L 170.015239 169.49038 
L 170.246048 169.497778 
L 170.476858 169.505279 
L 170.707667 169.512881 
L 170.938476 169.520586 
L 171.169286 169.528392 
L 171.400095 169.536299 
L 171.630904 169.544309 
L 171.861714 169.552419 
L 172.092523 169.560631 
L 172.323332 169.568944 
L 172.554142 169.577359 
L 172.784951 169.585874 
L 173.01576 169.594491 
L 173.24657 169.603208 
L 173.477379 169.612025 
L 173.708188 169.620944 
L 173.938997 169.629963 
L 174.169807 169.639082 
L 174.400616 169.648301 
L 174.631425 169.657621 
L 174.862235 169.667041 
L 175.093044 169.67656 
L 175.323853 169.68618 
L 175.554663 169.695899 
L 175.785472 169.705717 
L 176.016281 169.715635 
L 176.247091 169.725652 
L 176.4779 169.735769 
L 176.708709 169.745984 
L 176.939519 169.756298 
L 177.170328 169.766711 
L 177.401137 169.777223 
L 177.631947 169.787833 
L 177.862756 169.798542 
L 178.093565 169.809349 
L 178.324375 169.820254 
L 178.555184 169.831257 
L 178.785993 169.842357 
L 179.016803 169.853556 
L 179.247612 169.864851 
L 179.478421 169.876245 
L 179.709231 169.887735 
L 179.94004 169.899323 
L 180.170849 169.911007 
L 180.401658 169.922789 
L 180.632468 169.934667 
L 180.863277 169.946641 
L 181.094086 169.958712 
L 181.324896 169.970879 
L 181.555705 169.983142 
L 181.786514 169.995501 
L 182.017324 170.007955 
L 182.248133 170.020505 
L 182.478942 170.03315 
L 182.709752 170.045891 
L 182.940561 170.058727 
L 183.17137 170.071657 
L 183.40218 170.084682 
L 183.632989 170.097802 
L 183.863798 170.111016 
L 184.094608 170.124324 
L 184.325417 170.137726 
L 184.556226 170.151222 
L 184.787036 170.164812 
L 185.017845 170.178495 
L 185.248654 170.192272 
L 185.479464 170.206141 
L 185.710273 170.220104 
L 185.941082 170.234159 
L 186.171892 170.248306 
L 186.402701 170.262546 
L 186.63351 170.276879 
L 186.864319 170.291303 
L 187.095129 170.305819 
L 187.325938 170.320426 
L 187.556747 170.335125 
L 187.787557 170.349915 
L 188.018366 170.364796 
L 188.249175 170.379768 
L 188.479985 170.39483 
L 188.710794 170.409983 
L 188.941603 170.425225 
L 189.172413 170.440558 
L 189.403222 170.455981 
L 189.634031 170.471493 
L 189.864841 170.487094 
L 190.09565 170.502784 
L 190.326459 170.518564 
L 190.557269 170.534432 
L 190.788078 170.550388 
L 191.018887 170.566433 
L 191.249697 170.582565 
L 191.480506 170.598786 
L 191.711315 170.615093 
L 191.942125 170.631489 
L 192.172934 170.647971 
L 192.403743 170.66454 
L 192.634553 170.681196 
L 192.865362 170.697938 
L 193.096171 170.714766 
L 193.32698 170.73168 
L 193.55779 170.74868 
L 193.788599 170.765765 
L 194.019408 170.782936 
L 194.250218 170.800191 
L 194.481027 170.817531 
L 194.711836 170.834956 
L 194.942646 170.852464 
L 195.173455 170.870057 
L 195.404264 170.887733 
L 195.635074 170.905493 
L 195.865883 170.923335 
L 196.096692 170.941261 
L 196.327502 170.959269 
L 196.558311 170.97736 
L 196.78912 170.995533 
L 197.01993 171.013788 
L 197.250739 171.032124 
L 197.481548 171.050541 
L 197.712358 171.06904 
L 197.943167 171.087619 
L 198.173976 171.106279 
L 198.404786 171.125019 
L 198.635595 171.143839 
L 198.866404 171.162739 
L 199.097214 171.181718 
L 199.328023 171.200775 
L 199.558832 171.219912 
L 199.789642 171.239127 
L 200.020451 171.258421 
L 200.25126 171.277792 
L 200.482069 171.297241 
L 200.712879 171.316767 
L 200.943688 171.336371 
L 201.174497 171.356051 
L 201.405307 171.375807 
L 201.636116 171.395639 
L 201.866925 171.415548 
L 202.097735 171.435531 
L 202.328544 171.45559 
L 202.559353 171.475724 
L 202.790163 171.495932 
L 203.020972 171.516215 
L 203.251781 171.536571 
L 203.482591 171.557001 
L 203.7134 171.577504 
L 203.944209 171.59808 
L 204.175019 171.618729 
L 204.405828 171.63945 
L 204.636637 171.660243 
L 204.867447 171.681108 
L 205.098256 171.702044 
L 205.329065 171.72305 
L 205.559875 171.744128 
L 205.790684 171.765275 
L 206.021493 171.786493 
L 206.252303 171.80778 
L 206.483112 171.829136 
L 206.713921 171.850561 
L 206.94473 171.872054 
L 207.17554 171.893616 
L 207.406349 171.915245 
L 207.637158 171.936942 
L 207.867968 171.958706 
L 208.098777 171.980536 
L 208.329586 172.002433 
L 208.560396 172.024396 
L 208.791205 172.046424 
L 209.022014 172.068518 
L 209.252824 172.090676 
L 209.483633 172.112899 
L 209.714442 172.135185 
L 209.945252 172.157536 
L 210.176061 172.179949 
L 210.40687 172.202426 
L 210.63768 172.224965 
L 210.868489 172.247566 
L 211.099298 172.270229 
L 211.330108 172.292953 
L 211.560917 172.315738 
L 211.791726 172.338583 
L 212.022536 172.361489 
L 212.253345 172.384454 
L 212.484154 172.407478 
L 212.714964 172.430562 
L 212.945773 172.453703 
L 213.176582 172.476903 
L 213.407391 172.50016 
L 213.638201 172.523474 
L 213.86901 172.546845 
L 214.099819 172.570272 
L 214.330629 172.593755 
L 214.561438 172.617294 
L 214.792247 172.640887 
L 215.023057 172.664535 
L 215.253866 172.688237 
L 215.484675 172.711993 
L 215.715485 172.735802 
L 215.946294 172.759663 
L 216.177103 172.783577 
L 216.407913 172.807542 
L 216.638722 172.831559 
L 216.869531 172.855627 
L 217.100341 172.879745 
L 217.33115 172.903912 
L 217.561959 172.92813 
L 217.792769 172.952396 
L 218.023578 172.976711 
L 218.254387 173.001073 
L 218.485197 173.025483 
L 218.716006 173.049941 
L 218.946815 173.074444 
L 219.177625 173.098994 
L 219.408434 173.123589 
L 219.639243 173.148229 
L 219.870052 173.172914 
L 220.100862 173.197642 
L 220.331671 173.222414 
L 220.56248 173.247229 
L 220.79329 173.272086 
L 221.024099 173.296985 
L 221.254908 173.321926 
L 221.485718 173.346907 
L 221.716527 173.371928 
L 221.947336 173.39699 
L 222.178146 173.42209 
L 222.408955 173.447229 
L 222.639764 173.472406 
L 222.870574 173.497621 
L 223.101383 173.522872 
L 223.332192 173.54816 
L 223.563002 173.573484 
L 223.793811 173.598843 
L 224.02462 173.624237 
L 224.25543 173.649665 
L 224.486239 173.675126 
L 224.717048 173.700621 
L 224.947858 173.726147 
L 225.178667 173.751706 
L 225.409476 173.777295 
L 225.640286 173.802915 
L 225.871095 173.828565 
L 226.101904 173.854244 
L 226.332713 173.879952 
L 226.563523 173.905688 
L 226.794332 173.931452 
L 227.025141 173.957242 
L 227.255951 173.983058 
L 227.48676 174.0089 
L 227.717569 174.034767 
L 227.948379 174.060658 
L 228.179188 174.086573 
L 228.409997 174.112511 
L 228.640807 174.13847 
L 228.871616 174.164452 
L 229.102425 174.190454 
L 229.333235 174.216477 
L 229.564044 174.242519 
L 229.794853 174.26858 
L 230.025663 174.294659 
L 230.256472 174.320756 
L 230.487281 174.346869 
L 230.718091 174.372999 
L 230.9489 174.399143 
L 231.179709 174.425303 
L 231.410519 174.451476 
L 231.641328 174.477663 
L 231.872137 174.503861 
L 232.102947 174.530072 
L 232.333756 174.556293 
L 232.564565 174.582525 
L 232.795375 174.608766 
L 233.026184 174.635016 
L 233.256993 174.661273 
L 233.487802 174.687538 
L 233.718612 174.713808 
L 233.949421 174.740085 
L 234.18023 174.766366 
L 234.41104 174.792651 
L 234.641849 174.818939 
L 234.872658 174.845229 
L 235.103468 174.871521 
L 235.334277 174.897813 
L 235.565086 174.924105 
L 235.795896 174.950396 
L 236.026705 174.976685 
L 236.257514 175.002971 
L 236.488324 175.029253 
L 236.719133 175.055531 
L 236.949942 175.081803 
L 237.180752 175.108069 
L 237.411561 175.134328 
L 237.64237 175.160579 
L 237.87318 175.18682 
L 238.103989 175.213052 
L 238.334798 175.239272 
L 238.565608 175.265481 
L 238.796417 175.291677 
L 239.027226 175.317859 
L 239.258036 175.344026 
L 239.488845 175.370177 
L 239.719654 175.396312 
L 239.950463 175.422429 
L 240.181273 175.448527 
L 240.412082 175.474606 
L 240.642891 175.500664 
L 240.873701 175.5267 
L 241.10451 175.552712 
L 241.335319 175.578702 
L 241.566129 175.604666 
L 241.796938 175.630603 
L 242.027747 175.656514 
L 242.258557 175.682397 
L 242.489366 175.70825 
L 242.720175 175.734072 
L 242.950985 175.759863 
L 243.181794 175.785621 
L 243.412603 175.811345 
L 243.643413 175.837034 
L 243.874222 175.862687 
L 244.105031 175.888302 
L 244.335841 175.913878 
L 244.56665 175.939414 
L 244.797459 175.96491 
L 245.028269 175.990362 
L 245.259078 176.015771 
L 245.489887 176.041135 
L 245.720697 176.066452 
L 245.951506 176.091722 
L 246.182315 176.116943 
L 246.413124 176.142113 
L 246.643934 176.167232 
L 246.874743 176.192298 
L 247.105552 176.217309 
L 247.336362 176.242264 
L 247.567171 176.267162 
L 247.79798 176.292001 
L 248.02879 176.31678 
L 248.259599 176.341497 
L 248.490408 176.36615 
L 248.721218 176.390739 
L 248.952027 176.415262 
L 249.182836 176.439716 
L 249.413646 176.464102 
L 249.644455 176.488415 
L 249.875264 176.512657 
L 250.106074 176.536823 
L 250.336883 176.560914 
L 250.567692 176.584926 
L 250.798502 176.608859 
L 251.029311 176.63271 
L 251.26012 176.656479 
L 251.49093 176.680162 
L 251.721739 176.703758 
L 251.952548 176.727266 
L 252.183358 176.750682 
L 252.414167 176.774006 
L 252.644976 176.797236 
L 252.875785 176.820369 
L 253.106595 176.843403 
L 253.337404 176.866336 
L 253.568213 176.889167 
L 253.799023 176.911892 
L 254.029832 176.93451 
L 254.260641 176.957018 
L 254.491451 176.979415 
L 254.72226 177.001697 
L 254.953069 177.023863 
L 255.183879 177.045909 
L 255.414688 177.067835 
L 255.645497 177.089636 
L 255.876307 177.111311 
L 256.107116 177.132856 
L 256.337925 177.154269 
L 256.568735 177.175548 
L 256.799544 177.196689 
L 257.030353 177.21769 
L 257.261163 177.238547 
L 257.491972 177.259258 
L 257.722781 177.279819 
L 257.953591 177.300227 
L 258.1844 177.320479 
L 258.415209 177.340572 
L 258.646019 177.360502 
L 258.876828 177.380266 
L 259.107637 177.399859 
L 259.338447 177.419278 
L 259.569256 177.43852 
L 259.800065 177.45758 
L 260.030874 177.476454 
L 260.261684 177.495138 
L 260.492493 177.513627 
L 260.723302 177.531917 
L 260.954112 177.550002 
L 261.184921 177.56788 
L 261.41573 177.585543 
L 261.64654 177.602986 
L 261.877349 177.620205 
L 262.108158 177.637194 
L 262.338968 177.653946 
L 262.569777 177.670455 
L 262.800586 177.686714 
L 263.031396 177.702718 
L 263.262205 177.718457 
L 263.493014 177.733926 
L 263.723824 177.749115 
L 263.954633 177.764016 
L 264.185442 177.77862 
L 264.416252 177.792918 
L 264.647061 177.806899 
L 264.87787 177.820552 
L 265.10868 177.833865 
L 265.339489 177.846825 
L 265.570298 177.859419 
L 265.801108 177.871632 
L 266.031917 177.883446 
L 266.262726 177.894842 
L 266.493535 177.905802 
L 266.724345 177.916301 
L 266.955154 177.926312 
L 267.185963 177.935806 
L 267.416773 177.944746 
L 267.647582 177.953089 
L 267.878391 177.960783 
L 268.109201 177.967758 
L 268.34001 177.973923 
L 268.570819 177.979142 
L 268.801629 177.983183 
L 269.032438 177.985398 
z
" style="fill:#0000ff;opacity:0.1;"/>
   </g>
   <g id="matplotlib.axis_1">
    <g id="xtick_1">
     <g id="line2d_1">
      <path clip-path="url(#pd3b969dc10)" d="M 38.453926 185.398125 
L 38.453926 22.318125 
" style="fill:none;opacity:0.2;stroke:#808080;stroke-linecap:square;"/>
     </g>
     <g id="line2d_2">
      <defs>
       <path d="M 0 0 
L 0 3.5 
" id="mb5defc1e1c" style="stroke:#000000;stroke-width:0.8;"/>
      </defs>
      <g>
       <use style="stroke:#000000;stroke-width:0.8;" x="38.453926" xlink:href="#mb5defc1e1c" y="185.398125"/>
      </g>
     </g>
     <g id="text_1">
      <!-- 0.0 -->
      <defs>
       <path d="M 31.78125 66.40625 
Q 24.171875 66.40625 20.328125 58.90625 
Q 16.5 51.421875 16.5 36.375 
Q 16.5 21.390625 20.328125 13.890625 
Q 24.171875 6.390625 31.78125 6.390625 
Q 39.453125 6.390625 43.28125 13.890625 
Q 47.125 21.390625 47.125 36.375 
Q 47.125 51.421875 43.28125 58.90625 
Q 39.453125 66.40625 31.78125 66.40625 
z
M 31.78125 74.21875 
Q 44.046875 74.21875 50.515625 64.515625 
Q 56.984375 54.828125 56.984375 36.375 
Q 56.984375 17.96875 50.515625 8.265625 
Q 44.046875 -1.421875 31.78125 -1.421875 
Q 19.53125 -1.421875 13.0625 8.265625 
Q 6.59375 17.96875 6.59375 36.375 
Q 6.59375 54.828125 13.0625 64.515625 
Q 19.53125 74.21875 31.78125 74.21875 
z
" id="DejaVuSans-30"/>
       <path d="M 10.6875 12.40625 
L 21 12.40625 
L 21 0 
L 10.6875 0 
z
" id="DejaVuSans-2e"/>
      </defs>
      <g transform="translate(30.502363 199.996563)scale(0.1 -0.1)">
       <use xlink:href="#DejaVuSans-30"/>
       <use x="63.623047" xlink:href="#DejaVuSans-2e"/>
       <use x="95.410156" xlink:href="#DejaVuSans-30"/>
      </g>
     </g>
    </g>
    <g id="xtick_2">
     <g id="line2d_3">
      <path clip-path="url(#pd3b969dc10)" d="M 84.569628 185.398125 
L 84.569628 22.318125 
" style="fill:none;opacity:0.2;stroke:#808080;stroke-linecap:square;"/>
     </g>
     <g id="line2d_4">
      <g>
       <use style="stroke:#000000;stroke-width:0.8;" x="84.569628" xlink:href="#mb5defc1e1c" y="185.398125"/>
      </g>
     </g>
     <g id="text_2">
      <!-- 0.2 -->
      <defs>
       <path d="M 19.1875 8.296875 
L 53.609375 8.296875 
L 53.609375 0 
L 7.328125 0 
L 7.328125 8.296875 
Q 12.9375 14.109375 22.625 23.890625 
Q 32.328125 33.6875 34.8125 36.53125 
Q 39.546875 41.84375 41.421875 45.53125 
Q 43.3125 49.21875 43.3125 52.78125 
Q 43.3125 58.59375 39.234375 62.25 
Q 35.15625 65.921875 28.609375 65.921875 
Q 23.96875 65.921875 18.8125 64.3125 
Q 13.671875 62.703125 7.8125 59.421875 
L 7.8125 69.390625 
Q 13.765625 71.78125 18.9375 73 
Q 24.125 74.21875 28.421875 74.21875 
Q 39.75 74.21875 46.484375 68.546875 
Q 53.21875 62.890625 53.21875 53.421875 
Q 53.21875 48.921875 51.53125 44.890625 
Q 49.859375 40.875 45.40625 35.40625 
Q 44.1875 33.984375 37.640625 27.21875 
Q 31.109375 20.453125 19.1875 8.296875 
z
" id="DejaVuSans-32"/>
      </defs>
      <g transform="translate(76.618066 199.996563)scale(0.1 -0.1)">
       <use xlink:href="#DejaVuSans-30"/>
       <use x="63.623047" xlink:href="#DejaVuSans-2e"/>
       <use x="95.410156" xlink:href="#DejaVuSans-32"/>
      </g>
     </g>
    </g>
    <g id="xtick_3">
     <g id="line2d_5">
      <path clip-path="url(#pd3b969dc10)" d="M 130.685331 185.398125 
L 130.685331 22.318125 
" style="fill:none;opacity:0.2;stroke:#808080;stroke-linecap:square;"/>
     </g>
     <g id="line2d_6">
      <g>
       <use style="stroke:#000000;stroke-width:0.8;" x="130.685331" xlink:href="#mb5defc1e1c" y="185.398125"/>
      </g>
     </g>
     <g id="text_3">
      <!-- 0.4 -->
      <defs>
       <path d="M 37.796875 64.3125 
L 12.890625 25.390625 
L 37.796875 25.390625 
z
M 35.203125 72.90625 
L 47.609375 72.90625 
L 47.609375 25.390625 
L 58.015625 25.390625 
L 58.015625 17.1875 
L 47.609375 17.1875 
L 47.609375 0 
L 37.796875 0 
L 37.796875 17.1875 
L 4.890625 17.1875 
L 4.890625 26.703125 
z
" id="DejaVuSans-34"/>
      </defs>
      <g transform="translate(122.733768 199.996563)scale(0.1 -0.1)">
       <use xlink:href="#DejaVuSans-30"/>
       <use x="63.623047" xlink:href="#DejaVuSans-2e"/>
       <use x="95.410156" xlink:href="#DejaVuSans-34"/>
      </g>
     </g>
    </g>
    <g id="xtick_4">
     <g id="line2d_7">
      <path clip-path="url(#pd3b969dc10)" d="M 176.801033 185.398125 
L 176.801033 22.318125 
" style="fill:none;opacity:0.2;stroke:#808080;stroke-linecap:square;"/>
     </g>
     <g id="line2d_8">
      <g>
       <use style="stroke:#000000;stroke-width:0.8;" x="176.801033" xlink:href="#mb5defc1e1c" y="185.398125"/>
      </g>
     </g>
     <g id="text_4">
      <!-- 0.6 -->
      <defs>
       <path d="M 33.015625 40.375 
Q 26.375 40.375 22.484375 35.828125 
Q 18.609375 31.296875 18.609375 23.390625 
Q 18.609375 15.53125 22.484375 10.953125 
Q 26.375 6.390625 33.015625 6.390625 
Q 39.65625 6.390625 43.53125 10.953125 
Q 47.40625 15.53125 47.40625 23.390625 
Q 47.40625 31.296875 43.53125 35.828125 
Q 39.65625 40.375 33.015625 40.375 
z
M 52.59375 71.296875 
L 52.59375 62.3125 
Q 48.875 64.0625 45.09375 64.984375 
Q 41.3125 65.921875 37.59375 65.921875 
Q 27.828125 65.921875 22.671875 59.328125 
Q 17.53125 52.734375 16.796875 39.40625 
Q 19.671875 43.65625 24.015625 45.921875 
Q 28.375 48.1875 33.59375 48.1875 
Q 44.578125 48.1875 50.953125 41.515625 
Q 57.328125 34.859375 57.328125 23.390625 
Q 57.328125 12.15625 50.6875 5.359375 
Q 44.046875 -1.421875 33.015625 -1.421875 
Q 20.359375 -1.421875 13.671875 8.265625 
Q 6.984375 17.96875 6.984375 36.375 
Q 6.984375 53.65625 15.1875 63.9375 
Q 23.390625 74.21875 37.203125 74.21875 
Q 40.921875 74.21875 44.703125 73.484375 
Q 48.484375 72.75 52.59375 71.296875 
z
" id="DejaVuSans-36"/>
      </defs>
      <g transform="translate(168.849471 199.996563)scale(0.1 -0.1)">
       <use xlink:href="#DejaVuSans-30"/>
       <use x="63.623047" xlink:href="#DejaVuSans-2e"/>
       <use x="95.410156" xlink:href="#DejaVuSans-36"/>
      </g>
     </g>
    </g>
    <g id="xtick_5">
     <g id="line2d_9">
      <path clip-path="url(#pd3b969dc10)" d="M 222.916736 185.398125 
L 222.916736 22.318125 
" style="fill:none;opacity:0.2;stroke:#808080;stroke-linecap:square;"/>
     </g>
     <g id="line2d_10">
      <g>
       <use style="stroke:#000000;stroke-width:0.8;" x="222.916736" xlink:href="#mb5defc1e1c" y="185.398125"/>
      </g>
     </g>
     <g id="text_5">
      <!-- 0.8 -->
      <defs>
       <path d="M 31.78125 34.625 
Q 24.75 34.625 20.71875 30.859375 
Q 16.703125 27.09375 16.703125 20.515625 
Q 16.703125 13.921875 20.71875 10.15625 
Q 24.75 6.390625 31.78125 6.390625 
Q 38.8125 6.390625 42.859375 10.171875 
Q 46.921875 13.96875 46.921875 20.515625 
Q 46.921875 27.09375 42.890625 30.859375 
Q 38.875 34.625 31.78125 34.625 
z
M 21.921875 38.8125 
Q 15.578125 40.375 12.03125 44.71875 
Q 8.5 49.078125 8.5 55.328125 
Q 8.5 64.0625 14.71875 69.140625 
Q 20.953125 74.21875 31.78125 74.21875 
Q 42.671875 74.21875 48.875 69.140625 
Q 55.078125 64.0625 55.078125 55.328125 
Q 55.078125 49.078125 51.53125 44.71875 
Q 48 40.375 41.703125 38.8125 
Q 48.828125 37.15625 52.796875 32.3125 
Q 56.78125 27.484375 56.78125 20.515625 
Q 56.78125 9.90625 50.3125 4.234375 
Q 43.84375 -1.421875 31.78125 -1.421875 
Q 19.734375 -1.421875 13.25 4.234375 
Q 6.78125 9.90625 6.78125 20.515625 
Q 6.78125 27.484375 10.78125 32.3125 
Q 14.796875 37.15625 21.921875 38.8125 
z
M 18.3125 54.390625 
Q 18.3125 48.734375 21.84375 45.5625 
Q 25.390625 42.390625 31.78125 42.390625 
Q 38.140625 42.390625 41.71875 45.5625 
Q 45.3125 48.734375 45.3125 54.390625 
Q 45.3125 60.0625 41.71875 63.234375 
Q 38.140625 66.40625 31.78125 66.40625 
Q 25.390625 66.40625 21.84375 63.234375 
Q 18.3125 60.0625 18.3125 54.390625 
z
" id="DejaVuSans-38"/>
      </defs>
      <g transform="translate(214.965173 199.996563)scale(0.1 -0.1)">
       <use xlink:href="#DejaVuSans-30"/>
       <use x="63.623047" xlink:href="#DejaVuSans-2e"/>
       <use x="95.410156" xlink:href="#DejaVuSans-38"/>
      </g>
     </g>
    </g>
    <g id="xtick_6">
     <g id="line2d_11">
      <path clip-path="url(#pd3b969dc10)" d="M 269.032438 185.398125 
L 269.032438 22.318125 
" style="fill:none;opacity:0.2;stroke:#808080;stroke-linecap:square;"/>
     </g>
     <g id="line2d_12">
      <g>
       <use style="stroke:#000000;stroke-width:0.8;" x="269.032438" xlink:href="#mb5defc1e1c" y="185.398125"/>
      </g>
     </g>
     <g id="text_6">
      <!-- 1.0 -->
      <defs>
       <path d="M 12.40625 8.296875 
L 28.515625 8.296875 
L 28.515625 63.921875 
L 10.984375 60.40625 
L 10.984375 69.390625 
L 28.421875 72.90625 
L 38.28125 72.90625 
L 38.28125 8.296875 
L 54.390625 8.296875 
L 54.390625 0 
L 12.40625 0 
z
" id="DejaVuSans-31"/>
      </defs>
      <g transform="translate(261.080876 199.996563)scale(0.1 -0.1)">
       <use xlink:href="#DejaVuSans-31"/>
       <use x="63.623047" xlink:href="#DejaVuSans-2e"/>
       <use x="95.410156" xlink:href="#DejaVuSans-30"/>
      </g>
     </g>
    </g>
   </g>
   <g id="matplotlib.axis_2">
    <g id="ytick_1">
     <g id="line2d_13">
      <path clip-path="url(#pd3b969dc10)" d="M 26.925 177.985398 
L 280.561364 177.985398 
" style="fill:none;opacity:0.2;stroke:#808080;stroke-linecap:square;"/>
     </g>
     <g id="line2d_14">
      <defs>
       <path d="M 0 0 
L -3.5 0 
" id="m7d70e0976b" style="stroke:#000000;stroke-width:0.8;"/>
      </defs>
      <g>
       <use style="stroke:#000000;stroke-width:0.8;" x="26.925" xlink:href="#m7d70e0976b" y="177.985398"/>
      </g>
     </g>
     <g id="text_7">
      <!-- 0 -->
      <g transform="translate(13.5625 181.784616)scale(0.1 -0.1)">
       <use xlink:href="#DejaVuSans-30"/>
      </g>
     </g>
    </g>
    <g id="ytick_2">
     <g id="line2d_15">
      <path clip-path="url(#pd3b969dc10)" d="M 26.925 152.198819 
L 280.561364 152.198819 
" style="fill:none;opacity:0.2;stroke:#808080;stroke-linecap:square;"/>
     </g>
     <g id="line2d_16">
      <g>
       <use style="stroke:#000000;stroke-width:0.8;" x="26.925" xlink:href="#m7d70e0976b" y="152.198819"/>
      </g>
     </g>
     <g id="text_8">
      <!-- 5 -->
      <defs>
       <path d="M 10.796875 72.90625 
L 49.515625 72.90625 
L 49.515625 64.59375 
L 19.828125 64.59375 
L 19.828125 46.734375 
Q 21.96875 47.46875 24.109375 47.828125 
Q 26.265625 48.1875 28.421875 48.1875 
Q 40.625 48.1875 47.75 41.5 
Q 54.890625 34.8125 54.890625 23.390625 
Q 54.890625 11.625 47.5625 5.09375 
Q 40.234375 -1.421875 26.90625 -1.421875 
Q 22.3125 -1.421875 17.546875 -0.640625 
Q 12.796875 0.140625 7.71875 1.703125 
L 7.71875 11.625 
Q 12.109375 9.234375 16.796875 8.0625 
Q 21.484375 6.890625 26.703125 6.890625 
Q 35.15625 6.890625 40.078125 11.328125 
Q 45.015625 15.765625 45.015625 23.390625 
Q 45.015625 31 40.078125 35.4375 
Q 35.15625 39.890625 26.703125 39.890625 
Q 22.75 39.890625 18.8125 39.015625 
Q 14.890625 38.140625 10.796875 36.28125 
z
" id="DejaVuSans-35"/>
      </defs>
      <g transform="translate(13.5625 155.998038)scale(0.1 -0.1)">
       <use xlink:href="#DejaVuSans-35"/>
      </g>
     </g>
    </g>
    <g id="ytick_3">
     <g id="line2d_17">
      <path clip-path="url(#pd3b969dc10)" d="M 26.925 126.412241 
L 280.561364 126.412241 
" style="fill:none;opacity:0.2;stroke:#808080;stroke-linecap:square;"/>
     </g>
     <g id="line2d_18">
      <g>
       <use style="stroke:#000000;stroke-width:0.8;" x="26.925" xlink:href="#m7d70e0976b" y="126.412241"/>
      </g>
     </g>
     <g id="text_9">
      <!-- 10 -->
      <g transform="translate(7.2 130.21146)scale(0.1 -0.1)">
       <use xlink:href="#DejaVuSans-31"/>
       <use x="63.623047" xlink:href="#DejaVuSans-30"/>
      </g>
     </g>
    </g>
    <g id="ytick_4">
     <g id="line2d_19">
      <path clip-path="url(#pd3b969dc10)" d="M 26.925 100.625663 
L 280.561364 100.625663 
" style="fill:none;opacity:0.2;stroke:#808080;stroke-linecap:square;"/>
     </g>
     <g id="line2d_20">
      <g>
       <use style="stroke:#000000;stroke-width:0.8;" x="26.925" xlink:href="#m7d70e0976b" y="100.625663"/>
      </g>
     </g>
     <g id="text_10">
      <!-- 15 -->
      <g transform="translate(7.2 104.424882)scale(0.1 -0.1)">
       <use xlink:href="#DejaVuSans-31"/>
       <use x="63.623047" xlink:href="#DejaVuSans-35"/>
      </g>
     </g>
    </g>
    <g id="ytick_5">
     <g id="line2d_21">
      <path clip-path="url(#pd3b969dc10)" d="M 26.925 74.839085 
L 280.561364 74.839085 
" style="fill:none;opacity:0.2;stroke:#808080;stroke-linecap:square;"/>
     </g>
     <g id="line2d_22">
      <g>
       <use style="stroke:#000000;stroke-width:0.8;" x="26.925" xlink:href="#m7d70e0976b" y="74.839085"/>
      </g>
     </g>
     <g id="text_11">
      <!-- 20 -->
      <g transform="translate(7.2 78.638303)scale(0.1 -0.1)">
       <use xlink:href="#DejaVuSans-32"/>
       <use x="63.623047" xlink:href="#DejaVuSans-30"/>
      </g>
     </g>
    </g>
    <g id="ytick_6">
     <g id="line2d_23">
      <path clip-path="url(#pd3b969dc10)" d="M 26.925 49.052506 
L 280.561364 49.052506 
" style="fill:none;opacity:0.2;stroke:#808080;stroke-linecap:square;"/>
     </g>
     <g id="line2d_24">
      <g>
       <use style="stroke:#000000;stroke-width:0.8;" x="26.925" xlink:href="#m7d70e0976b" y="49.052506"/>
      </g>
     </g>
     <g id="text_12">
      <!-- 25 -->
      <g transform="translate(7.2 52.851725)scale(0.1 -0.1)">
       <use xlink:href="#DejaVuSans-32"/>
       <use x="63.623047" xlink:href="#DejaVuSans-35"/>
      </g>
     </g>
    </g>
    <g id="ytick_7">
     <g id="line2d_25">
      <path clip-path="url(#pd3b969dc10)" d="M 26.925 23.265928 
L 280.561364 23.265928 
" style="fill:none;opacity:0.2;stroke:#808080;stroke-linecap:square;"/>
     </g>
     <g id="line2d_26">
      <g>
       <use style="stroke:#000000;stroke-width:0.8;" x="26.925" xlink:href="#m7d70e0976b" y="23.265928"/>
      </g>
     </g>
     <g id="text_13">
      <!-- 30 -->
      <defs>
       <path d="M 40.578125 39.3125 
Q 47.65625 37.796875 51.625 33 
Q 55.609375 28.21875 55.609375 21.1875 
Q 55.609375 10.40625 48.1875 4.484375 
Q 40.765625 -1.421875 27.09375 -1.421875 
Q 22.515625 -1.421875 17.65625 -0.515625 
Q 12.796875 0.390625 7.625 2.203125 
L 7.625 11.71875 
Q 11.71875 9.328125 16.59375 8.109375 
Q 21.484375 6.890625 26.8125 6.890625 
Q 36.078125 6.890625 40.9375 10.546875 
Q 45.796875 14.203125 45.796875 21.1875 
Q 45.796875 27.640625 41.28125 31.265625 
Q 36.765625 34.90625 28.71875 34.90625 
L 20.21875 34.90625 
L 20.21875 43.015625 
L 29.109375 43.015625 
Q 36.375 43.015625 40.234375 45.921875 
Q 44.09375 48.828125 44.09375 54.296875 
Q 44.09375 59.90625 40.109375 62.90625 
Q 36.140625 65.921875 28.71875 65.921875 
Q 24.65625 65.921875 20.015625 65.03125 
Q 15.375 64.15625 9.8125 62.3125 
L 9.8125 71.09375 
Q 15.4375 72.65625 20.34375 73.4375 
Q 25.25 74.21875 29.59375 74.21875 
Q 40.828125 74.21875 47.359375 69.109375 
Q 53.90625 64.015625 53.90625 55.328125 
Q 53.90625 49.265625 50.4375 45.09375 
Q 46.96875 40.921875 40.578125 39.3125 
z
" id="DejaVuSans-33"/>
      </defs>
      <g transform="translate(7.2 27.065147)scale(0.1 -0.1)">
       <use xlink:href="#DejaVuSans-33"/>
       <use x="63.623047" xlink:href="#DejaVuSans-30"/>
      </g>
     </g>
    </g>
   </g>
   <g id="LineCollection_1">
    <path clip-path="url(#pd3b969dc10)" d="M 209.751678 177.985398 
L 209.751678 172.828082 
" style="fill:none;stroke:#000000;stroke-width:0.5;"/>
    <path clip-path="url(#pd3b969dc10)" d="M 216.385058 177.985398 
L 216.385058 172.828082 
" style="fill:none;stroke:#000000;stroke-width:0.5;"/>
    <path clip-path="url(#pd3b969dc10)" d="M 229.066832 177.985398 
L 229.066832 172.828082 
" style="fill:none;stroke:#000000;stroke-width:0.5;"/>
    <path clip-path="url(#pd3b969dc10)" d="M 231.224326 177.985398 
L 231.224326 172.828082 
" style="fill:none;stroke:#000000;stroke-width:0.5;"/>
    <path clip-path="url(#pd3b969dc10)" d="M 197.932865 177.985398 
L 197.932865 172.828082 
" style="fill:none;stroke:#000000;stroke-width:0.5;"/>
    <path clip-path="url(#pd3b969dc10)" d="M 197.405204 177.985398 
L 197.405204 172.828082 
" style="fill:none;stroke:#000000;stroke-width:0.5;"/>
    <path clip-path="url(#pd3b969dc10)" d="M 201.879929 177.985398 
L 201.879929 172.828082 
" style="fill:none;stroke:#000000;stroke-width:0.5;"/>
    <path clip-path="url(#pd3b969dc10)" d="M 191.207591 177.985398 
L 191.207591 172.828082 
" style="fill:none;stroke:#000000;stroke-width:0.5;"/>
    <path clip-path="url(#pd3b969dc10)" d="M 210.832392 177.985398 
L 210.832392 172.828082 
" style="fill:none;stroke:#000000;stroke-width:0.5;"/>
    <path clip-path="url(#pd3b969dc10)" d="M 201.755237 177.985398 
L 201.755237 172.828082 
" style="fill:none;stroke:#000000;stroke-width:0.5;"/>
   </g>
   <g id="LineCollection_2">
    <path clip-path="url(#pd3b969dc10)" d="M 211.38781 177.985398 
L 211.38781 172.828082 
" style="fill:none;stroke:#ff0000;stroke-width:2;"/>
   </g>
   <g id="line2d_27">
    <path clip-path="url(#pd3b969dc10)" d="M 38.453926 177.985398 
L 42.146875 177.846825 
L 48.840345 177.360502 
L 58.534337 176.415262 
L 77.69151 174.26858 
L 96.156256 172.292953 
L 109.312387 171.106279 
L 121.083663 170.262546 
L 132.16251 169.68618 
L 143.010548 169.343635 
L 153.627777 169.23008 
L 164.245006 169.338813 
L 175.093044 169.67656 
L 186.171892 170.248306 
L 197.712358 171.06904 
L 210.176061 172.179949 
L 225.178667 173.751706 
L 258.876828 177.380266 
L 266.031917 177.883446 
L 269.032438 177.985398 
L 269.032438 177.985398 
" style="fill:none;stroke:#1f77b4;stroke-linecap:square;stroke-width:1.5;"/>
   </g>
   <g id="patch_4">
    <path d="M 26.925 185.398125 
L 26.925 22.318125 
" style="fill:none;stroke:#000000;stroke-linecap:square;stroke-linejoin:miter;stroke-width:0.8;"/>
   </g>
   <g id="patch_5">
    <path d="M 280.561364 185.398125 
L 280.561364 22.318125 
" style="fill:none;stroke:#000000;stroke-linecap:square;stroke-linejoin:miter;stroke-width:0.8;"/>
   </g>
   <g id="patch_6">
    <path d="M 26.925 185.398125 
L 280.561364 185.398125 
" style="fill:none;stroke:#000000;stroke-linecap:square;stroke-linejoin:miter;stroke-width:0.8;"/>
   </g>
   <g id="patch_7">
    <path d="M 26.925 22.318125 
L 280.561364 22.318125 
" style="fill:none;stroke:#000000;stroke-linecap:square;stroke-linejoin:miter;stroke-width:0.8;"/>
   </g>
   <g id="text_14">
    <!-- prior distribution -->
    <defs>
     <path d="M 18.109375 8.203125 
L 18.109375 -20.796875 
L 9.078125 -20.796875 
L 9.078125 54.6875 
L 18.109375 54.6875 
L 18.109375 46.390625 
Q 20.953125 51.265625 25.265625 53.625 
Q 29.59375 56 35.59375 56 
Q 45.5625 56 51.78125 48.09375 
Q 58.015625 40.1875 58.015625 27.296875 
Q 58.015625 14.40625 51.78125 6.484375 
Q 45.5625 -1.421875 35.59375 -1.421875 
Q 29.59375 -1.421875 25.265625 0.953125 
Q 20.953125 3.328125 18.109375 8.203125 
z
M 48.6875 27.296875 
Q 48.6875 37.203125 44.609375 42.84375 
Q 40.53125 48.484375 33.40625 48.484375 
Q 26.265625 48.484375 22.1875 42.84375 
Q 18.109375 37.203125 18.109375 27.296875 
Q 18.109375 17.390625 22.1875 11.75 
Q 26.265625 6.109375 33.40625 6.109375 
Q 40.53125 6.109375 44.609375 11.75 
Q 48.6875 17.390625 48.6875 27.296875 
z
" id="DejaVuSans-70"/>
     <path d="M 41.109375 46.296875 
Q 39.59375 47.171875 37.8125 47.578125 
Q 36.03125 48 33.890625 48 
Q 26.265625 48 22.1875 43.046875 
Q 18.109375 38.09375 18.109375 28.8125 
L 18.109375 0 
L 9.078125 0 
L 9.078125 54.6875 
L 18.109375 54.6875 
L 18.109375 46.1875 
Q 20.953125 51.171875 25.484375 53.578125 
Q 30.03125 56 36.53125 56 
Q 37.453125 56 38.578125 55.875 
Q 39.703125 55.765625 41.0625 55.515625 
z
" id="DejaVuSans-72"/>
     <path d="M 9.421875 54.6875 
L 18.40625 54.6875 
L 18.40625 0 
L 9.421875 0 
z
M 9.421875 75.984375 
L 18.40625 75.984375 
L 18.40625 64.59375 
L 9.421875 64.59375 
z
" id="DejaVuSans-69"/>
     <path d="M 30.609375 48.390625 
Q 23.390625 48.390625 19.1875 42.75 
Q 14.984375 37.109375 14.984375 27.296875 
Q 14.984375 17.484375 19.15625 11.84375 
Q 23.34375 6.203125 30.609375 6.203125 
Q 37.796875 6.203125 41.984375 11.859375 
Q 46.1875 17.53125 46.1875 27.296875 
Q 46.1875 37.015625 41.984375 42.703125 
Q 37.796875 48.390625 30.609375 48.390625 
z
M 30.609375 56 
Q 42.328125 56 49.015625 48.375 
Q 55.71875 40.765625 55.71875 27.296875 
Q 55.71875 13.875 49.015625 6.21875 
Q 42.328125 -1.421875 30.609375 -1.421875 
Q 18.84375 -1.421875 12.171875 6.21875 
Q 5.515625 13.875 5.515625 27.296875 
Q 5.515625 40.765625 12.171875 48.375 
Q 18.84375 56 30.609375 56 
z
" id="DejaVuSans-6f"/>
     <path id="DejaVuSans-20"/>
     <path d="M 45.40625 46.390625 
L 45.40625 75.984375 
L 54.390625 75.984375 
L 54.390625 0 
L 45.40625 0 
L 45.40625 8.203125 
Q 42.578125 3.328125 38.25 0.953125 
Q 33.9375 -1.421875 27.875 -1.421875 
Q 17.96875 -1.421875 11.734375 6.484375 
Q 5.515625 14.40625 5.515625 27.296875 
Q 5.515625 40.1875 11.734375 48.09375 
Q 17.96875 56 27.875 56 
Q 33.9375 56 38.25 53.625 
Q 42.578125 51.265625 45.40625 46.390625 
z
M 14.796875 27.296875 
Q 14.796875 17.390625 18.875 11.75 
Q 22.953125 6.109375 30.078125 6.109375 
Q 37.203125 6.109375 41.296875 11.75 
Q 45.40625 17.390625 45.40625 27.296875 
Q 45.40625 37.203125 41.296875 42.84375 
Q 37.203125 48.484375 30.078125 48.484375 
Q 22.953125 48.484375 18.875 42.84375 
Q 14.796875 37.203125 14.796875 27.296875 
z
" id="DejaVuSans-64"/>
     <path d="M 44.28125 53.078125 
L 44.28125 44.578125 
Q 40.484375 46.53125 36.375 47.5 
Q 32.28125 48.484375 27.875 48.484375 
Q 21.1875 48.484375 17.84375 46.4375 
Q 14.5 44.390625 14.5 40.28125 
Q 14.5 37.15625 16.890625 35.375 
Q 19.28125 33.59375 26.515625 31.984375 
L 29.59375 31.296875 
Q 39.15625 29.25 43.1875 25.515625 
Q 47.21875 21.78125 47.21875 15.09375 
Q 47.21875 7.46875 41.1875 3.015625 
Q 35.15625 -1.421875 24.609375 -1.421875 
Q 20.21875 -1.421875 15.453125 -0.5625 
Q 10.6875 0.296875 5.421875 2 
L 5.421875 11.28125 
Q 10.40625 8.6875 15.234375 7.390625 
Q 20.0625 6.109375 24.8125 6.109375 
Q 31.15625 6.109375 34.5625 8.28125 
Q 37.984375 10.453125 37.984375 14.40625 
Q 37.984375 18.0625 35.515625 20.015625 
Q 33.0625 21.96875 24.703125 23.78125 
L 21.578125 24.515625 
Q 13.234375 26.265625 9.515625 29.90625 
Q 5.8125 33.546875 5.8125 39.890625 
Q 5.8125 47.609375 11.28125 51.796875 
Q 16.75 56 26.8125 56 
Q 31.78125 56 36.171875 55.265625 
Q 40.578125 54.546875 44.28125 53.078125 
z
" id="DejaVuSans-73"/>
     <path d="M 18.3125 70.21875 
L 18.3125 54.6875 
L 36.8125 54.6875 
L 36.8125 47.703125 
L 18.3125 47.703125 
L 18.3125 18.015625 
Q 18.3125 11.328125 20.140625 9.421875 
Q 21.96875 7.515625 27.59375 7.515625 
L 36.8125 7.515625 
L 36.8125 0 
L 27.59375 0 
Q 17.1875 0 13.234375 3.875 
Q 9.28125 7.765625 9.28125 18.015625 
L 9.28125 47.703125 
L 2.6875 47.703125 
L 2.6875 54.6875 
L 9.28125 54.6875 
L 9.28125 70.21875 
z
" id="DejaVuSans-74"/>
     <path d="M 48.6875 27.296875 
Q 48.6875 37.203125 44.609375 42.84375 
Q 40.53125 48.484375 33.40625 48.484375 
Q 26.265625 48.484375 22.1875 42.84375 
Q 18.109375 37.203125 18.109375 27.296875 
Q 18.109375 17.390625 22.1875 11.75 
Q 26.265625 6.109375 33.40625 6.109375 
Q 40.53125 6.109375 44.609375 11.75 
Q 48.6875 17.390625 48.6875 27.296875 
z
M 18.109375 46.390625 
Q 20.953125 51.265625 25.265625 53.625 
Q 29.59375 56 35.59375 56 
Q 45.5625 56 51.78125 48.09375 
Q 58.015625 40.1875 58.015625 27.296875 
Q 58.015625 14.40625 51.78125 6.484375 
Q 45.5625 -1.421875 35.59375 -1.421875 
Q 29.59375 -1.421875 25.265625 0.953125 
Q 20.953125 3.328125 18.109375 8.203125 
L 18.109375 0 
L 9.078125 0 
L 9.078125 75.984375 
L 18.109375 75.984375 
z
" id="DejaVuSans-62"/>
     <path d="M 8.5 21.578125 
L 8.5 54.6875 
L 17.484375 54.6875 
L 17.484375 21.921875 
Q 17.484375 14.15625 20.5 10.265625 
Q 23.53125 6.390625 29.59375 6.390625 
Q 36.859375 6.390625 41.078125 11.03125 
Q 45.3125 15.671875 45.3125 23.6875 
L 45.3125 54.6875 
L 54.296875 54.6875 
L 54.296875 0 
L 45.3125 0 
L 45.3125 8.40625 
Q 42.046875 3.421875 37.71875 1 
Q 33.40625 -1.421875 27.6875 -1.421875 
Q 18.265625 -1.421875 13.375 4.4375 
Q 8.5 10.296875 8.5 21.578125 
z
M 31.109375 56 
z
" id="DejaVuSans-75"/>
     <path d="M 54.890625 33.015625 
L 54.890625 0 
L 45.90625 0 
L 45.90625 32.71875 
Q 45.90625 40.484375 42.875 44.328125 
Q 39.84375 48.1875 33.796875 48.1875 
Q 26.515625 48.1875 22.3125 43.546875 
Q 18.109375 38.921875 18.109375 30.90625 
L 18.109375 0 
L 9.078125 0 
L 9.078125 54.6875 
L 18.109375 54.6875 
L 18.109375 46.1875 
Q 21.34375 51.125 25.703125 53.5625 
Q 30.078125 56 35.796875 56 
Q 45.21875 56 50.046875 50.171875 
Q 54.890625 44.34375 54.890625 33.015625 
z
" id="DejaVuSans-6e"/>
    </defs>
    <g transform="translate(103.564432 16.318125)scale(0.12 -0.12)">
     <use xlink:href="#DejaVuSans-70"/>
     <use x="63.476562" xlink:href="#DejaVuSans-72"/>
     <use x="104.589844" xlink:href="#DejaVuSans-69"/>
     <use x="132.373047" xlink:href="#DejaVuSans-6f"/>
     <use x="193.554688" xlink:href="#DejaVuSans-72"/>
     <use x="234.667969" xlink:href="#DejaVuSans-20"/>
     <use x="266.455078" xlink:href="#DejaVuSans-64"/>
     <use x="329.931641" xlink:href="#DejaVuSans-69"/>
     <use x="357.714844" xlink:href="#DejaVuSans-73"/>
     <use x="409.814453" xlink:href="#DejaVuSans-74"/>
     <use x="449.023438" xlink:href="#DejaVuSans-72"/>
     <use x="490.136719" xlink:href="#DejaVuSans-69"/>
     <use x="517.919922" xlink:href="#DejaVuSans-62"/>
     <use x="581.396484" xlink:href="#DejaVuSans-75"/>
     <use x="644.775391" xlink:href="#DejaVuSans-74"/>
     <use x="683.984375" xlink:href="#DejaVuSans-69"/>
     <use x="711.767578" xlink:href="#DejaVuSans-6f"/>
     <use x="772.949219" xlink:href="#DejaVuSans-6e"/>
    </g>
   </g>
  </g>
  <g id="axes_2">
   <g id="patch_8">
    <path d="M 331.288636 185.398125 
L 584.925 185.398125 
L 584.925 22.318125 
L 331.288636 22.318125 
z
" style="fill:#ffffff;"/>
   </g>
   <g id="patch_9">
    <path clip-path="url(#p6a35eede6a)" d="M 342.817562 177.985398 
L 343.048371 177.985398 
L 343.279181 177.985398 
L 343.50999 177.985398 
L 343.740799 177.985398 
L 343.971609 177.985398 
L 344.202418 177.985398 
L 344.433227 177.985398 
L 344.664037 177.985398 
L 344.894846 177.985398 
L 345.125655 177.985398 
L 345.356465 177.985398 
L 345.587274 177.985398 
L 345.818083 177.985398 
L 346.048892 177.985398 
L 346.279702 177.985398 
L 346.510511 177.985398 
L 346.74132 177.985398 
L 346.97213 177.985398 
L 347.202939 177.985398 
L 347.433748 177.985398 
L 347.664558 177.985398 
L 347.895367 177.985398 
L 348.126176 177.985398 
L 348.356986 177.985398 
L 348.587795 177.985398 
L 348.818604 177.985398 
L 349.049414 177.985398 
L 349.280223 177.985398 
L 349.511032 177.985398 
L 349.741842 177.985398 
L 349.972651 177.985398 
L 350.20346 177.985398 
L 350.43427 177.985398 
L 350.665079 177.985398 
L 350.895888 177.985398 
L 351.126698 177.985398 
L 351.357507 177.985398 
L 351.588316 177.985398 
L 351.819126 177.985398 
L 352.049935 177.985398 
L 352.280744 177.985398 
L 352.511553 177.985398 
L 352.742363 177.985398 
L 352.973172 177.985398 
L 353.203981 177.985398 
L 353.434791 177.985398 
L 353.6656 177.985398 
L 353.896409 177.985398 
L 354.127219 177.985398 
L 354.358028 177.985398 
L 354.588837 177.985398 
L 354.819647 177.985398 
L 355.050456 177.985398 
L 355.281265 177.985398 
L 355.512075 177.985398 
L 355.742884 177.985398 
L 355.973693 177.985398 
L 356.204503 177.985398 
L 356.435312 177.985398 
L 356.666121 177.985398 
L 356.896931 177.985398 
L 357.12774 177.985398 
L 357.358549 177.985398 
L 357.589359 177.985398 
L 357.820168 177.985398 
L 358.050977 177.985398 
L 358.281787 177.985398 
L 358.512596 177.985398 
L 358.743405 177.985398 
L 358.974215 177.985398 
L 359.205024 177.985398 
L 359.435833 177.985398 
L 359.666642 177.985398 
L 359.897452 177.985398 
L 360.128261 177.985398 
L 360.35907 177.985398 
L 360.58988 177.985398 
L 360.820689 177.985398 
L 361.051498 177.985398 
L 361.282308 177.985398 
L 361.513117 177.985398 
L 361.743926 177.985398 
L 361.974736 177.985398 
L 362.205545 177.985398 
L 362.436354 177.985398 
L 362.667164 177.985398 
L 362.897973 177.985398 
L 363.128782 177.985398 
L 363.359592 177.985398 
L 363.590401 177.985398 
L 363.82121 177.985398 
L 364.05202 177.985398 
L 364.282829 177.985398 
L 364.513638 177.985398 
L 364.744448 177.985398 
L 364.975257 177.985398 
L 365.206066 177.985398 
L 365.436876 177.985398 
L 365.667685 177.985398 
L 365.898494 177.985398 
L 366.129303 177.985398 
L 366.360113 177.985398 
L 366.590922 177.985398 
L 366.821731 177.985398 
L 367.052541 177.985398 
L 367.28335 177.985398 
L 367.514159 177.985398 
L 367.744969 177.985398 
L 367.975778 177.985398 
L 368.206587 177.985398 
L 368.437397 177.985398 
L 368.668206 177.985398 
L 368.899015 177.985398 
L 369.129825 177.985398 
L 369.360634 177.985398 
L 369.591443 177.985398 
L 369.822253 177.985398 
L 370.053062 177.985398 
L 370.283871 177.985398 
L 370.514681 177.985398 
L 370.74549 177.985398 
L 370.976299 177.985398 
L 371.207109 177.985398 
L 371.437918 177.985398 
L 371.668727 177.985398 
L 371.899537 177.985398 
L 372.130346 177.985398 
L 372.361155 177.985398 
L 372.591964 177.985398 
L 372.822774 177.985398 
L 373.053583 177.985398 
L 373.284392 177.985398 
L 373.515202 177.985398 
L 373.746011 177.985398 
L 373.97682 177.985398 
L 374.20763 177.985398 
L 374.438439 177.985398 
L 374.669248 177.985398 
L 374.900058 177.985398 
L 375.130867 177.985398 
L 375.361676 177.985398 
L 375.592486 177.985398 
L 375.823295 177.985398 
L 376.054104 177.985398 
L 376.284914 177.985398 
L 376.515723 177.985398 
L 376.746532 177.985398 
L 376.977342 177.985398 
L 377.208151 177.985398 
L 377.43896 177.985398 
L 377.66977 177.985398 
L 377.900579 177.985398 
L 378.131388 177.985398 
L 378.362198 177.985398 
L 378.593007 177.985398 
L 378.823816 177.985398 
L 379.054625 177.985398 
L 379.285435 177.985398 
L 379.516244 177.985398 
L 379.747053 177.985398 
L 379.977863 177.985398 
L 380.208672 177.985398 
L 380.439481 177.985398 
L 380.670291 177.985398 
L 380.9011 177.985398 
L 381.131909 177.985398 
L 381.362719 177.985398 
L 381.593528 177.985398 
L 381.824337 177.985398 
L 382.055147 177.985398 
L 382.285956 177.985398 
L 382.516765 177.985398 
L 382.747575 177.985398 
L 382.978384 177.985398 
L 383.209193 177.985398 
L 383.440003 177.985398 
L 383.670812 177.985398 
L 383.901621 177.985398 
L 384.132431 177.985398 
L 384.36324 177.985398 
L 384.594049 177.985398 
L 384.824859 177.985398 
L 385.055668 177.985398 
L 385.286477 177.985398 
L 385.517287 177.985398 
L 385.748096 177.985398 
L 385.978905 177.985398 
L 386.209714 177.985398 
L 386.440524 177.985398 
L 386.671333 177.985398 
L 386.902142 177.985398 
L 387.132952 177.985398 
L 387.363761 177.985398 
L 387.59457 177.985398 
L 387.82538 177.985398 
L 388.056189 177.985398 
L 388.286998 177.985398 
L 388.517808 177.985398 
L 388.748617 177.985398 
L 388.979426 177.985398 
L 389.210236 177.985398 
L 389.441045 177.985398 
L 389.671854 177.985398 
L 389.902664 177.985398 
L 390.133473 177.985398 
L 390.364282 177.985398 
L 390.595092 177.985398 
L 390.825901 177.985398 
L 391.05671 177.985398 
L 391.28752 177.985398 
L 391.518329 177.985398 
L 391.749138 177.985398 
L 391.979948 177.985398 
L 392.210757 177.985398 
L 392.441566 177.985398 
L 392.672375 177.985398 
L 392.903185 177.985398 
L 393.133994 177.985398 
L 393.364803 177.985398 
L 393.595613 177.985398 
L 393.826422 177.985398 
L 394.057231 177.985398 
L 394.288041 177.985398 
L 394.51885 177.985398 
L 394.749659 177.985398 
L 394.980469 177.985398 
L 395.211278 177.985398 
L 395.442087 177.985398 
L 395.672897 177.985398 
L 395.903706 177.985398 
L 396.134515 177.985398 
L 396.365325 177.985398 
L 396.596134 177.985398 
L 396.826943 177.985398 
L 397.057753 177.985398 
L 397.288562 177.985398 
L 397.519371 177.985398 
L 397.750181 177.985398 
L 397.98099 177.985398 
L 398.211799 177.985398 
L 398.442609 177.985398 
L 398.673418 177.985398 
L 398.904227 177.985398 
L 399.135036 177.985398 
L 399.365846 177.985398 
L 399.596655 177.985398 
L 399.827464 177.985398 
L 400.058274 177.985398 
L 400.289083 177.985398 
L 400.519892 177.985398 
L 400.750702 177.985398 
L 400.981511 177.985398 
L 401.21232 177.985398 
L 401.44313 177.985398 
L 401.673939 177.985398 
L 401.904748 177.985398 
L 402.135558 177.985398 
L 402.366367 177.985398 
L 402.597176 177.985398 
L 402.827986 177.985398 
L 403.058795 177.985398 
L 403.289604 177.985398 
L 403.520414 177.985398 
L 403.751223 177.985398 
L 403.982032 177.985398 
L 404.212842 177.985398 
L 404.443651 177.985398 
L 404.67446 177.985398 
L 404.90527 177.985398 
L 405.136079 177.985398 
L 405.366888 177.985398 
L 405.597697 177.985398 
L 405.828507 177.985398 
L 406.059316 177.985398 
L 406.290125 177.985398 
L 406.520935 177.985398 
L 406.751744 177.985398 
L 406.982553 177.985398 
L 407.213363 177.985398 
L 407.444172 177.985398 
L 407.674981 177.985398 
L 407.905791 177.985398 
L 408.1366 177.985398 
L 408.367409 177.985398 
L 408.598219 177.985398 
L 408.829028 177.985398 
L 409.059837 177.985398 
L 409.290647 177.985398 
L 409.521456 177.985398 
L 409.752265 177.985398 
L 409.983075 177.985398 
L 410.213884 177.985398 
L 410.444693 177.985398 
L 410.675503 177.985398 
L 410.906312 177.985398 
L 411.137121 177.985398 
L 411.367931 177.985398 
L 411.59874 177.985398 
L 411.829549 177.985398 
L 412.060358 177.985398 
L 412.291168 177.985398 
L 412.521977 177.985398 
L 412.752786 177.985398 
L 412.983596 177.985398 
L 413.214405 177.985398 
L 413.445214 177.985398 
L 413.676024 177.985398 
L 413.906833 177.985398 
L 414.137642 177.985398 
L 414.368452 177.985398 
L 414.599261 177.985398 
L 414.83007 177.985398 
L 415.06088 177.985398 
L 415.291689 177.985398 
L 415.522498 177.985398 
L 415.753308 177.985398 
L 415.984117 177.985398 
L 416.214926 177.985398 
L 416.445736 177.985398 
L 416.676545 177.985398 
L 416.907354 177.985398 
L 417.138164 177.985398 
L 417.368973 177.985398 
L 417.599782 177.985398 
L 417.830592 177.985398 
L 418.061401 177.985398 
L 418.29221 177.985398 
L 418.52302 177.985398 
L 418.753829 177.985398 
L 418.984638 177.985398 
L 419.215447 177.985398 
L 419.446257 177.985398 
L 419.677066 177.985398 
L 419.907875 177.985398 
L 420.138685 177.985398 
L 420.369494 177.985398 
L 420.600303 177.985398 
L 420.831113 177.985398 
L 421.061922 177.985398 
L 421.292731 177.985398 
L 421.523541 177.985398 
L 421.75435 177.985398 
L 421.985159 177.985398 
L 422.215969 177.985398 
L 422.446778 177.985398 
L 422.677587 177.985398 
L 422.908397 177.985398 
L 423.139206 177.985398 
L 423.370015 177.985398 
L 423.600825 177.985398 
L 423.831634 177.985398 
L 424.062443 177.985398 
L 424.293253 177.985398 
L 424.524062 177.985398 
L 424.754871 177.985398 
L 424.985681 177.985398 
L 425.21649 177.985398 
L 425.447299 177.985398 
L 425.678108 177.985398 
L 425.908918 177.985398 
L 426.139727 177.985398 
L 426.370536 177.985398 
L 426.601346 177.985398 
L 426.832155 177.985398 
L 427.062964 177.985398 
L 427.293774 177.985398 
L 427.524583 177.985398 
L 427.755392 177.985398 
L 427.986202 177.985398 
L 428.217011 177.985398 
L 428.44782 177.985398 
L 428.67863 177.985398 
L 428.909439 177.985398 
L 429.140248 177.985398 
L 429.371058 177.985398 
L 429.601867 177.985398 
L 429.832676 177.985398 
L 430.063486 177.985398 
L 430.294295 177.985398 
L 430.525104 177.985398 
L 430.755914 177.985398 
L 430.986723 177.985398 
L 431.217532 177.985398 
L 431.448342 177.985398 
L 431.679151 177.985398 
L 431.90996 177.985398 
L 432.140769 177.985398 
L 432.371579 177.985398 
L 432.602388 177.985398 
L 432.833197 177.985398 
L 433.064007 177.985398 
L 433.294816 177.985398 
L 433.525625 177.985398 
L 433.756435 177.985398 
L 433.987244 177.985398 
L 434.218053 177.985398 
L 434.448863 177.985398 
L 434.679672 177.985398 
L 434.910481 177.985398 
L 435.141291 177.985398 
L 435.3721 177.985398 
L 435.602909 177.985398 
L 435.833719 177.985398 
L 436.064528 177.985398 
L 436.295337 177.985398 
L 436.526147 177.985398 
L 436.756956 177.985398 
L 436.987765 177.985398 
L 437.218575 177.985398 
L 437.449384 177.985398 
L 437.680193 177.985398 
L 437.911003 177.985398 
L 438.141812 177.985398 
L 438.372621 177.985398 
L 438.60343 177.985398 
L 438.83424 177.985398 
L 439.065049 177.985398 
L 439.295858 177.985398 
L 439.526668 177.985398 
L 439.757477 177.985398 
L 439.988286 177.985398 
L 440.219096 177.985398 
L 440.449905 177.985398 
L 440.680714 177.985398 
L 440.911524 177.985398 
L 441.142333 177.985398 
L 441.373142 177.985398 
L 441.603952 177.985398 
L 441.834761 177.985398 
L 442.06557 177.985398 
L 442.29638 177.985398 
L 442.527189 177.985398 
L 442.757998 177.985398 
L 442.988808 177.985398 
L 443.219617 177.985398 
L 443.450426 177.985398 
L 443.681236 177.985398 
L 443.912045 177.985398 
L 444.142854 177.985398 
L 444.373664 177.985398 
L 444.604473 177.985398 
L 444.835282 177.985398 
L 445.066092 177.985398 
L 445.296901 177.985398 
L 445.52771 177.985398 
L 445.758519 177.985398 
L 445.989329 177.985398 
L 446.220138 177.985398 
L 446.450947 177.985398 
L 446.681757 177.985398 
L 446.912566 177.985398 
L 447.143375 177.985398 
L 447.374185 177.985398 
L 447.604994 177.985398 
L 447.835803 177.985398 
L 448.066613 177.985398 
L 448.297422 177.985398 
L 448.528231 177.985398 
L 448.759041 177.985398 
L 448.98985 177.985398 
L 449.220659 177.985398 
L 449.451469 177.985398 
L 449.682278 177.985398 
L 449.913087 177.985398 
L 450.143897 177.985398 
L 450.374706 177.985398 
L 450.605515 177.985398 
L 450.836325 177.985398 
L 451.067134 177.985398 
L 451.297943 177.985398 
L 451.528753 177.985398 
L 451.759562 177.985398 
L 451.990371 177.985398 
L 452.22118 177.985398 
L 452.45199 177.985398 
L 452.682799 177.985398 
L 452.913608 177.985398 
L 453.144418 177.985398 
L 453.375227 177.985398 
L 453.606036 177.985398 
L 453.836846 177.985398 
L 454.067655 177.985398 
L 454.298464 177.985398 
L 454.529274 177.985398 
L 454.760083 177.985398 
L 454.990892 177.985398 
L 455.221702 177.985398 
L 455.452511 177.985398 
L 455.68332 177.985398 
L 455.91413 177.985398 
L 456.144939 177.985398 
L 456.375748 177.985398 
L 456.606558 177.985398 
L 456.837367 177.985398 
L 457.068176 177.985398 
L 457.298986 177.985398 
L 457.529795 177.985398 
L 457.760604 177.985398 
L 457.991414 177.985398 
L 458.222223 177.985398 
L 458.453032 177.985398 
L 458.683841 177.985398 
L 458.914651 177.985398 
L 459.14546 177.985398 
L 459.376269 177.985398 
L 459.607079 177.985398 
L 459.837888 177.985398 
L 460.068697 177.985398 
L 460.299507 177.985398 
L 460.530316 177.985398 
L 460.761125 177.985398 
L 460.991935 177.985398 
L 461.222744 177.985398 
L 461.453553 177.985398 
L 461.684363 177.985398 
L 461.915172 177.985398 
L 462.145981 177.985398 
L 462.376791 177.985398 
L 462.6076 177.985398 
L 462.838409 177.985398 
L 463.069219 177.985398 
L 463.300028 177.985398 
L 463.530837 177.985398 
L 463.761647 177.985398 
L 463.992456 177.985398 
L 464.223265 177.985398 
L 464.454075 177.985398 
L 464.684884 177.985398 
L 464.915693 177.985398 
L 465.146502 177.985398 
L 465.377312 177.985398 
L 465.608121 177.985398 
L 465.83893 177.985398 
L 466.06974 177.985398 
L 466.300549 177.985398 
L 466.531358 177.985398 
L 466.762168 177.985398 
L 466.992977 177.985398 
L 467.223786 177.985398 
L 467.454596 177.985398 
L 467.685405 177.985398 
L 467.916214 177.985398 
L 468.147024 177.985398 
L 468.377833 177.985398 
L 468.608642 177.985398 
L 468.839452 177.985398 
L 469.070261 177.985398 
L 469.30107 177.985398 
L 469.53188 177.985398 
L 469.762689 177.985398 
L 469.993498 177.985398 
L 470.224308 177.985398 
L 470.455117 177.985398 
L 470.685926 177.985398 
L 470.916736 177.985398 
L 471.147545 177.985398 
L 471.378354 177.985398 
L 471.609164 177.985398 
L 471.839973 177.985398 
L 472.070782 177.985398 
L 472.301591 177.985398 
L 472.532401 177.985398 
L 472.76321 177.985398 
L 472.994019 177.985398 
L 473.224829 177.985398 
L 473.455638 177.985398 
L 473.686447 177.985398 
L 473.917257 177.985398 
L 474.148066 177.985398 
L 474.378875 177.985398 
L 474.609685 177.985398 
L 474.840494 177.985398 
L 475.071303 177.985398 
L 475.302113 177.985398 
L 475.532922 177.985398 
L 475.763731 177.985398 
L 475.994541 177.985398 
L 476.22535 177.985398 
L 476.456159 177.985398 
L 476.686969 177.985398 
L 476.917778 177.985398 
L 477.148587 177.985398 
L 477.379397 177.985398 
L 477.610206 177.985398 
L 477.841015 177.985398 
L 478.071825 177.985398 
L 478.302634 177.985398 
L 478.533443 177.985398 
L 478.764252 177.985398 
L 478.995062 177.985398 
L 479.225871 177.985398 
L 479.45668 177.985398 
L 479.68749 177.985398 
L 479.918299 177.985398 
L 480.149108 177.985398 
L 480.379918 177.985398 
L 480.610727 177.985398 
L 480.841536 177.985398 
L 481.072346 177.985398 
L 481.303155 177.985398 
L 481.533964 177.985398 
L 481.764774 177.985398 
L 481.995583 177.985398 
L 482.226392 177.985398 
L 482.457202 177.985398 
L 482.688011 177.985398 
L 482.91882 177.985398 
L 483.14963 177.985398 
L 483.380439 177.985398 
L 483.611248 177.985398 
L 483.842058 177.985398 
L 484.072867 177.985398 
L 484.303676 177.985398 
L 484.534486 177.985398 
L 484.765295 177.985398 
L 484.996104 177.985398 
L 485.226913 177.985398 
L 485.457723 177.985398 
L 485.688532 177.985398 
L 485.919341 177.985398 
L 486.150151 177.985398 
L 486.38096 177.985398 
L 486.611769 177.985398 
L 486.842579 177.985398 
L 487.073388 177.985398 
L 487.304197 177.985398 
L 487.535007 177.985398 
L 487.765816 177.985398 
L 487.996625 177.985398 
L 488.227435 177.985398 
L 488.458244 177.985398 
L 488.689053 177.985398 
L 488.919863 177.985398 
L 489.150672 177.985398 
L 489.381481 177.985398 
L 489.612291 177.985398 
L 489.8431 177.985398 
L 490.073909 177.985398 
L 490.304719 177.985398 
L 490.535528 177.985398 
L 490.766337 177.985398 
L 490.997147 177.985398 
L 491.227956 177.985398 
L 491.458765 177.985397 
L 491.689574 177.985397 
L 491.920384 177.985397 
L 492.151193 177.985397 
L 492.382002 177.985396 
L 492.612812 177.985396 
L 492.843621 177.985395 
L 493.07443 177.985393 
L 493.30524 177.985392 
L 493.536049 177.985389 
L 493.766858 177.985385 
L 493.997668 177.985379 
L 494.228477 177.98537 
L 494.459286 177.985358 
L 494.690096 177.985341 
L 494.920905 177.985317 
L 495.151714 177.985284 
L 495.382524 177.985237 
L 495.613333 177.985171 
L 495.844142 177.98508 
L 496.074952 177.984954 
L 496.305761 177.984781 
L 496.53657 177.984544 
L 496.76738 177.98422 
L 496.998189 177.98378 
L 497.228998 177.983184 
L 497.459808 177.982382 
L 497.690617 177.981305 
L 497.921426 177.979866 
L 498.152235 177.977952 
L 498.383045 177.975417 
L 498.613854 177.972073 
L 498.844663 177.967683 
L 499.075473 177.961944 
L 499.306282 177.954474 
L 499.537091 177.944793 
L 499.767901 177.932304 
L 499.99871 177.916263 
L 500.229519 177.895753 
L 500.460329 177.869646 
L 500.691138 177.836564 
L 500.921947 177.794834 
L 501.152757 177.742437 
L 501.383566 177.676949 
L 501.614375 177.595474 
L 501.845185 177.494583 
L 502.075994 177.370233 
L 502.306803 177.21769 
L 502.537613 177.031448 
L 502.768422 176.805149 
L 502.999231 176.531497 
L 503.230041 176.202188 
L 503.46085 175.807834 
L 503.691659 175.337912 
L 503.922469 174.780719 
L 504.153278 174.123356 
L 504.384087 173.351734 
L 504.614897 172.450616 
L 504.845706 171.403693 
L 505.076515 170.193715 
L 505.307324 168.80266 
L 505.538134 167.211961 
L 505.768943 165.402798 
L 505.999752 163.356442 
L 506.230562 161.054662 
L 506.461371 158.480193 
L 506.69218 155.617258 
L 506.92299 152.452136 
L 507.153799 148.97377 
L 507.384608 145.174398 
L 507.615418 141.050195 
L 507.846227 136.601906 
L 508.077036 131.835446 
L 508.307846 126.762444 
L 508.538655 121.40072 
L 508.769464 115.774643 
L 509.000274 109.915378 
L 509.231083 103.860968 
L 509.461892 97.656263 
L 509.692702 91.352648 
L 509.923511 85.007588 
L 510.15432 78.683964 
L 510.38513 72.449213 
L 510.615939 66.374279 
L 510.846748 60.532389 
L 511.077558 54.997686 
L 511.308367 49.843742 
L 511.539176 45.141998 
L 511.769985 40.960167 
L 512.000795 37.360652 
L 512.231604 34.399037 
L 512.462413 32.122678 
L 512.693223 30.569471 
L 512.924032 29.76682 
L 513.154841 29.730852 
L 513.385651 30.465914 
L 513.61646 31.964356 
L 513.847269 34.206637 
L 514.078079 37.161732 
L 514.308888 40.787835 
L 514.539697 45.033345 
L 514.770507 49.838088 
L 515.001316 55.134746 
L 515.232125 60.850444 
L 515.462935 66.908429 
L 515.693744 73.229811 
L 515.924553 79.735283 
L 516.155363 86.346791 
L 516.386172 92.989082 
L 516.616981 99.591113 
L 516.847791 106.087255 
L 517.0786 112.418293 
L 517.309409 118.532189 
L 517.540219 124.3846 
L 517.771028 129.939163 
L 518.001837 135.167542 
L 518.232646 140.04927 
L 518.463456 144.571397 
L 518.694265 148.727978 
L 518.925074 152.519438 
L 519.155884 155.951832 
L 519.386693 159.036052 
L 519.617502 161.786999 
L 519.848312 164.222751 
L 520.079121 166.363767 
L 520.30993 168.232122 
L 520.54074 169.85082 
L 520.771549 171.243173 
L 521.002358 172.432274 
L 521.233168 173.440549 
L 521.463977 174.289403 
L 521.694786 174.998953 
L 521.925596 175.587835 
L 522.156405 176.073084 
L 522.387214 176.470085 
L 522.618024 176.792564 
L 522.848833 177.052632 
L 523.079642 177.260863 
L 523.310452 177.426388 
L 523.541261 177.557014 
L 523.77207 177.659352 
L 524.00288 177.738944 
L 524.233689 177.800394 
L 524.464498 177.847489 
L 524.695307 177.883316 
L 524.926117 177.91037 
L 525.156926 177.930646 
L 525.387735 177.945729 
L 525.618545 177.956864 
L 525.849354 177.965024 
L 526.080163 177.970956 
L 526.310973 177.975237 
L 526.541782 177.978302 
L 526.772591 177.98048 
L 527.003401 177.982015 
L 527.23421 177.983089 
L 527.465019 177.983834 
L 527.695829 177.984347 
L 527.926638 177.984697 
L 528.157447 177.984934 
L 528.388257 177.985093 
L 528.619066 177.9852 
L 528.849875 177.98527 
L 529.080685 177.985316 
L 529.311494 177.985346 
L 529.542303 177.985365 
L 529.773113 177.985377 
L 530.003922 177.985385 
L 530.234731 177.98539 
L 530.465541 177.985393 
L 530.69635 177.985395 
L 530.927159 177.985396 
L 531.157969 177.985397 
L 531.388778 177.985397 
L 531.619587 177.985397 
L 531.850396 177.985398 
L 532.081206 177.985398 
L 532.312015 177.985398 
L 532.542824 177.985398 
L 532.773634 177.985398 
L 533.004443 177.985398 
L 533.235252 177.985398 
L 533.466062 177.985398 
L 533.696871 177.985398 
L 533.92768 177.985398 
L 534.15849 177.985398 
L 534.389299 177.985398 
L 534.620108 177.985398 
L 534.850918 177.985398 
L 535.081727 177.985398 
L 535.312536 177.985398 
L 535.543346 177.985398 
L 535.774155 177.985398 
L 536.004964 177.985398 
L 536.235774 177.985398 
L 536.466583 177.985398 
L 536.697392 177.985398 
L 536.928202 177.985398 
L 537.159011 177.985398 
L 537.38982 177.985398 
L 537.62063 177.985398 
L 537.851439 177.985398 
L 538.082248 177.985398 
L 538.313057 177.985398 
L 538.543867 177.985398 
L 538.774676 177.985398 
L 539.005485 177.985398 
L 539.236295 177.985398 
L 539.467104 177.985398 
L 539.697913 177.985398 
L 539.928723 177.985398 
L 540.159532 177.985398 
L 540.390341 177.985398 
L 540.621151 177.985398 
L 540.85196 177.985398 
L 541.082769 177.985398 
L 541.313579 177.985398 
L 541.544388 177.985398 
L 541.775197 177.985398 
L 542.006007 177.985398 
L 542.236816 177.985398 
L 542.467625 177.985398 
L 542.698435 177.985398 
L 542.929244 177.985398 
L 543.160053 177.985398 
L 543.390863 177.985398 
L 543.621672 177.985398 
L 543.852481 177.985398 
L 544.083291 177.985398 
L 544.3141 177.985398 
L 544.544909 177.985398 
L 544.775718 177.985398 
L 545.006528 177.985398 
L 545.237337 177.985398 
L 545.468146 177.985398 
L 545.698956 177.985398 
L 545.929765 177.985398 
L 546.160574 177.985398 
L 546.391384 177.985398 
L 546.622193 177.985398 
L 546.853002 177.985398 
L 547.083812 177.985398 
L 547.314621 177.985398 
L 547.54543 177.985398 
L 547.77624 177.985398 
L 548.007049 177.985398 
L 548.237858 177.985398 
L 548.468668 177.985398 
L 548.699477 177.985398 
L 548.930286 177.985398 
L 549.161096 177.985398 
L 549.391905 177.985398 
L 549.622714 177.985398 
L 549.853524 177.985398 
L 550.084333 177.985398 
L 550.315142 177.985398 
L 550.545952 177.985398 
L 550.776761 177.985398 
L 551.00757 177.985398 
L 551.238379 177.985398 
L 551.469189 177.985398 
L 551.699998 177.985398 
L 551.930807 177.985398 
L 552.161617 177.985398 
L 552.392426 177.985398 
L 552.623235 177.985398 
L 552.854045 177.985398 
L 553.084854 177.985398 
L 553.315663 177.985398 
L 553.546473 177.985398 
L 553.777282 177.985398 
L 554.008091 177.985398 
L 554.238901 177.985398 
L 554.46971 177.985398 
L 554.700519 177.985398 
L 554.931329 177.985398 
L 555.162138 177.985398 
L 555.392947 177.985398 
L 555.623757 177.985398 
L 555.854566 177.985398 
L 556.085375 177.985398 
L 556.316185 177.985398 
L 556.546994 177.985398 
L 556.777803 177.985398 
L 557.008613 177.985398 
L 557.239422 177.985398 
L 557.470231 177.985398 
L 557.701041 177.985398 
L 557.93185 177.985398 
L 558.162659 177.985398 
L 558.393468 177.985398 
L 558.624278 177.985398 
L 558.855087 177.985398 
L 559.085896 177.985398 
L 559.316706 177.985398 
L 559.547515 177.985398 
L 559.778324 177.985398 
L 560.009134 177.985398 
L 560.239943 177.985398 
L 560.470752 177.985398 
L 560.701562 177.985398 
L 560.932371 177.985398 
L 561.16318 177.985398 
L 561.39399 177.985398 
L 561.624799 177.985398 
L 561.855608 177.985398 
L 562.086418 177.985398 
L 562.317227 177.985398 
L 562.548036 177.985398 
L 562.778846 177.985398 
L 563.009655 177.985398 
L 563.240464 177.985398 
L 563.471274 177.985398 
L 563.702083 177.985398 
L 563.932892 177.985398 
L 564.163702 177.985398 
L 564.394511 177.985398 
L 564.62532 177.985398 
L 564.856129 177.985398 
L 565.086939 177.985398 
L 565.317748 177.985398 
L 565.548557 177.985398 
L 565.779367 177.985398 
L 566.010176 177.985398 
L 566.240985 177.985398 
L 566.471795 177.985398 
L 566.702604 177.985398 
L 566.933413 177.985398 
L 567.164223 177.985398 
L 567.395032 177.985398 
L 567.625841 177.985398 
L 567.856651 177.985398 
L 568.08746 177.985398 
L 568.318269 177.985398 
L 568.549079 177.985398 
L 568.779888 177.985398 
L 569.010697 177.985398 
L 569.241507 177.985398 
L 569.472316 177.985398 
L 569.703125 177.985398 
L 569.933935 177.985398 
L 570.164744 177.985398 
L 570.395553 177.985398 
L 570.626363 177.985398 
L 570.857172 177.985398 
L 571.087981 177.985398 
L 571.31879 177.985398 
L 571.5496 177.985398 
L 571.780409 177.985398 
L 572.011218 177.985398 
L 572.242028 177.985398 
L 572.472837 177.985398 
L 572.703646 177.985398 
L 572.934456 177.985398 
L 573.165265 177.985398 
L 573.396074 177.985398 
z
" style="fill:#0000ff;opacity:0.1;"/>
   </g>
   <g id="matplotlib.axis_3">
    <g id="xtick_7">
     <g id="line2d_28">
      <path clip-path="url(#p6a35eede6a)" d="M 342.817562 185.398125 
L 342.817562 22.318125 
" style="fill:none;opacity:0.2;stroke:#808080;stroke-linecap:square;"/>
     </g>
     <g id="line2d_29">
      <g>
       <use style="stroke:#000000;stroke-width:0.8;" x="342.817562" xlink:href="#mb5defc1e1c" y="185.398125"/>
      </g>
     </g>
     <g id="text_15">
      <!-- 0.0 -->
      <g transform="translate(334.865999 199.996563)scale(0.1 -0.1)">
       <use xlink:href="#DejaVuSans-30"/>
       <use x="63.623047" xlink:href="#DejaVuSans-2e"/>
       <use x="95.410156" xlink:href="#DejaVuSans-30"/>
      </g>
     </g>
    </g>
    <g id="xtick_8">
     <g id="line2d_30">
      <path clip-path="url(#p6a35eede6a)" d="M 388.933264 185.398125 
L 388.933264 22.318125 
" style="fill:none;opacity:0.2;stroke:#808080;stroke-linecap:square;"/>
     </g>
     <g id="line2d_31">
      <g>
       <use style="stroke:#000000;stroke-width:0.8;" x="388.933264" xlink:href="#mb5defc1e1c" y="185.398125"/>
      </g>
     </g>
     <g id="text_16">
      <!-- 0.2 -->
      <g transform="translate(380.981702 199.996563)scale(0.1 -0.1)">
       <use xlink:href="#DejaVuSans-30"/>
       <use x="63.623047" xlink:href="#DejaVuSans-2e"/>
       <use x="95.410156" xlink:href="#DejaVuSans-32"/>
      </g>
     </g>
    </g>
    <g id="xtick_9">
     <g id="line2d_32">
      <path clip-path="url(#p6a35eede6a)" d="M 435.048967 185.398125 
L 435.048967 22.318125 
" style="fill:none;opacity:0.2;stroke:#808080;stroke-linecap:square;"/>
     </g>
     <g id="line2d_33">
      <g>
       <use style="stroke:#000000;stroke-width:0.8;" x="435.048967" xlink:href="#mb5defc1e1c" y="185.398125"/>
      </g>
     </g>
     <g id="text_17">
      <!-- 0.4 -->
      <g transform="translate(427.097404 199.996563)scale(0.1 -0.1)">
       <use xlink:href="#DejaVuSans-30"/>
       <use x="63.623047" xlink:href="#DejaVuSans-2e"/>
       <use x="95.410156" xlink:href="#DejaVuSans-34"/>
      </g>
     </g>
    </g>
    <g id="xtick_10">
     <g id="line2d_34">
      <path clip-path="url(#p6a35eede6a)" d="M 481.164669 185.398125 
L 481.164669 22.318125 
" style="fill:none;opacity:0.2;stroke:#808080;stroke-linecap:square;"/>
     </g>
     <g id="line2d_35">
      <g>
       <use style="stroke:#000000;stroke-width:0.8;" x="481.164669" xlink:href="#mb5defc1e1c" y="185.398125"/>
      </g>
     </g>
     <g id="text_18">
      <!-- 0.6 -->
      <g transform="translate(473.213107 199.996563)scale(0.1 -0.1)">
       <use xlink:href="#DejaVuSans-30"/>
       <use x="63.623047" xlink:href="#DejaVuSans-2e"/>
       <use x="95.410156" xlink:href="#DejaVuSans-36"/>
      </g>
     </g>
    </g>
    <g id="xtick_11">
     <g id="line2d_36">
      <path clip-path="url(#p6a35eede6a)" d="M 527.280372 185.398125 
L 527.280372 22.318125 
" style="fill:none;opacity:0.2;stroke:#808080;stroke-linecap:square;"/>
     </g>
     <g id="line2d_37">
      <g>
       <use style="stroke:#000000;stroke-width:0.8;" x="527.280372" xlink:href="#mb5defc1e1c" y="185.398125"/>
      </g>
     </g>
     <g id="text_19">
      <!-- 0.8 -->
      <g transform="translate(519.328809 199.996563)scale(0.1 -0.1)">
       <use xlink:href="#DejaVuSans-30"/>
       <use x="63.623047" xlink:href="#DejaVuSans-2e"/>
       <use x="95.410156" xlink:href="#DejaVuSans-38"/>
      </g>
     </g>
    </g>
    <g id="xtick_12">
     <g id="line2d_38">
      <path clip-path="url(#p6a35eede6a)" d="M 573.396074 185.398125 
L 573.396074 22.318125 
" style="fill:none;opacity:0.2;stroke:#808080;stroke-linecap:square;"/>
     </g>
     <g id="line2d_39">
      <g>
       <use style="stroke:#000000;stroke-width:0.8;" x="573.396074" xlink:href="#mb5defc1e1c" y="185.398125"/>
      </g>
     </g>
     <g id="text_20">
      <!-- 1.0 -->
      <g transform="translate(565.444512 199.996563)scale(0.1 -0.1)">
       <use xlink:href="#DejaVuSans-31"/>
       <use x="63.623047" xlink:href="#DejaVuSans-2e"/>
       <use x="95.410156" xlink:href="#DejaVuSans-30"/>
      </g>
     </g>
    </g>
   </g>
   <g id="matplotlib.axis_4">
    <g id="ytick_8">
     <g id="line2d_40">
      <path clip-path="url(#p6a35eede6a)" d="M 331.288636 177.985398 
L 584.925 177.985398 
" style="fill:none;opacity:0.2;stroke:#808080;stroke-linecap:square;"/>
     </g>
     <g id="line2d_41">
      <g>
       <use style="stroke:#000000;stroke-width:0.8;" x="331.288636" xlink:href="#m7d70e0976b" y="177.985398"/>
      </g>
     </g>
    </g>
    <g id="ytick_9">
     <g id="line2d_42">
      <path clip-path="url(#p6a35eede6a)" d="M 331.288636 152.198819 
L 584.925 152.198819 
" style="fill:none;opacity:0.2;stroke:#808080;stroke-linecap:square;"/>
     </g>
     <g id="line2d_43">
      <g>
       <use style="stroke:#000000;stroke-width:0.8;" x="331.288636" xlink:href="#m7d70e0976b" y="152.198819"/>
      </g>
     </g>
    </g>
    <g id="ytick_10">
     <g id="line2d_44">
      <path clip-path="url(#p6a35eede6a)" d="M 331.288636 126.412241 
L 584.925 126.412241 
" style="fill:none;opacity:0.2;stroke:#808080;stroke-linecap:square;"/>
     </g>
     <g id="line2d_45">
      <g>
       <use style="stroke:#000000;stroke-width:0.8;" x="331.288636" xlink:href="#m7d70e0976b" y="126.412241"/>
      </g>
     </g>
    </g>
    <g id="ytick_11">
     <g id="line2d_46">
      <path clip-path="url(#p6a35eede6a)" d="M 331.288636 100.625663 
L 584.925 100.625663 
" style="fill:none;opacity:0.2;stroke:#808080;stroke-linecap:square;"/>
     </g>
     <g id="line2d_47">
      <g>
       <use style="stroke:#000000;stroke-width:0.8;" x="331.288636" xlink:href="#m7d70e0976b" y="100.625663"/>
      </g>
     </g>
    </g>
    <g id="ytick_12">
     <g id="line2d_48">
      <path clip-path="url(#p6a35eede6a)" d="M 331.288636 74.839085 
L 584.925 74.839085 
" style="fill:none;opacity:0.2;stroke:#808080;stroke-linecap:square;"/>
     </g>
     <g id="line2d_49">
      <g>
       <use style="stroke:#000000;stroke-width:0.8;" x="331.288636" xlink:href="#m7d70e0976b" y="74.839085"/>
      </g>
     </g>
    </g>
    <g id="ytick_13">
     <g id="line2d_50">
      <path clip-path="url(#p6a35eede6a)" d="M 331.288636 49.052506 
L 584.925 49.052506 
" style="fill:none;opacity:0.2;stroke:#808080;stroke-linecap:square;"/>
     </g>
     <g id="line2d_51">
      <g>
       <use style="stroke:#000000;stroke-width:0.8;" x="331.288636" xlink:href="#m7d70e0976b" y="49.052506"/>
      </g>
     </g>
    </g>
    <g id="ytick_14">
     <g id="line2d_52">
      <path clip-path="url(#p6a35eede6a)" d="M 331.288636 23.265928 
L 584.925 23.265928 
" style="fill:none;opacity:0.2;stroke:#808080;stroke-linecap:square;"/>
     </g>
     <g id="line2d_53">
      <g>
       <use style="stroke:#000000;stroke-width:0.8;" x="331.288636" xlink:href="#m7d70e0976b" y="23.265928"/>
      </g>
     </g>
    </g>
   </g>
   <g id="LineCollection_3">
    <path clip-path="url(#p6a35eede6a)" d="M 514.115315 177.985398 
L 514.115315 172.828082 
" style="fill:none;stroke:#000000;stroke-width:0.5;"/>
    <path clip-path="url(#p6a35eede6a)" d="M 520.748694 177.985398 
L 520.748694 172.828082 
" style="fill:none;stroke:#000000;stroke-width:0.5;"/>
    <path clip-path="url(#p6a35eede6a)" d="M 533.430469 177.985398 
L 533.430469 172.828082 
" style="fill:none;stroke:#000000;stroke-width:0.5;"/>
    <path clip-path="url(#p6a35eede6a)" d="M 535.587962 177.985398 
L 535.587962 172.828082 
" style="fill:none;stroke:#000000;stroke-width:0.5;"/>
    <path clip-path="url(#p6a35eede6a)" d="M 502.296501 177.985398 
L 502.296501 172.828082 
" style="fill:none;stroke:#000000;stroke-width:0.5;"/>
    <path clip-path="url(#p6a35eede6a)" d="M 501.768841 177.985398 
L 501.768841 172.828082 
" style="fill:none;stroke:#000000;stroke-width:0.5;"/>
    <path clip-path="url(#p6a35eede6a)" d="M 506.243565 177.985398 
L 506.243565 172.828082 
" style="fill:none;stroke:#000000;stroke-width:0.5;"/>
    <path clip-path="url(#p6a35eede6a)" d="M 495.571227 177.985398 
L 495.571227 172.828082 
" style="fill:none;stroke:#000000;stroke-width:0.5;"/>
    <path clip-path="url(#p6a35eede6a)" d="M 515.196028 177.985398 
L 515.196028 172.828082 
" style="fill:none;stroke:#000000;stroke-width:0.5;"/>
    <path clip-path="url(#p6a35eede6a)" d="M 506.118873 177.985398 
L 506.118873 172.828082 
" style="fill:none;stroke:#000000;stroke-width:0.5;"/>
   </g>
   <g id="LineCollection_4">
    <path clip-path="url(#p6a35eede6a)" d="M 515.751446 177.985398 
L 515.751446 172.828082 
" style="fill:none;stroke:#ff0000;stroke-width:2;"/>
   </g>
   <g id="line2d_54">
    <path clip-path="url(#p6a35eede6a)" d="M 342.817562 177.985398 
L 500.229519 177.895753 
L 501.383566 177.676949 
L 502.075994 177.370233 
L 502.768422 176.805149 
L 503.230041 176.202188 
L 503.691659 175.337912 
L 504.153278 174.123356 
L 504.614897 172.450616 
L 505.307324 168.80266 
L 505.999752 163.356442 
L 506.69218 155.617258 
L 507.384608 145.174398 
L 508.307846 126.762444 
L 509.461892 97.656263 
L 511.308367 49.843742 
L 512.000795 37.360652 
L 512.462413 32.122678 
L 512.924032 29.76682 
L 513.154841 29.730852 
L 513.385651 30.465914 
L 513.61646 31.964356 
L 514.078079 37.161732 
L 514.539697 45.033345 
L 515.232125 60.850444 
L 516.847791 106.087255 
L 518.001837 135.167542 
L 518.925074 152.519438 
L 519.617502 161.786999 
L 520.30993 168.232122 
L 521.002358 172.432274 
L 521.694786 174.998953 
L 522.387214 176.470085 
L 523.079642 177.260863 
L 523.77207 177.659352 
L 524.695307 177.883316 
L 526.310973 177.975237 
L 535.312536 177.985398 
L 573.396074 177.985398 
L 573.396074 177.985398 
" style="fill:none;stroke:#1f77b4;stroke-linecap:square;stroke-width:1.5;"/>
   </g>
   <g id="patch_10">
    <path d="M 331.288636 185.398125 
L 331.288636 22.318125 
" style="fill:none;stroke:#000000;stroke-linecap:square;stroke-linejoin:miter;stroke-width:0.8;"/>
   </g>
   <g id="patch_11">
    <path d="M 584.925 185.398125 
L 584.925 22.318125 
" style="fill:none;stroke:#000000;stroke-linecap:square;stroke-linejoin:miter;stroke-width:0.8;"/>
   </g>
   <g id="patch_12">
    <path d="M 331.288636 185.398125 
L 584.925 185.398125 
" style="fill:none;stroke:#000000;stroke-linecap:square;stroke-linejoin:miter;stroke-width:0.8;"/>
   </g>
   <g id="patch_13">
    <path d="M 331.288636 22.318125 
L 584.925 22.318125 
" style="fill:none;stroke:#000000;stroke-linecap:square;stroke-linejoin:miter;stroke-width:0.8;"/>
   </g>
   <g id="text_21">
    <!-- posterior distribution -->
    <defs>
     <path d="M 56.203125 29.59375 
L 56.203125 25.203125 
L 14.890625 25.203125 
Q 15.484375 15.921875 20.484375 11.0625 
Q 25.484375 6.203125 34.421875 6.203125 
Q 39.59375 6.203125 44.453125 7.46875 
Q 49.3125 8.734375 54.109375 11.28125 
L 54.109375 2.78125 
Q 49.265625 0.734375 44.1875 -0.34375 
Q 39.109375 -1.421875 33.890625 -1.421875 
Q 20.796875 -1.421875 13.15625 6.1875 
Q 5.515625 13.8125 5.515625 26.8125 
Q 5.515625 40.234375 12.765625 48.109375 
Q 20.015625 56 32.328125 56 
Q 43.359375 56 49.78125 48.890625 
Q 56.203125 41.796875 56.203125 29.59375 
z
M 47.21875 32.234375 
Q 47.125 39.59375 43.09375 43.984375 
Q 39.0625 48.390625 32.421875 48.390625 
Q 24.90625 48.390625 20.390625 44.140625 
Q 15.875 39.890625 15.1875 32.171875 
z
" id="DejaVuSans-65"/>
    </defs>
    <g transform="translate(395.087131 16.318125)scale(0.12 -0.12)">
     <use xlink:href="#DejaVuSans-70"/>
     <use x="63.476562" xlink:href="#DejaVuSans-6f"/>
     <use x="124.658203" xlink:href="#DejaVuSans-73"/>
     <use x="176.757812" xlink:href="#DejaVuSans-74"/>
     <use x="215.966797" xlink:href="#DejaVuSans-65"/>
     <use x="277.490234" xlink:href="#DejaVuSans-72"/>
     <use x="318.603516" xlink:href="#DejaVuSans-69"/>
     <use x="346.386719" xlink:href="#DejaVuSans-6f"/>
     <use x="407.568359" xlink:href="#DejaVuSans-72"/>
     <use x="448.681641" xlink:href="#DejaVuSans-20"/>
     <use x="480.46875" xlink:href="#DejaVuSans-64"/>
     <use x="543.945312" xlink:href="#DejaVuSans-69"/>
     <use x="571.728516" xlink:href="#DejaVuSans-73"/>
     <use x="623.828125" xlink:href="#DejaVuSans-74"/>
     <use x="663.037109" xlink:href="#DejaVuSans-72"/>
     <use x="704.150391" xlink:href="#DejaVuSans-69"/>
     <use x="731.933594" xlink:href="#DejaVuSans-62"/>
     <use x="795.410156" xlink:href="#DejaVuSans-75"/>
     <use x="858.789062" xlink:href="#DejaVuSans-74"/>
     <use x="897.998047" xlink:href="#DejaVuSans-69"/>
     <use x="925.78125" xlink:href="#DejaVuSans-6f"/>
     <use x="986.962891" xlink:href="#DejaVuSans-6e"/>
    </g>
   </g>
  </g>
 </g>
 <defs>
  <clipPath id="pd3b969dc10">
   <rect height="163.08" width="253.636364" x="26.925" y="22.318125"/>
  </clipPath>
  <clipPath id="p6a35eede6a">
   <rect height="163.08" width="253.636364" x="331.288636" y="22.318125"/>
  </clipPath>
 </defs>
</svg>
