<?xml version="1.0" encoding="utf-8" standalone="no"?>
<!DOCTYPE svg PUBLIC "-//W3C//DTD SVG 1.1//EN"
  "http://www.w3.org/Graphics/SVG/1.1/DTD/svg11.dtd">
<!-- Created with matplotlib (http://matplotlib.org/) -->
<svg height="209pt" version="1.1" viewBox="0 0 605 209" width="605pt" xmlns="http://www.w3.org/2000/svg" xmlns:xlink="http://www.w3.org/1999/xlink">
 <defs>
  <style type="text/css">
*{stroke-linecap:butt;stroke-linejoin:round;}
  </style>
 </defs>
 <g id="figure_1">
  <g id="patch_1">
   <path d="M 0 209.27625 
L 605.165625 209.27625 
L 605.165625 0 
L 0 0 
z
" style="fill:#ffffff;"/>
  </g>
  <g id="axes_1">
   <g id="patch_2">
    <path d="M 36.465625 185.398125 
L 290.101989 185.398125 
L 290.101989 22.318125 
L 36.465625 22.318125 
z
" style="fill:#ffffff;"/>
   </g>
   <g id="patch_3">
    <path clip-path="url(#p19cce0cd57)" d="M 47.994551 177.985398 
L 48.22536 177.981058 
L 48.456169 177.973141 
L 48.686979 177.962915 
L 48.917788 177.950836 
L 49.148597 177.937168 
L 49.379407 177.922094 
L 49.610216 177.905747 
L 49.841025 177.88823 
L 50.071835 177.869629 
L 50.302644 177.850013 
L 50.533453 177.829442 
L 50.764262 177.807969 
L 50.995072 177.785639 
L 51.225881 177.762491 
L 51.45669 177.738563 
L 51.6875 177.713888 
L 51.918309 177.688493 
L 52.149118 177.662408 
L 52.379928 177.635658 
L 52.610737 177.608264 
L 52.841546 177.58025 
L 53.072356 177.551635 
L 53.303165 177.522439 
L 53.533974 177.492678 
L 53.764784 177.46237 
L 53.995593 177.431531 
L 54.226402 177.400175 
L 54.457212 177.368317 
L 54.688021 177.33597 
L 54.91883 177.303148 
L 55.14964 177.269862 
L 55.380449 177.236124 
L 55.611258 177.201946 
L 55.842068 177.167338 
L 56.072877 177.13231 
L 56.303686 177.096874 
L 56.534496 177.061038 
L 56.765305 177.024811 
L 56.996114 176.988204 
L 57.226923 176.951223 
L 57.457733 176.913879 
L 57.688542 176.876178 
L 57.919351 176.838128 
L 58.150161 176.799738 
L 58.38097 176.761015 
L 58.611779 176.721965 
L 58.842589 176.682597 
L 59.073398 176.642916 
L 59.304207 176.602929 
L 59.535017 176.562642 
L 59.765826 176.522063 
L 59.996635 176.481197 
L 60.227445 176.440049 
L 60.458254 176.398627 
L 60.689063 176.356935 
L 60.919873 176.314978 
L 61.150682 176.272764 
L 61.381491 176.230296 
L 61.612301 176.18758 
L 61.84311 176.144621 
L 62.073919 176.101424 
L 62.304729 176.057993 
L 62.535538 176.014335 
L 62.766347 175.970452 
L 62.997157 175.926351 
L 63.227966 175.882034 
L 63.458775 175.837508 
L 63.689584 175.792776 
L 63.920394 175.747841 
L 64.151203 175.70271 
L 64.382012 175.657385 
L 64.612822 175.61187 
L 64.843631 175.56617 
L 65.07444 175.520289 
L 65.30525 175.47423 
L 65.536059 175.427997 
L 65.766868 175.381593 
L 65.997678 175.335023 
L 66.228487 175.28829 
L 66.459296 175.241397 
L 66.690106 175.194349 
L 66.920915 175.147147 
L 67.151724 175.099797 
L 67.382534 175.0523 
L 67.613343 175.004661 
L 67.844152 174.956883 
L 68.074962 174.908968 
L 68.305771 174.86092 
L 68.53658 174.812742 
L 68.76739 174.764436 
L 68.998199 174.716007 
L 69.229008 174.667457 
L 69.459818 174.618789 
L 69.690627 174.570006 
L 69.921436 174.52111 
L 70.152246 174.472105 
L 70.383055 174.422992 
L 70.613864 174.373776 
L 70.844673 174.324459 
L 71.075483 174.275043 
L 71.306292 174.225531 
L 71.537101 174.175925 
L 71.767911 174.126229 
L 71.99872 174.076444 
L 72.229529 174.026574 
L 72.460339 173.976621 
L 72.691148 173.926586 
L 72.921957 173.876474 
L 73.152767 173.826285 
L 73.383576 173.776023 
L 73.614385 173.72569 
L 73.845195 173.675288 
L 74.076004 173.624819 
L 74.306813 173.574286 
L 74.537623 173.52369 
L 74.768432 173.473036 
L 74.999241 173.422323 
L 75.230051 173.371555 
L 75.46086 173.320734 
L 75.691669 173.269861 
L 75.922479 173.21894 
L 76.153288 173.167972 
L 76.384097 173.116959 
L 76.614907 173.065903 
L 76.845716 173.014806 
L 77.076525 172.963671 
L 77.307334 172.912499 
L 77.538144 172.861292 
L 77.768953 172.810052 
L 77.999762 172.758782 
L 78.230572 172.707482 
L 78.461381 172.656156 
L 78.69219 172.604804 
L 78.923 172.553429 
L 79.153809 172.502032 
L 79.384618 172.450616 
L 79.615428 172.399183 
L 79.846237 172.347733 
L 80.077046 172.296269 
L 80.307856 172.244792 
L 80.538665 172.193305 
L 80.769474 172.141809 
L 81.000284 172.090305 
L 81.231093 172.038796 
L 81.461902 171.987284 
L 81.692712 171.935769 
L 81.923521 171.884253 
L 82.15433 171.832739 
L 82.38514 171.781228 
L 82.615949 171.72972 
L 82.846758 171.678219 
L 83.077568 171.626726 
L 83.308377 171.575242 
L 83.539186 171.523768 
L 83.769995 171.472307 
L 84.000805 171.42086 
L 84.231614 171.369428 
L 84.462423 171.318013 
L 84.693233 171.266616 
L 84.924042 171.215239 
L 85.154851 171.163884 
L 85.385661 171.112552 
L 85.61647 171.061243 
L 85.847279 171.009961 
L 86.078089 170.958706 
L 86.308898 170.907479 
L 86.539707 170.856283 
L 86.770517 170.805118 
L 87.001326 170.753986 
L 87.232135 170.702888 
L 87.462945 170.651825 
L 87.693754 170.6008 
L 87.924563 170.549813 
L 88.155373 170.498865 
L 88.386182 170.447959 
L 88.616991 170.397095 
L 88.847801 170.346274 
L 89.07861 170.295498 
L 89.309419 170.244769 
L 89.540229 170.194087 
L 89.771038 170.143454 
L 90.001847 170.092871 
L 90.232656 170.042339 
L 90.463466 169.991859 
L 90.694275 169.941434 
L 90.925084 169.891063 
L 91.155894 169.840749 
L 91.386703 169.790492 
L 91.617512 169.740294 
L 91.848322 169.690155 
L 92.079131 169.640078 
L 92.30994 169.590062 
L 92.54075 169.54011 
L 92.771559 169.490223 
L 93.002368 169.440401 
L 93.233178 169.390646 
L 93.463987 169.340959 
L 93.694796 169.291341 
L 93.925606 169.241793 
L 94.156415 169.192317 
L 94.387224 169.142913 
L 94.618034 169.093582 
L 94.848843 169.044326 
L 95.079652 168.995146 
L 95.310462 168.946042 
L 95.541271 168.897017 
L 95.77208 168.84807 
L 96.00289 168.799203 
L 96.233699 168.750417 
L 96.464508 168.701714 
L 96.695318 168.653093 
L 96.926127 168.604556 
L 97.156936 168.556105 
L 97.387745 168.507739 
L 97.618555 168.459461 
L 97.849364 168.411271 
L 98.080173 168.36317 
L 98.310983 168.315159 
L 98.541792 168.267239 
L 98.772601 168.219411 
L 99.003411 168.171676 
L 99.23422 168.124036 
L 99.465029 168.07649 
L 99.695839 168.02904 
L 99.926648 167.981687 
L 100.157457 167.934432 
L 100.388267 167.887275 
L 100.619076 167.840218 
L 100.849885 167.793261 
L 101.080695 167.746406 
L 101.311504 167.699654 
L 101.542313 167.653004 
L 101.773123 167.606459 
L 102.003932 167.560019 
L 102.234741 167.513684 
L 102.465551 167.467457 
L 102.69636 167.421337 
L 102.927169 167.375326 
L 103.157979 167.329424 
L 103.388788 167.283632 
L 103.619597 167.237951 
L 103.850406 167.192383 
L 104.081216 167.146927 
L 104.312025 167.101585 
L 104.542834 167.056357 
L 104.773644 167.011244 
L 105.004453 166.966248 
L 105.235262 166.921368 
L 105.466072 166.876606 
L 105.696881 166.831962 
L 105.92769 166.787438 
L 106.1585 166.743034 
L 106.389309 166.698751 
L 106.620118 166.654589 
L 106.850928 166.61055 
L 107.081737 166.566634 
L 107.312546 166.522842 
L 107.543356 166.479175 
L 107.774165 166.435633 
L 108.004974 166.392217 
L 108.235784 166.348929 
L 108.466593 166.305768 
L 108.697402 166.262735 
L 108.928212 166.219832 
L 109.159021 166.177059 
L 109.38983 166.134416 
L 109.62064 166.091905 
L 109.851449 166.049525 
L 110.082258 166.007279 
L 110.313067 165.965166 
L 110.543877 165.923187 
L 110.774686 165.881343 
L 111.005495 165.839634 
L 111.236305 165.798062 
L 111.467114 165.756627 
L 111.697923 165.715329 
L 111.928733 165.67417 
L 112.159542 165.63315 
L 112.390351 165.592269 
L 112.621161 165.551529 
L 112.85197 165.510929 
L 113.082779 165.470471 
L 113.313589 165.430155 
L 113.544398 165.389983 
L 113.775207 165.349953 
L 114.006017 165.310068 
L 114.236826 165.270328 
L 114.467635 165.230733 
L 114.698445 165.191284 
L 114.929254 165.151982 
L 115.160063 165.112827 
L 115.390873 165.07382 
L 115.621682 165.034962 
L 115.852491 164.996252 
L 116.083301 164.957692 
L 116.31411 164.919283 
L 116.544919 164.881024 
L 116.775728 164.842917 
L 117.006538 164.804962 
L 117.237347 164.76716 
L 117.468156 164.729511 
L 117.698966 164.692015 
L 117.929775 164.654674 
L 118.160584 164.617488 
L 118.391394 164.580458 
L 118.622203 164.543583 
L 118.853012 164.506865 
L 119.083822 164.470304 
L 119.314631 164.433901 
L 119.54544 164.397656 
L 119.77625 164.36157 
L 120.007059 164.325643 
L 120.237868 164.289876 
L 120.468678 164.254269 
L 120.699487 164.218823 
L 120.930296 164.183539 
L 121.161106 164.148416 
L 121.391915 164.113456 
L 121.622724 164.078659 
L 121.853534 164.044025 
L 122.084343 164.009555 
L 122.315152 163.97525 
L 122.545962 163.941109 
L 122.776771 163.907134 
L 123.00758 163.873325 
L 123.23839 163.839683 
L 123.469199 163.806207 
L 123.700008 163.772898 
L 123.930817 163.739758 
L 124.161627 163.706786 
L 124.392436 163.673982 
L 124.623245 163.641348 
L 124.854055 163.608883 
L 125.084864 163.576589 
L 125.315673 163.544465 
L 125.546483 163.512512 
L 125.777292 163.480731 
L 126.008101 163.449122 
L 126.238911 163.417685 
L 126.46972 163.386421 
L 126.700529 163.355331 
L 126.931339 163.324414 
L 127.162148 163.293671 
L 127.392957 163.263102 
L 127.623767 163.232709 
L 127.854576 163.202491 
L 128.085385 163.172449 
L 128.316195 163.142583 
L 128.547004 163.112894 
L 128.777813 163.083382 
L 129.008623 163.054047 
L 129.239432 163.02489 
L 129.470241 162.995911 
L 129.701051 162.967111 
L 129.93186 162.93849 
L 130.162669 162.910049 
L 130.393478 162.881787 
L 130.624288 162.853706 
L 130.855097 162.825805 
L 131.085906 162.798084 
L 131.316716 162.770546 
L 131.547525 162.743189 
L 131.778334 162.716013 
L 132.009144 162.689021 
L 132.239953 162.662211 
L 132.470762 162.635584 
L 132.701572 162.609141 
L 132.932381 162.582881 
L 133.16319 162.556806 
L 133.394 162.530915 
L 133.624809 162.505209 
L 133.855618 162.479689 
L 134.086428 162.454353 
L 134.317237 162.429204 
L 134.548046 162.404241 
L 134.778856 162.379464 
L 135.009665 162.354875 
L 135.240474 162.330472 
L 135.471284 162.306257 
L 135.702093 162.28223 
L 135.932902 162.25839 
L 136.163712 162.23474 
L 136.394521 162.211278 
L 136.62533 162.188005 
L 136.856139 162.164921 
L 137.086949 162.142027 
L 137.317758 162.119323 
L 137.548567 162.096809 
L 137.779377 162.074486 
L 138.010186 162.052353 
L 138.240995 162.030412 
L 138.471805 162.008662 
L 138.702614 161.987104 
L 138.933423 161.965737 
L 139.164233 161.944563 
L 139.395042 161.923581 
L 139.625851 161.902792 
L 139.856661 161.882196 
L 140.08747 161.861793 
L 140.318279 161.841584 
L 140.549089 161.821569 
L 140.779898 161.801747 
L 141.010707 161.78212 
L 141.241517 161.762688 
L 141.472326 161.74345 
L 141.703135 161.724407 
L 141.933945 161.705559 
L 142.164754 161.686907 
L 142.395563 161.668451 
L 142.626373 161.650191 
L 142.857182 161.632127 
L 143.087991 161.614259 
L 143.3188 161.596588 
L 143.54961 161.579114 
L 143.780419 161.561837 
L 144.011228 161.544757 
L 144.242038 161.527875 
L 144.472847 161.51119 
L 144.703656 161.494704 
L 144.934466 161.478415 
L 145.165275 161.462325 
L 145.396084 161.446433 
L 145.626894 161.430741 
L 145.857703 161.415247 
L 146.088512 161.399952 
L 146.319322 161.384857 
L 146.550131 161.369961 
L 146.78094 161.355264 
L 147.01175 161.340768 
L 147.242559 161.326472 
L 147.473368 161.312376 
L 147.704178 161.29848 
L 147.934987 161.284785 
L 148.165796 161.271291 
L 148.396606 161.257997 
L 148.627415 161.244905 
L 148.858224 161.232014 
L 149.089034 161.219324 
L 149.319843 161.206836 
L 149.550652 161.194549 
L 149.781461 161.182465 
L 150.012271 161.170582 
L 150.24308 161.158902 
L 150.473889 161.147423 
L 150.704699 161.136148 
L 150.935508 161.125074 
L 151.166317 161.114204 
L 151.397127 161.103536 
L 151.627936 161.093072 
L 151.858745 161.08281 
L 152.089555 161.072752 
L 152.320364 161.062896 
L 152.551173 161.053245 
L 152.781983 161.043797 
L 153.012792 161.034553 
L 153.243601 161.025512 
L 153.474411 161.016675 
L 153.70522 161.008043 
L 153.936029 160.999614 
L 154.166839 160.99139 
L 154.397648 160.98337 
L 154.628457 160.975555 
L 154.859267 160.967944 
L 155.090076 160.960537 
L 155.320885 160.953336 
L 155.551695 160.946339 
L 155.782504 160.939547 
L 156.013313 160.93296 
L 156.244123 160.926578 
L 156.474932 160.920401 
L 156.705741 160.914429 
L 156.93655 160.908663 
L 157.16736 160.903102 
L 157.398169 160.897746 
L 157.628978 160.892596 
L 157.859788 160.887651 
L 158.090597 160.882912 
L 158.321406 160.878379 
L 158.552216 160.874051 
L 158.783025 160.869929 
L 159.013834 160.866012 
L 159.244644 160.862302 
L 159.475453 160.858797 
L 159.706262 160.855499 
L 159.937072 160.852406 
L 160.167881 160.84952 
L 160.39869 160.846839 
L 160.6295 160.844365 
L 160.860309 160.842096 
L 161.091118 160.840034 
L 161.321928 160.838178 
L 161.552737 160.836528 
L 161.783546 160.835084 
L 162.014356 160.833847 
L 162.245165 160.832815 
L 162.475974 160.83199 
L 162.706784 160.831371 
L 162.937593 160.830959 
L 163.168402 160.830753 
L 163.399211 160.830753 
L 163.630021 160.830959 
L 163.86083 160.831371 
L 164.091639 160.83199 
L 164.322449 160.832815 
L 164.553258 160.833847 
L 164.784067 160.835084 
L 165.014877 160.836528 
L 165.245686 160.838178 
L 165.476495 160.840034 
L 165.707305 160.842096 
L 165.938114 160.844365 
L 166.168923 160.846839 
L 166.399733 160.84952 
L 166.630542 160.852406 
L 166.861351 160.855499 
L 167.092161 160.858797 
L 167.32297 160.862302 
L 167.553779 160.866012 
L 167.784589 160.869929 
L 168.015398 160.874051 
L 168.246207 160.878379 
L 168.477017 160.882912 
L 168.707826 160.887651 
L 168.938635 160.892596 
L 169.169445 160.897746 
L 169.400254 160.903102 
L 169.631063 160.908663 
L 169.861872 160.914429 
L 170.092682 160.920401 
L 170.323491 160.926578 
L 170.5543 160.93296 
L 170.78511 160.939547 
L 171.015919 160.946339 
L 171.246728 160.953336 
L 171.477538 160.960537 
L 171.708347 160.967944 
L 171.939156 160.975555 
L 172.169966 160.98337 
L 172.400775 160.99139 
L 172.631584 160.999614 
L 172.862394 161.008043 
L 173.093203 161.016675 
L 173.324012 161.025512 
L 173.554822 161.034553 
L 173.785631 161.043797 
L 174.01644 161.053245 
L 174.24725 161.062896 
L 174.478059 161.072752 
L 174.708868 161.08281 
L 174.939678 161.093072 
L 175.170487 161.103536 
L 175.401296 161.114204 
L 175.632106 161.125074 
L 175.862915 161.136148 
L 176.093724 161.147423 
L 176.324533 161.158902 
L 176.555343 161.170582 
L 176.786152 161.182465 
L 177.016961 161.194549 
L 177.247771 161.206836 
L 177.47858 161.219324 
L 177.709389 161.232014 
L 177.940199 161.244905 
L 178.171008 161.257997 
L 178.401817 161.271291 
L 178.632627 161.284785 
L 178.863436 161.29848 
L 179.094245 161.312376 
L 179.325055 161.326472 
L 179.555864 161.340768 
L 179.786673 161.355264 
L 180.017483 161.369961 
L 180.248292 161.384857 
L 180.479101 161.399952 
L 180.709911 161.415247 
L 180.94072 161.430741 
L 181.171529 161.446433 
L 181.402339 161.462325 
L 181.633148 161.478415 
L 181.863957 161.494704 
L 182.094767 161.51119 
L 182.325576 161.527875 
L 182.556385 161.544757 
L 182.787195 161.561837 
L 183.018004 161.579114 
L 183.248813 161.596588 
L 183.479622 161.614259 
L 183.710432 161.632127 
L 183.941241 161.650191 
L 184.17205 161.668451 
L 184.40286 161.686907 
L 184.633669 161.705559 
L 184.864478 161.724407 
L 185.095288 161.74345 
L 185.326097 161.762688 
L 185.556906 161.78212 
L 185.787716 161.801747 
L 186.018525 161.821569 
L 186.249334 161.841584 
L 186.480144 161.861793 
L 186.710953 161.882196 
L 186.941762 161.902792 
L 187.172572 161.923581 
L 187.403381 161.944563 
L 187.63419 161.965737 
L 187.865 161.987104 
L 188.095809 162.008662 
L 188.326618 162.030412 
L 188.557428 162.052353 
L 188.788237 162.074486 
L 189.019046 162.096809 
L 189.249856 162.119323 
L 189.480665 162.142027 
L 189.711474 162.164921 
L 189.942283 162.188005 
L 190.173093 162.211278 
L 190.403902 162.23474 
L 190.634711 162.25839 
L 190.865521 162.28223 
L 191.09633 162.306257 
L 191.327139 162.330472 
L 191.557949 162.354875 
L 191.788758 162.379464 
L 192.019567 162.404241 
L 192.250377 162.429204 
L 192.481186 162.454353 
L 192.711995 162.479689 
L 192.942805 162.505209 
L 193.173614 162.530915 
L 193.404423 162.556806 
L 193.635233 162.582881 
L 193.866042 162.609141 
L 194.096851 162.635584 
L 194.327661 162.662211 
L 194.55847 162.689021 
L 194.789279 162.716013 
L 195.020089 162.743189 
L 195.250898 162.770546 
L 195.481707 162.798084 
L 195.712517 162.825805 
L 195.943326 162.853706 
L 196.174135 162.881787 
L 196.404944 162.910049 
L 196.635754 162.93849 
L 196.866563 162.967111 
L 197.097372 162.995911 
L 197.328182 163.02489 
L 197.558991 163.054047 
L 197.7898 163.083382 
L 198.02061 163.112894 
L 198.251419 163.142583 
L 198.482228 163.172449 
L 198.713038 163.202491 
L 198.943847 163.232709 
L 199.174656 163.263102 
L 199.405466 163.293671 
L 199.636275 163.324414 
L 199.867084 163.355331 
L 200.097894 163.386421 
L 200.328703 163.417685 
L 200.559512 163.449122 
L 200.790322 163.480731 
L 201.021131 163.512512 
L 201.25194 163.544465 
L 201.48275 163.576589 
L 201.713559 163.608883 
L 201.944368 163.641348 
L 202.175178 163.673982 
L 202.405987 163.706786 
L 202.636796 163.739758 
L 202.867605 163.772898 
L 203.098415 163.806207 
L 203.329224 163.839683 
L 203.560033 163.873325 
L 203.790843 163.907134 
L 204.021652 163.941109 
L 204.252461 163.97525 
L 204.483271 164.009555 
L 204.71408 164.044025 
L 204.944889 164.078659 
L 205.175699 164.113456 
L 205.406508 164.148416 
L 205.637317 164.183539 
L 205.868127 164.218823 
L 206.098936 164.254269 
L 206.329745 164.289876 
L 206.560555 164.325643 
L 206.791364 164.36157 
L 207.022173 164.397656 
L 207.252983 164.433901 
L 207.483792 164.470304 
L 207.714601 164.506865 
L 207.945411 164.543583 
L 208.17622 164.580458 
L 208.407029 164.617488 
L 208.637839 164.654674 
L 208.868648 164.692015 
L 209.099457 164.729511 
L 209.330267 164.76716 
L 209.561076 164.804962 
L 209.791885 164.842917 
L 210.022694 164.881024 
L 210.253504 164.919283 
L 210.484313 164.957692 
L 210.715122 164.996252 
L 210.945932 165.034962 
L 211.176741 165.07382 
L 211.40755 165.112827 
L 211.63836 165.151982 
L 211.869169 165.191284 
L 212.099978 165.230733 
L 212.330788 165.270328 
L 212.561597 165.310068 
L 212.792406 165.349953 
L 213.023216 165.389983 
L 213.254025 165.430155 
L 213.484834 165.470471 
L 213.715644 165.510929 
L 213.946453 165.551529 
L 214.177262 165.592269 
L 214.408072 165.63315 
L 214.638881 165.67417 
L 214.86969 165.715329 
L 215.1005 165.756627 
L 215.331309 165.798062 
L 215.562118 165.839634 
L 215.792928 165.881343 
L 216.023737 165.923187 
L 216.254546 165.965166 
L 216.485355 166.007279 
L 216.716165 166.049525 
L 216.946974 166.091905 
L 217.177783 166.134416 
L 217.408593 166.177059 
L 217.639402 166.219832 
L 217.870211 166.262735 
L 218.101021 166.305768 
L 218.33183 166.348929 
L 218.562639 166.392217 
L 218.793449 166.435633 
L 219.024258 166.479175 
L 219.255067 166.522842 
L 219.485877 166.566634 
L 219.716686 166.61055 
L 219.947495 166.654589 
L 220.178305 166.698751 
L 220.409114 166.743034 
L 220.639923 166.787438 
L 220.870733 166.831962 
L 221.101542 166.876606 
L 221.332351 166.921368 
L 221.563161 166.966248 
L 221.79397 167.011244 
L 222.024779 167.056357 
L 222.255589 167.101585 
L 222.486398 167.146927 
L 222.717207 167.192383 
L 222.948016 167.237951 
L 223.178826 167.283632 
L 223.409635 167.329424 
L 223.640444 167.375326 
L 223.871254 167.421337 
L 224.102063 167.467457 
L 224.332872 167.513684 
L 224.563682 167.560019 
L 224.794491 167.606459 
L 225.0253 167.653004 
L 225.25611 167.699654 
L 225.486919 167.746406 
L 225.717728 167.793261 
L 225.948538 167.840218 
L 226.179347 167.887275 
L 226.410156 167.934432 
L 226.640966 167.981687 
L 226.871775 168.02904 
L 227.102584 168.07649 
L 227.333394 168.124036 
L 227.564203 168.171676 
L 227.795012 168.219411 
L 228.025822 168.267239 
L 228.256631 168.315159 
L 228.48744 168.36317 
L 228.71825 168.411271 
L 228.949059 168.459461 
L 229.179868 168.507739 
L 229.410677 168.556105 
L 229.641487 168.604556 
L 229.872296 168.653093 
L 230.103105 168.701714 
L 230.333915 168.750417 
L 230.564724 168.799203 
L 230.795533 168.84807 
L 231.026343 168.897017 
L 231.257152 168.946042 
L 231.487961 168.995146 
L 231.718771 169.044326 
L 231.94958 169.093582 
L 232.180389 169.142913 
L 232.411199 169.192317 
L 232.642008 169.241793 
L 232.872817 169.291341 
L 233.103627 169.340959 
L 233.334436 169.390646 
L 233.565245 169.440401 
L 233.796055 169.490223 
L 234.026864 169.54011 
L 234.257673 169.590062 
L 234.488483 169.640078 
L 234.719292 169.690155 
L 234.950101 169.740294 
L 235.180911 169.790492 
L 235.41172 169.840749 
L 235.642529 169.891063 
L 235.873338 169.941434 
L 236.104148 169.991859 
L 236.334957 170.042339 
L 236.565766 170.092871 
L 236.796576 170.143454 
L 237.027385 170.194087 
L 237.258194 170.244769 
L 237.489004 170.295498 
L 237.719813 170.346274 
L 237.950622 170.397095 
L 238.181432 170.447959 
L 238.412241 170.498865 
L 238.64305 170.549813 
L 238.87386 170.6008 
L 239.104669 170.651825 
L 239.335478 170.702888 
L 239.566288 170.753986 
L 239.797097 170.805118 
L 240.027906 170.856283 
L 240.258716 170.907479 
L 240.489525 170.958706 
L 240.720334 171.009961 
L 240.951144 171.061243 
L 241.181953 171.112552 
L 241.412762 171.163884 
L 241.643572 171.215239 
L 241.874381 171.266616 
L 242.10519 171.318013 
L 242.336 171.369428 
L 242.566809 171.42086 
L 242.797618 171.472307 
L 243.028427 171.523768 
L 243.259237 171.575242 
L 243.490046 171.626726 
L 243.720855 171.678219 
L 243.951665 171.72972 
L 244.182474 171.781228 
L 244.413283 171.832739 
L 244.644093 171.884253 
L 244.874902 171.935769 
L 245.105711 171.987284 
L 245.336521 172.038796 
L 245.56733 172.090305 
L 245.798139 172.141809 
L 246.028949 172.193305 
L 246.259758 172.244792 
L 246.490567 172.296269 
L 246.721377 172.347733 
L 246.952186 172.399183 
L 247.182995 172.450616 
L 247.413805 172.502032 
L 247.644614 172.553429 
L 247.875423 172.604804 
L 248.106233 172.656156 
L 248.337042 172.707482 
L 248.567851 172.758782 
L 248.798661 172.810052 
L 249.02947 172.861292 
L 249.260279 172.912499 
L 249.491088 172.963671 
L 249.721898 173.014806 
L 249.952707 173.065903 
L 250.183516 173.116959 
L 250.414326 173.167972 
L 250.645135 173.21894 
L 250.875944 173.269861 
L 251.106754 173.320734 
L 251.337563 173.371555 
L 251.568372 173.422323 
L 251.799182 173.473036 
L 252.029991 173.52369 
L 252.2608 173.574286 
L 252.49161 173.624819 
L 252.722419 173.675288 
L 252.953228 173.72569 
L 253.184038 173.776023 
L 253.414847 173.826285 
L 253.645656 173.876474 
L 253.876466 173.926586 
L 254.107275 173.976621 
L 254.338084 174.026574 
L 254.568894 174.076444 
L 254.799703 174.126229 
L 255.030512 174.175925 
L 255.261322 174.225531 
L 255.492131 174.275043 
L 255.72294 174.324459 
L 255.953749 174.373776 
L 256.184559 174.422992 
L 256.415368 174.472105 
L 256.646177 174.52111 
L 256.876987 174.570006 
L 257.107796 174.618789 
L 257.338605 174.667457 
L 257.569415 174.716007 
L 257.800224 174.764436 
L 258.031033 174.812742 
L 258.261843 174.86092 
L 258.492652 174.908968 
L 258.723461 174.956883 
L 258.954271 175.004661 
L 259.18508 175.0523 
L 259.415889 175.099797 
L 259.646699 175.147147 
L 259.877508 175.194349 
L 260.108317 175.241397 
L 260.339127 175.28829 
L 260.569936 175.335023 
L 260.800745 175.381593 
L 261.031555 175.427997 
L 261.262364 175.47423 
L 261.493173 175.520289 
L 261.723983 175.56617 
L 261.954792 175.61187 
L 262.185601 175.657385 
L 262.41641 175.70271 
L 262.64722 175.747841 
L 262.878029 175.792776 
L 263.108838 175.837508 
L 263.339648 175.882034 
L 263.570457 175.926351 
L 263.801266 175.970452 
L 264.032076 176.014335 
L 264.262885 176.057993 
L 264.493694 176.101424 
L 264.724504 176.144621 
L 264.955313 176.18758 
L 265.186122 176.230296 
L 265.416932 176.272764 
L 265.647741 176.314978 
L 265.87855 176.356935 
L 266.10936 176.398627 
L 266.340169 176.440049 
L 266.570978 176.481197 
L 266.801788 176.522063 
L 267.032597 176.562642 
L 267.263406 176.602929 
L 267.494216 176.642916 
L 267.725025 176.682597 
L 267.955834 176.721965 
L 268.186644 176.761015 
L 268.417453 176.799738 
L 268.648262 176.838128 
L 268.879072 176.876178 
L 269.109881 176.913879 
L 269.34069 176.951223 
L 269.571499 176.988204 
L 269.802309 177.024811 
L 270.033118 177.061038 
L 270.263927 177.096874 
L 270.494737 177.13231 
L 270.725546 177.167338 
L 270.956355 177.201946 
L 271.187165 177.236124 
L 271.417974 177.269862 
L 271.648783 177.303148 
L 271.879593 177.33597 
L 272.110402 177.368317 
L 272.341211 177.400175 
L 272.572021 177.431531 
L 272.80283 177.46237 
L 273.033639 177.492678 
L 273.264449 177.522439 
L 273.495258 177.551635 
L 273.726067 177.58025 
L 273.956877 177.608264 
L 274.187686 177.635658 
L 274.418495 177.662408 
L 274.649305 177.688493 
L 274.880114 177.713888 
L 275.110923 177.738563 
L 275.341733 177.762491 
L 275.572542 177.785639 
L 275.803351 177.807969 
L 276.03416 177.829442 
L 276.26497 177.850013 
L 276.495779 177.869629 
L 276.726588 177.88823 
L 276.957398 177.905747 
L 277.188207 177.922094 
L 277.419016 177.937168 
L 277.649826 177.950836 
L 277.880635 177.962915 
L 278.111444 177.973141 
L 278.342254 177.981058 
L 278.573063 177.985398 
z
" style="fill:#0000ff;opacity:0.1;"/>
   </g>
   <g id="matplotlib.axis_1">
    <g id="xtick_1">
     <g id="line2d_1">
      <path clip-path="url(#p19cce0cd57)" d="M 47.994551 185.398125 
L 47.994551 22.318125 
" style="fill:none;opacity:0.2;stroke:#808080;stroke-linecap:square;"/>
     </g>
     <g id="line2d_2">
      <defs>
       <path d="M 0 0 
L 0 3.5 
" id="m23c9a166a1" style="stroke:#000000;stroke-width:0.8;"/>
      </defs>
      <g>
       <use style="stroke:#000000;stroke-width:0.8;" x="47.994551" xlink:href="#m23c9a166a1" y="185.398125"/>
      </g>
     </g>
     <g id="text_1">
      <!-- 0.0 -->
      <defs>
       <path d="M 31.78125 66.40625 
Q 24.171875 66.40625 20.328125 58.90625 
Q 16.5 51.421875 16.5 36.375 
Q 16.5 21.390625 20.328125 13.890625 
Q 24.171875 6.390625 31.78125 6.390625 
Q 39.453125 6.390625 43.28125 13.890625 
Q 47.125 21.390625 47.125 36.375 
Q 47.125 51.421875 43.28125 58.90625 
Q 39.453125 66.40625 31.78125 66.40625 
z
M 31.78125 74.21875 
Q 44.046875 74.21875 50.515625 64.515625 
Q 56.984375 54.828125 56.984375 36.375 
Q 56.984375 17.96875 50.515625 8.265625 
Q 44.046875 -1.421875 31.78125 -1.421875 
Q 19.53125 -1.421875 13.0625 8.265625 
Q 6.59375 17.96875 6.59375 36.375 
Q 6.59375 54.828125 13.0625 64.515625 
Q 19.53125 74.21875 31.78125 74.21875 
z
" id="DejaVuSans-30"/>
       <path d="M 10.6875 12.40625 
L 21 12.40625 
L 21 0 
L 10.6875 0 
z
" id="DejaVuSans-2e"/>
      </defs>
      <g transform="translate(40.042988 199.996563)scale(0.1 -0.1)">
       <use xlink:href="#DejaVuSans-30"/>
       <use x="63.623047" xlink:href="#DejaVuSans-2e"/>
       <use x="95.410156" xlink:href="#DejaVuSans-30"/>
      </g>
     </g>
    </g>
    <g id="xtick_2">
     <g id="line2d_3">
      <path clip-path="url(#p19cce0cd57)" d="M 94.110253 185.398125 
L 94.110253 22.318125 
" style="fill:none;opacity:0.2;stroke:#808080;stroke-linecap:square;"/>
     </g>
     <g id="line2d_4">
      <g>
       <use style="stroke:#000000;stroke-width:0.8;" x="94.110253" xlink:href="#m23c9a166a1" y="185.398125"/>
      </g>
     </g>
     <g id="text_2">
      <!-- 0.2 -->
      <defs>
       <path d="M 19.1875 8.296875 
L 53.609375 8.296875 
L 53.609375 0 
L 7.328125 0 
L 7.328125 8.296875 
Q 12.9375 14.109375 22.625 23.890625 
Q 32.328125 33.6875 34.8125 36.53125 
Q 39.546875 41.84375 41.421875 45.53125 
Q 43.3125 49.21875 43.3125 52.78125 
Q 43.3125 58.59375 39.234375 62.25 
Q 35.15625 65.921875 28.609375 65.921875 
Q 23.96875 65.921875 18.8125 64.3125 
Q 13.671875 62.703125 7.8125 59.421875 
L 7.8125 69.390625 
Q 13.765625 71.78125 18.9375 73 
Q 24.125 74.21875 28.421875 74.21875 
Q 39.75 74.21875 46.484375 68.546875 
Q 53.21875 62.890625 53.21875 53.421875 
Q 53.21875 48.921875 51.53125 44.890625 
Q 49.859375 40.875 45.40625 35.40625 
Q 44.1875 33.984375 37.640625 27.21875 
Q 31.109375 20.453125 19.1875 8.296875 
z
" id="DejaVuSans-32"/>
      </defs>
      <g transform="translate(86.158691 199.996563)scale(0.1 -0.1)">
       <use xlink:href="#DejaVuSans-30"/>
       <use x="63.623047" xlink:href="#DejaVuSans-2e"/>
       <use x="95.410156" xlink:href="#DejaVuSans-32"/>
      </g>
     </g>
    </g>
    <g id="xtick_3">
     <g id="line2d_5">
      <path clip-path="url(#p19cce0cd57)" d="M 140.225956 185.398125 
L 140.225956 22.318125 
" style="fill:none;opacity:0.2;stroke:#808080;stroke-linecap:square;"/>
     </g>
     <g id="line2d_6">
      <g>
       <use style="stroke:#000000;stroke-width:0.8;" x="140.225956" xlink:href="#m23c9a166a1" y="185.398125"/>
      </g>
     </g>
     <g id="text_3">
      <!-- 0.4 -->
      <defs>
       <path d="M 37.796875 64.3125 
L 12.890625 25.390625 
L 37.796875 25.390625 
z
M 35.203125 72.90625 
L 47.609375 72.90625 
L 47.609375 25.390625 
L 58.015625 25.390625 
L 58.015625 17.1875 
L 47.609375 17.1875 
L 47.609375 0 
L 37.796875 0 
L 37.796875 17.1875 
L 4.890625 17.1875 
L 4.890625 26.703125 
z
" id="DejaVuSans-34"/>
      </defs>
      <g transform="translate(132.274393 199.996563)scale(0.1 -0.1)">
       <use xlink:href="#DejaVuSans-30"/>
       <use x="63.623047" xlink:href="#DejaVuSans-2e"/>
       <use x="95.410156" xlink:href="#DejaVuSans-34"/>
      </g>
     </g>
    </g>
    <g id="xtick_4">
     <g id="line2d_7">
      <path clip-path="url(#p19cce0cd57)" d="M 186.341658 185.398125 
L 186.341658 22.318125 
" style="fill:none;opacity:0.2;stroke:#808080;stroke-linecap:square;"/>
     </g>
     <g id="line2d_8">
      <g>
       <use style="stroke:#000000;stroke-width:0.8;" x="186.341658" xlink:href="#m23c9a166a1" y="185.398125"/>
      </g>
     </g>
     <g id="text_4">
      <!-- 0.6 -->
      <defs>
       <path d="M 33.015625 40.375 
Q 26.375 40.375 22.484375 35.828125 
Q 18.609375 31.296875 18.609375 23.390625 
Q 18.609375 15.53125 22.484375 10.953125 
Q 26.375 6.390625 33.015625 6.390625 
Q 39.65625 6.390625 43.53125 10.953125 
Q 47.40625 15.53125 47.40625 23.390625 
Q 47.40625 31.296875 43.53125 35.828125 
Q 39.65625 40.375 33.015625 40.375 
z
M 52.59375 71.296875 
L 52.59375 62.3125 
Q 48.875 64.0625 45.09375 64.984375 
Q 41.3125 65.921875 37.59375 65.921875 
Q 27.828125 65.921875 22.671875 59.328125 
Q 17.53125 52.734375 16.796875 39.40625 
Q 19.671875 43.65625 24.015625 45.921875 
Q 28.375 48.1875 33.59375 48.1875 
Q 44.578125 48.1875 50.953125 41.515625 
Q 57.328125 34.859375 57.328125 23.390625 
Q 57.328125 12.15625 50.6875 5.359375 
Q 44.046875 -1.421875 33.015625 -1.421875 
Q 20.359375 -1.421875 13.671875 8.265625 
Q 6.984375 17.96875 6.984375 36.375 
Q 6.984375 53.65625 15.1875 63.9375 
Q 23.390625 74.21875 37.203125 74.21875 
Q 40.921875 74.21875 44.703125 73.484375 
Q 48.484375 72.75 52.59375 71.296875 
z
" id="DejaVuSans-36"/>
      </defs>
      <g transform="translate(178.390096 199.996563)scale(0.1 -0.1)">
       <use xlink:href="#DejaVuSans-30"/>
       <use x="63.623047" xlink:href="#DejaVuSans-2e"/>
       <use x="95.410156" xlink:href="#DejaVuSans-36"/>
      </g>
     </g>
    </g>
    <g id="xtick_5">
     <g id="line2d_9">
      <path clip-path="url(#p19cce0cd57)" d="M 232.457361 185.398125 
L 232.457361 22.318125 
" style="fill:none;opacity:0.2;stroke:#808080;stroke-linecap:square;"/>
     </g>
     <g id="line2d_10">
      <g>
       <use style="stroke:#000000;stroke-width:0.8;" x="232.457361" xlink:href="#m23c9a166a1" y="185.398125"/>
      </g>
     </g>
     <g id="text_5">
      <!-- 0.8 -->
      <defs>
       <path d="M 31.78125 34.625 
Q 24.75 34.625 20.71875 30.859375 
Q 16.703125 27.09375 16.703125 20.515625 
Q 16.703125 13.921875 20.71875 10.15625 
Q 24.75 6.390625 31.78125 6.390625 
Q 38.8125 6.390625 42.859375 10.171875 
Q 46.921875 13.96875 46.921875 20.515625 
Q 46.921875 27.09375 42.890625 30.859375 
Q 38.875 34.625 31.78125 34.625 
z
M 21.921875 38.8125 
Q 15.578125 40.375 12.03125 44.71875 
Q 8.5 49.078125 8.5 55.328125 
Q 8.5 64.0625 14.71875 69.140625 
Q 20.953125 74.21875 31.78125 74.21875 
Q 42.671875 74.21875 48.875 69.140625 
Q 55.078125 64.0625 55.078125 55.328125 
Q 55.078125 49.078125 51.53125 44.71875 
Q 48 40.375 41.703125 38.8125 
Q 48.828125 37.15625 52.796875 32.3125 
Q 56.78125 27.484375 56.78125 20.515625 
Q 56.78125 9.90625 50.3125 4.234375 
Q 43.84375 -1.421875 31.78125 -1.421875 
Q 19.734375 -1.421875 13.25 4.234375 
Q 6.78125 9.90625 6.78125 20.515625 
Q 6.78125 27.484375 10.78125 32.3125 
Q 14.796875 37.15625 21.921875 38.8125 
z
M 18.3125 54.390625 
Q 18.3125 48.734375 21.84375 45.5625 
Q 25.390625 42.390625 31.78125 42.390625 
Q 38.140625 42.390625 41.71875 45.5625 
Q 45.3125 48.734375 45.3125 54.390625 
Q 45.3125 60.0625 41.71875 63.234375 
Q 38.140625 66.40625 31.78125 66.40625 
Q 25.390625 66.40625 21.84375 63.234375 
Q 18.3125 60.0625 18.3125 54.390625 
z
" id="DejaVuSans-38"/>
      </defs>
      <g transform="translate(224.505798 199.996563)scale(0.1 -0.1)">
       <use xlink:href="#DejaVuSans-30"/>
       <use x="63.623047" xlink:href="#DejaVuSans-2e"/>
       <use x="95.410156" xlink:href="#DejaVuSans-38"/>
      </g>
     </g>
    </g>
    <g id="xtick_6">
     <g id="line2d_11">
      <path clip-path="url(#p19cce0cd57)" d="M 278.573063 185.398125 
L 278.573063 22.318125 
" style="fill:none;opacity:0.2;stroke:#808080;stroke-linecap:square;"/>
     </g>
     <g id="line2d_12">
      <g>
       <use style="stroke:#000000;stroke-width:0.8;" x="278.573063" xlink:href="#m23c9a166a1" y="185.398125"/>
      </g>
     </g>
     <g id="text_6">
      <!-- 1.0 -->
      <defs>
       <path d="M 12.40625 8.296875 
L 28.515625 8.296875 
L 28.515625 63.921875 
L 10.984375 60.40625 
L 10.984375 69.390625 
L 28.421875 72.90625 
L 38.28125 72.90625 
L 38.28125 8.296875 
L 54.390625 8.296875 
L 54.390625 0 
L 12.40625 0 
z
" id="DejaVuSans-31"/>
      </defs>
      <g transform="translate(270.621501 199.996563)scale(0.1 -0.1)">
       <use xlink:href="#DejaVuSans-31"/>
       <use x="63.623047" xlink:href="#DejaVuSans-2e"/>
       <use x="95.410156" xlink:href="#DejaVuSans-30"/>
      </g>
     </g>
    </g>
   </g>
   <g id="matplotlib.axis_2">
    <g id="ytick_1">
     <g id="line2d_13">
      <path clip-path="url(#p19cce0cd57)" d="M 36.465625 177.985398 
L 290.101989 177.985398 
" style="fill:none;opacity:0.2;stroke:#808080;stroke-linecap:square;"/>
     </g>
     <g id="line2d_14">
      <defs>
       <path d="M 0 0 
L -3.5 0 
" id="m2a836a246b" style="stroke:#000000;stroke-width:0.8;"/>
      </defs>
      <g>
       <use style="stroke:#000000;stroke-width:0.8;" x="36.465625" xlink:href="#m2a836a246b" y="177.985398"/>
      </g>
     </g>
     <g id="text_7">
      <!-- 0.0 -->
      <g transform="translate(13.5625 181.784616)scale(0.1 -0.1)">
       <use xlink:href="#DejaVuSans-30"/>
       <use x="63.623047" xlink:href="#DejaVuSans-2e"/>
       <use x="95.410156" xlink:href="#DejaVuSans-30"/>
      </g>
     </g>
    </g>
    <g id="ytick_2">
     <g id="line2d_15">
      <path clip-path="url(#p19cce0cd57)" d="M 36.465625 152.72306 
L 290.101989 152.72306 
" style="fill:none;opacity:0.2;stroke:#808080;stroke-linecap:square;"/>
     </g>
     <g id="line2d_16">
      <g>
       <use style="stroke:#000000;stroke-width:0.8;" x="36.465625" xlink:href="#m2a836a246b" y="152.72306"/>
      </g>
     </g>
     <g id="text_8">
      <!-- 2.5 -->
      <defs>
       <path d="M 10.796875 72.90625 
L 49.515625 72.90625 
L 49.515625 64.59375 
L 19.828125 64.59375 
L 19.828125 46.734375 
Q 21.96875 47.46875 24.109375 47.828125 
Q 26.265625 48.1875 28.421875 48.1875 
Q 40.625 48.1875 47.75 41.5 
Q 54.890625 34.8125 54.890625 23.390625 
Q 54.890625 11.625 47.5625 5.09375 
Q 40.234375 -1.421875 26.90625 -1.421875 
Q 22.3125 -1.421875 17.546875 -0.640625 
Q 12.796875 0.140625 7.71875 1.703125 
L 7.71875 11.625 
Q 12.109375 9.234375 16.796875 8.0625 
Q 21.484375 6.890625 26.703125 6.890625 
Q 35.15625 6.890625 40.078125 11.328125 
Q 45.015625 15.765625 45.015625 23.390625 
Q 45.015625 31 40.078125 35.4375 
Q 35.15625 39.890625 26.703125 39.890625 
Q 22.75 39.890625 18.8125 39.015625 
Q 14.890625 38.140625 10.796875 36.28125 
z
" id="DejaVuSans-35"/>
      </defs>
      <g transform="translate(13.5625 156.522278)scale(0.1 -0.1)">
       <use xlink:href="#DejaVuSans-32"/>
       <use x="63.623047" xlink:href="#DejaVuSans-2e"/>
       <use x="95.410156" xlink:href="#DejaVuSans-35"/>
      </g>
     </g>
    </g>
    <g id="ytick_3">
     <g id="line2d_17">
      <path clip-path="url(#p19cce0cd57)" d="M 36.465625 127.460721 
L 290.101989 127.460721 
" style="fill:none;opacity:0.2;stroke:#808080;stroke-linecap:square;"/>
     </g>
     <g id="line2d_18">
      <g>
       <use style="stroke:#000000;stroke-width:0.8;" x="36.465625" xlink:href="#m2a836a246b" y="127.460721"/>
      </g>
     </g>
     <g id="text_9">
      <!-- 5.0 -->
      <g transform="translate(13.5625 131.25994)scale(0.1 -0.1)">
       <use xlink:href="#DejaVuSans-35"/>
       <use x="63.623047" xlink:href="#DejaVuSans-2e"/>
       <use x="95.410156" xlink:href="#DejaVuSans-30"/>
      </g>
     </g>
    </g>
    <g id="ytick_4">
     <g id="line2d_19">
      <path clip-path="url(#p19cce0cd57)" d="M 36.465625 102.198383 
L 290.101989 102.198383 
" style="fill:none;opacity:0.2;stroke:#808080;stroke-linecap:square;"/>
     </g>
     <g id="line2d_20">
      <g>
       <use style="stroke:#000000;stroke-width:0.8;" x="36.465625" xlink:href="#m2a836a246b" y="102.198383"/>
      </g>
     </g>
     <g id="text_10">
      <!-- 7.5 -->
      <defs>
       <path d="M 8.203125 72.90625 
L 55.078125 72.90625 
L 55.078125 68.703125 
L 28.609375 0 
L 18.3125 0 
L 43.21875 64.59375 
L 8.203125 64.59375 
z
" id="DejaVuSans-37"/>
      </defs>
      <g transform="translate(13.5625 105.997602)scale(0.1 -0.1)">
       <use xlink:href="#DejaVuSans-37"/>
       <use x="63.623047" xlink:href="#DejaVuSans-2e"/>
       <use x="95.410156" xlink:href="#DejaVuSans-35"/>
      </g>
     </g>
    </g>
    <g id="ytick_5">
     <g id="line2d_21">
      <path clip-path="url(#p19cce0cd57)" d="M 36.465625 76.936045 
L 290.101989 76.936045 
" style="fill:none;opacity:0.2;stroke:#808080;stroke-linecap:square;"/>
     </g>
     <g id="line2d_22">
      <g>
       <use style="stroke:#000000;stroke-width:0.8;" x="36.465625" xlink:href="#m2a836a246b" y="76.936045"/>
      </g>
     </g>
     <g id="text_11">
      <!-- 10.0 -->
      <g transform="translate(7.2 80.735264)scale(0.1 -0.1)">
       <use xlink:href="#DejaVuSans-31"/>
       <use x="63.623047" xlink:href="#DejaVuSans-30"/>
       <use x="127.246094" xlink:href="#DejaVuSans-2e"/>
       <use x="159.033203" xlink:href="#DejaVuSans-30"/>
      </g>
     </g>
    </g>
    <g id="ytick_6">
     <g id="line2d_23">
      <path clip-path="url(#p19cce0cd57)" d="M 36.465625 51.673707 
L 290.101989 51.673707 
" style="fill:none;opacity:0.2;stroke:#808080;stroke-linecap:square;"/>
     </g>
     <g id="line2d_24">
      <g>
       <use style="stroke:#000000;stroke-width:0.8;" x="36.465625" xlink:href="#m2a836a246b" y="51.673707"/>
      </g>
     </g>
     <g id="text_12">
      <!-- 12.5 -->
      <g transform="translate(7.2 55.472926)scale(0.1 -0.1)">
       <use xlink:href="#DejaVuSans-31"/>
       <use x="63.623047" xlink:href="#DejaVuSans-32"/>
       <use x="127.246094" xlink:href="#DejaVuSans-2e"/>
       <use x="159.033203" xlink:href="#DejaVuSans-35"/>
      </g>
     </g>
    </g>
    <g id="ytick_7">
     <g id="line2d_25">
      <path clip-path="url(#p19cce0cd57)" d="M 36.465625 26.411369 
L 290.101989 26.411369 
" style="fill:none;opacity:0.2;stroke:#808080;stroke-linecap:square;"/>
     </g>
     <g id="line2d_26">
      <g>
       <use style="stroke:#000000;stroke-width:0.8;" x="36.465625" xlink:href="#m2a836a246b" y="26.411369"/>
      </g>
     </g>
     <g id="text_13">
      <!-- 15.0 -->
      <g transform="translate(7.2 30.210588)scale(0.1 -0.1)">
       <use xlink:href="#DejaVuSans-31"/>
       <use x="63.623047" xlink:href="#DejaVuSans-35"/>
       <use x="127.246094" xlink:href="#DejaVuSans-2e"/>
       <use x="159.033203" xlink:href="#DejaVuSans-30"/>
      </g>
     </g>
    </g>
   </g>
   <g id="LineCollection_1">
    <path clip-path="url(#p19cce0cd57)" d="M 222.654571 177.985398 
L 222.654571 167.880462 
" style="fill:none;stroke:#000000;stroke-width:0.5;"/>
    <path clip-path="url(#p19cce0cd57)" d="M 241.824731 177.985398 
L 241.824731 167.880462 
" style="fill:none;stroke:#000000;stroke-width:0.5;"/>
    <path clip-path="url(#p19cce0cd57)" d="M 214.735451 177.985398 
L 214.735451 167.880462 
" style="fill:none;stroke:#000000;stroke-width:0.5;"/>
    <path clip-path="url(#p19cce0cd57)" d="M 212.680926 177.985398 
L 212.680926 167.880462 
" style="fill:none;stroke:#000000;stroke-width:0.5;"/>
    <path clip-path="url(#p19cce0cd57)" d="M 228.439 177.985398 
L 228.439 167.880462 
" style="fill:none;stroke:#000000;stroke-width:0.5;"/>
    <path clip-path="url(#p19cce0cd57)" d="M 229.433658 177.985398 
L 229.433658 167.880462 
" style="fill:none;stroke:#000000;stroke-width:0.5;"/>
    <path clip-path="url(#p19cce0cd57)" d="M 233.065073 177.985398 
L 233.065073 167.880462 
" style="fill:none;stroke:#000000;stroke-width:0.5;"/>
    <path clip-path="url(#p19cce0cd57)" d="M 239.679415 177.985398 
L 239.679415 167.880462 
" style="fill:none;stroke:#000000;stroke-width:0.5;"/>
    <path clip-path="url(#p19cce0cd57)" d="M 209.810699 177.985398 
L 209.810699 167.880462 
" style="fill:none;stroke:#000000;stroke-width:0.5;"/>
    <path clip-path="url(#p19cce0cd57)" d="M 218.63011 177.985398 
L 218.63011 167.880462 
" style="fill:none;stroke:#000000;stroke-width:0.5;"/>
   </g>
   <g id="LineCollection_2">
    <path clip-path="url(#p19cce0cd57)" d="M 220.928435 177.985398 
L 220.928435 167.880462 
" style="fill:none;stroke:#ff0000;stroke-width:2;"/>
   </g>
   <g id="line2d_27">
    <path clip-path="url(#p19cce0cd57)" d="M 47.994551 177.985398 
L 50.533453 177.829442 
L 54.688021 177.33597 
L 60.227445 176.440049 
L 67.613343 175.004661 
L 78.923 172.553429 
L 100.388267 167.887275 
L 110.774686 165.881343 
L 120.007059 164.325643 
L 128.547004 163.112894 
L 136.62533 162.188005 
L 144.472847 161.51119 
L 152.089555 161.072752 
L 159.706262 160.855499 
L 167.32297 160.862302 
L 174.939678 161.093072 
L 182.556385 161.544757 
L 190.403902 162.23474 
L 198.482228 163.172449 
L 206.791364 164.36157 
L 215.792928 165.881343 
L 225.717728 167.793261 
L 237.719813 170.346274 
L 263.570457 175.926351 
L 270.263927 177.096874 
L 275.110923 177.738563 
L 278.342254 177.981058 
L 278.573063 177.985398 
L 278.573063 177.985398 
" style="fill:none;stroke:#1f77b4;stroke-linecap:square;stroke-width:1.5;"/>
   </g>
   <g id="patch_4">
    <path d="M 36.465625 185.398125 
L 36.465625 22.318125 
" style="fill:none;stroke:#000000;stroke-linecap:square;stroke-linejoin:miter;stroke-width:0.8;"/>
   </g>
   <g id="patch_5">
    <path d="M 290.101989 185.398125 
L 290.101989 22.318125 
" style="fill:none;stroke:#000000;stroke-linecap:square;stroke-linejoin:miter;stroke-width:0.8;"/>
   </g>
   <g id="patch_6">
    <path d="M 36.465625 185.398125 
L 290.101989 185.398125 
" style="fill:none;stroke:#000000;stroke-linecap:square;stroke-linejoin:miter;stroke-width:0.8;"/>
   </g>
   <g id="patch_7">
    <path d="M 36.465625 22.318125 
L 290.101989 22.318125 
" style="fill:none;stroke:#000000;stroke-linecap:square;stroke-linejoin:miter;stroke-width:0.8;"/>
   </g>
   <g id="text_14">
    <!-- prior distribution -->
    <defs>
     <path d="M 18.109375 8.203125 
L 18.109375 -20.796875 
L 9.078125 -20.796875 
L 9.078125 54.6875 
L 18.109375 54.6875 
L 18.109375 46.390625 
Q 20.953125 51.265625 25.265625 53.625 
Q 29.59375 56 35.59375 56 
Q 45.5625 56 51.78125 48.09375 
Q 58.015625 40.1875 58.015625 27.296875 
Q 58.015625 14.40625 51.78125 6.484375 
Q 45.5625 -1.421875 35.59375 -1.421875 
Q 29.59375 -1.421875 25.265625 0.953125 
Q 20.953125 3.328125 18.109375 8.203125 
z
M 48.6875 27.296875 
Q 48.6875 37.203125 44.609375 42.84375 
Q 40.53125 48.484375 33.40625 48.484375 
Q 26.265625 48.484375 22.1875 42.84375 
Q 18.109375 37.203125 18.109375 27.296875 
Q 18.109375 17.390625 22.1875 11.75 
Q 26.265625 6.109375 33.40625 6.109375 
Q 40.53125 6.109375 44.609375 11.75 
Q 48.6875 17.390625 48.6875 27.296875 
z
" id="DejaVuSans-70"/>
     <path d="M 41.109375 46.296875 
Q 39.59375 47.171875 37.8125 47.578125 
Q 36.03125 48 33.890625 48 
Q 26.265625 48 22.1875 43.046875 
Q 18.109375 38.09375 18.109375 28.8125 
L 18.109375 0 
L 9.078125 0 
L 9.078125 54.6875 
L 18.109375 54.6875 
L 18.109375 46.1875 
Q 20.953125 51.171875 25.484375 53.578125 
Q 30.03125 56 36.53125 56 
Q 37.453125 56 38.578125 55.875 
Q 39.703125 55.765625 41.0625 55.515625 
z
" id="DejaVuSans-72"/>
     <path d="M 9.421875 54.6875 
L 18.40625 54.6875 
L 18.40625 0 
L 9.421875 0 
z
M 9.421875 75.984375 
L 18.40625 75.984375 
L 18.40625 64.59375 
L 9.421875 64.59375 
z
" id="DejaVuSans-69"/>
     <path d="M 30.609375 48.390625 
Q 23.390625 48.390625 19.1875 42.75 
Q 14.984375 37.109375 14.984375 27.296875 
Q 14.984375 17.484375 19.15625 11.84375 
Q 23.34375 6.203125 30.609375 6.203125 
Q 37.796875 6.203125 41.984375 11.859375 
Q 46.1875 17.53125 46.1875 27.296875 
Q 46.1875 37.015625 41.984375 42.703125 
Q 37.796875 48.390625 30.609375 48.390625 
z
M 30.609375 56 
Q 42.328125 56 49.015625 48.375 
Q 55.71875 40.765625 55.71875 27.296875 
Q 55.71875 13.875 49.015625 6.21875 
Q 42.328125 -1.421875 30.609375 -1.421875 
Q 18.84375 -1.421875 12.171875 6.21875 
Q 5.515625 13.875 5.515625 27.296875 
Q 5.515625 40.765625 12.171875 48.375 
Q 18.84375 56 30.609375 56 
z
" id="DejaVuSans-6f"/>
     <path id="DejaVuSans-20"/>
     <path d="M 45.40625 46.390625 
L 45.40625 75.984375 
L 54.390625 75.984375 
L 54.390625 0 
L 45.40625 0 
L 45.40625 8.203125 
Q 42.578125 3.328125 38.25 0.953125 
Q 33.9375 -1.421875 27.875 -1.421875 
Q 17.96875 -1.421875 11.734375 6.484375 
Q 5.515625 14.40625 5.515625 27.296875 
Q 5.515625 40.1875 11.734375 48.09375 
Q 17.96875 56 27.875 56 
Q 33.9375 56 38.25 53.625 
Q 42.578125 51.265625 45.40625 46.390625 
z
M 14.796875 27.296875 
Q 14.796875 17.390625 18.875 11.75 
Q 22.953125 6.109375 30.078125 6.109375 
Q 37.203125 6.109375 41.296875 11.75 
Q 45.40625 17.390625 45.40625 27.296875 
Q 45.40625 37.203125 41.296875 42.84375 
Q 37.203125 48.484375 30.078125 48.484375 
Q 22.953125 48.484375 18.875 42.84375 
Q 14.796875 37.203125 14.796875 27.296875 
z
" id="DejaVuSans-64"/>
     <path d="M 44.28125 53.078125 
L 44.28125 44.578125 
Q 40.484375 46.53125 36.375 47.5 
Q 32.28125 48.484375 27.875 48.484375 
Q 21.1875 48.484375 17.84375 46.4375 
Q 14.5 44.390625 14.5 40.28125 
Q 14.5 37.15625 16.890625 35.375 
Q 19.28125 33.59375 26.515625 31.984375 
L 29.59375 31.296875 
Q 39.15625 29.25 43.1875 25.515625 
Q 47.21875 21.78125 47.21875 15.09375 
Q 47.21875 7.46875 41.1875 3.015625 
Q 35.15625 -1.421875 24.609375 -1.421875 
Q 20.21875 -1.421875 15.453125 -0.5625 
Q 10.6875 0.296875 5.421875 2 
L 5.421875 11.28125 
Q 10.40625 8.6875 15.234375 7.390625 
Q 20.0625 6.109375 24.8125 6.109375 
Q 31.15625 6.109375 34.5625 8.28125 
Q 37.984375 10.453125 37.984375 14.40625 
Q 37.984375 18.0625 35.515625 20.015625 
Q 33.0625 21.96875 24.703125 23.78125 
L 21.578125 24.515625 
Q 13.234375 26.265625 9.515625 29.90625 
Q 5.8125 33.546875 5.8125 39.890625 
Q 5.8125 47.609375 11.28125 51.796875 
Q 16.75 56 26.8125 56 
Q 31.78125 56 36.171875 55.265625 
Q 40.578125 54.546875 44.28125 53.078125 
z
" id="DejaVuSans-73"/>
     <path d="M 18.3125 70.21875 
L 18.3125 54.6875 
L 36.8125 54.6875 
L 36.8125 47.703125 
L 18.3125 47.703125 
L 18.3125 18.015625 
Q 18.3125 11.328125 20.140625 9.421875 
Q 21.96875 7.515625 27.59375 7.515625 
L 36.8125 7.515625 
L 36.8125 0 
L 27.59375 0 
Q 17.1875 0 13.234375 3.875 
Q 9.28125 7.765625 9.28125 18.015625 
L 9.28125 47.703125 
L 2.6875 47.703125 
L 2.6875 54.6875 
L 9.28125 54.6875 
L 9.28125 70.21875 
z
" id="DejaVuSans-74"/>
     <path d="M 48.6875 27.296875 
Q 48.6875 37.203125 44.609375 42.84375 
Q 40.53125 48.484375 33.40625 48.484375 
Q 26.265625 48.484375 22.1875 42.84375 
Q 18.109375 37.203125 18.109375 27.296875 
Q 18.109375 17.390625 22.1875 11.75 
Q 26.265625 6.109375 33.40625 6.109375 
Q 40.53125 6.109375 44.609375 11.75 
Q 48.6875 17.390625 48.6875 27.296875 
z
M 18.109375 46.390625 
Q 20.953125 51.265625 25.265625 53.625 
Q 29.59375 56 35.59375 56 
Q 45.5625 56 51.78125 48.09375 
Q 58.015625 40.1875 58.015625 27.296875 
Q 58.015625 14.40625 51.78125 6.484375 
Q 45.5625 -1.421875 35.59375 -1.421875 
Q 29.59375 -1.421875 25.265625 0.953125 
Q 20.953125 3.328125 18.109375 8.203125 
L 18.109375 0 
L 9.078125 0 
L 9.078125 75.984375 
L 18.109375 75.984375 
z
" id="DejaVuSans-62"/>
     <path d="M 8.5 21.578125 
L 8.5 54.6875 
L 17.484375 54.6875 
L 17.484375 21.921875 
Q 17.484375 14.15625 20.5 10.265625 
Q 23.53125 6.390625 29.59375 6.390625 
Q 36.859375 6.390625 41.078125 11.03125 
Q 45.3125 15.671875 45.3125 23.6875 
L 45.3125 54.6875 
L 54.296875 54.6875 
L 54.296875 0 
L 45.3125 0 
L 45.3125 8.40625 
Q 42.046875 3.421875 37.71875 1 
Q 33.40625 -1.421875 27.6875 -1.421875 
Q 18.265625 -1.421875 13.375 4.4375 
Q 8.5 10.296875 8.5 21.578125 
z
M 31.109375 56 
z
" id="DejaVuSans-75"/>
     <path d="M 54.890625 33.015625 
L 54.890625 0 
L 45.90625 0 
L 45.90625 32.71875 
Q 45.90625 40.484375 42.875 44.328125 
Q 39.84375 48.1875 33.796875 48.1875 
Q 26.515625 48.1875 22.3125 43.546875 
Q 18.109375 38.921875 18.109375 30.90625 
L 18.109375 0 
L 9.078125 0 
L 9.078125 54.6875 
L 18.109375 54.6875 
L 18.109375 46.1875 
Q 21.34375 51.125 25.703125 53.5625 
Q 30.078125 56 35.796875 56 
Q 45.21875 56 50.046875 50.171875 
Q 54.890625 44.34375 54.890625 33.015625 
z
" id="DejaVuSans-6e"/>
    </defs>
    <g transform="translate(113.105057 16.318125)scale(0.12 -0.12)">
     <use xlink:href="#DejaVuSans-70"/>
     <use x="63.476562" xlink:href="#DejaVuSans-72"/>
     <use x="104.589844" xlink:href="#DejaVuSans-69"/>
     <use x="132.373047" xlink:href="#DejaVuSans-6f"/>
     <use x="193.554688" xlink:href="#DejaVuSans-72"/>
     <use x="234.667969" xlink:href="#DejaVuSans-20"/>
     <use x="266.455078" xlink:href="#DejaVuSans-64"/>
     <use x="329.931641" xlink:href="#DejaVuSans-69"/>
     <use x="357.714844" xlink:href="#DejaVuSans-73"/>
     <use x="409.814453" xlink:href="#DejaVuSans-74"/>
     <use x="449.023438" xlink:href="#DejaVuSans-72"/>
     <use x="490.136719" xlink:href="#DejaVuSans-69"/>
     <use x="517.919922" xlink:href="#DejaVuSans-62"/>
     <use x="581.396484" xlink:href="#DejaVuSans-75"/>
     <use x="644.775391" xlink:href="#DejaVuSans-74"/>
     <use x="683.984375" xlink:href="#DejaVuSans-69"/>
     <use x="711.767578" xlink:href="#DejaVuSans-6f"/>
     <use x="772.949219" xlink:href="#DejaVuSans-6e"/>
    </g>
   </g>
  </g>
  <g id="axes_2">
   <g id="patch_8">
    <path d="M 340.829261 185.398125 
L 594.465625 185.398125 
L 594.465625 22.318125 
L 340.829261 22.318125 
z
" style="fill:#ffffff;"/>
   </g>
   <g id="patch_9">
    <path clip-path="url(#p95fab46ba6)" d="M 352.358187 177.985398 
L 352.588996 177.985398 
L 352.819806 177.985398 
L 353.050615 177.985398 
L 353.281424 177.985398 
L 353.512234 177.985398 
L 353.743043 177.985398 
L 353.973852 177.985398 
L 354.204662 177.985398 
L 354.435471 177.985398 
L 354.66628 177.985398 
L 354.89709 177.985398 
L 355.127899 177.985398 
L 355.358708 177.985398 
L 355.589517 177.985398 
L 355.820327 177.985398 
L 356.051136 177.985398 
L 356.281945 177.985398 
L 356.512755 177.985398 
L 356.743564 177.985398 
L 356.974373 177.985398 
L 357.205183 177.985398 
L 357.435992 177.985398 
L 357.666801 177.985398 
L 357.897611 177.985398 
L 358.12842 177.985398 
L 358.359229 177.985398 
L 358.590039 177.985398 
L 358.820848 177.985398 
L 359.051657 177.985398 
L 359.282467 177.985398 
L 359.513276 177.985398 
L 359.744085 177.985398 
L 359.974895 177.985398 
L 360.205704 177.985398 
L 360.436513 177.985398 
L 360.667323 177.985398 
L 360.898132 177.985398 
L 361.128941 177.985398 
L 361.359751 177.985398 
L 361.59056 177.985398 
L 361.821369 177.985398 
L 362.052178 177.985398 
L 362.282988 177.985398 
L 362.513797 177.985398 
L 362.744606 177.985398 
L 362.975416 177.985398 
L 363.206225 177.985398 
L 363.437034 177.985398 
L 363.667844 177.985398 
L 363.898653 177.985398 
L 364.129462 177.985398 
L 364.360272 177.985398 
L 364.591081 177.985398 
L 364.82189 177.985398 
L 365.0527 177.985398 
L 365.283509 177.985398 
L 365.514318 177.985398 
L 365.745128 177.985398 
L 365.975937 177.985398 
L 366.206746 177.985398 
L 366.437556 177.985398 
L 366.668365 177.985398 
L 366.899174 177.985398 
L 367.129984 177.985398 
L 367.360793 177.985398 
L 367.591602 177.985398 
L 367.822412 177.985398 
L 368.053221 177.985398 
L 368.28403 177.985398 
L 368.51484 177.985398 
L 368.745649 177.985398 
L 368.976458 177.985398 
L 369.207267 177.985398 
L 369.438077 177.985398 
L 369.668886 177.985398 
L 369.899695 177.985398 
L 370.130505 177.985398 
L 370.361314 177.985398 
L 370.592123 177.985398 
L 370.822933 177.985398 
L 371.053742 177.985398 
L 371.284551 177.985398 
L 371.515361 177.985398 
L 371.74617 177.985398 
L 371.976979 177.985398 
L 372.207789 177.985398 
L 372.438598 177.985398 
L 372.669407 177.985398 
L 372.900217 177.985398 
L 373.131026 177.985398 
L 373.361835 177.985398 
L 373.592645 177.985398 
L 373.823454 177.985398 
L 374.054263 177.985398 
L 374.285073 177.985398 
L 374.515882 177.985398 
L 374.746691 177.985398 
L 374.977501 177.985398 
L 375.20831 177.985398 
L 375.439119 177.985398 
L 375.669928 177.985398 
L 375.900738 177.985398 
L 376.131547 177.985398 
L 376.362356 177.985398 
L 376.593166 177.985398 
L 376.823975 177.985398 
L 377.054784 177.985398 
L 377.285594 177.985398 
L 377.516403 177.985398 
L 377.747212 177.985398 
L 377.978022 177.985398 
L 378.208831 177.985398 
L 378.43964 177.985398 
L 378.67045 177.985398 
L 378.901259 177.985398 
L 379.132068 177.985398 
L 379.362878 177.985398 
L 379.593687 177.985398 
L 379.824496 177.985398 
L 380.055306 177.985398 
L 380.286115 177.985398 
L 380.516924 177.985398 
L 380.747734 177.985398 
L 380.978543 177.985398 
L 381.209352 177.985398 
L 381.440162 177.985398 
L 381.670971 177.985398 
L 381.90178 177.985398 
L 382.132589 177.985398 
L 382.363399 177.985398 
L 382.594208 177.985398 
L 382.825017 177.985398 
L 383.055827 177.985398 
L 383.286636 177.985398 
L 383.517445 177.985398 
L 383.748255 177.985398 
L 383.979064 177.985398 
L 384.209873 177.985398 
L 384.440683 177.985398 
L 384.671492 177.985398 
L 384.902301 177.985398 
L 385.133111 177.985398 
L 385.36392 177.985398 
L 385.594729 177.985398 
L 385.825539 177.985398 
L 386.056348 177.985398 
L 386.287157 177.985398 
L 386.517967 177.985398 
L 386.748776 177.985398 
L 386.979585 177.985398 
L 387.210395 177.985398 
L 387.441204 177.985398 
L 387.672013 177.985398 
L 387.902823 177.985398 
L 388.133632 177.985398 
L 388.364441 177.985398 
L 388.59525 177.985398 
L 388.82606 177.985398 
L 389.056869 177.985398 
L 389.287678 177.985398 
L 389.518488 177.985398 
L 389.749297 177.985398 
L 389.980106 177.985398 
L 390.210916 177.985398 
L 390.441725 177.985398 
L 390.672534 177.985398 
L 390.903344 177.985398 
L 391.134153 177.985398 
L 391.364962 177.985398 
L 391.595772 177.985398 
L 391.826581 177.985398 
L 392.05739 177.985398 
L 392.2882 177.985398 
L 392.519009 177.985398 
L 392.749818 177.985398 
L 392.980628 177.985398 
L 393.211437 177.985398 
L 393.442246 177.985398 
L 393.673056 177.985398 
L 393.903865 177.985398 
L 394.134674 177.985398 
L 394.365484 177.985398 
L 394.596293 177.985398 
L 394.827102 177.985398 
L 395.057912 177.985398 
L 395.288721 177.985398 
L 395.51953 177.985398 
L 395.750339 177.985398 
L 395.981149 177.985398 
L 396.211958 177.985398 
L 396.442767 177.985398 
L 396.673577 177.985398 
L 396.904386 177.985398 
L 397.135195 177.985398 
L 397.366005 177.985398 
L 397.596814 177.985398 
L 397.827623 177.985398 
L 398.058433 177.985398 
L 398.289242 177.985398 
L 398.520051 177.985398 
L 398.750861 177.985398 
L 398.98167 177.985398 
L 399.212479 177.985398 
L 399.443289 177.985398 
L 399.674098 177.985398 
L 399.904907 177.985398 
L 400.135717 177.985398 
L 400.366526 177.985398 
L 400.597335 177.985398 
L 400.828145 177.985398 
L 401.058954 177.985398 
L 401.289763 177.985398 
L 401.520573 177.985398 
L 401.751382 177.985398 
L 401.982191 177.985398 
L 402.213 177.985398 
L 402.44381 177.985398 
L 402.674619 177.985398 
L 402.905428 177.985398 
L 403.136238 177.985398 
L 403.367047 177.985398 
L 403.597856 177.985398 
L 403.828666 177.985398 
L 404.059475 177.985398 
L 404.290284 177.985398 
L 404.521094 177.985398 
L 404.751903 177.985398 
L 404.982712 177.985398 
L 405.213522 177.985398 
L 405.444331 177.985398 
L 405.67514 177.985398 
L 405.90595 177.985398 
L 406.136759 177.985398 
L 406.367568 177.985398 
L 406.598378 177.985398 
L 406.829187 177.985398 
L 407.059996 177.985398 
L 407.290806 177.985398 
L 407.521615 177.985398 
L 407.752424 177.985398 
L 407.983234 177.985398 
L 408.214043 177.985398 
L 408.444852 177.985398 
L 408.675661 177.985398 
L 408.906471 177.985398 
L 409.13728 177.985398 
L 409.368089 177.985398 
L 409.598899 177.985398 
L 409.829708 177.985398 
L 410.060517 177.985398 
L 410.291327 177.985398 
L 410.522136 177.985398 
L 410.752945 177.985398 
L 410.983755 177.985398 
L 411.214564 177.985398 
L 411.445373 177.985398 
L 411.676183 177.985398 
L 411.906992 177.985398 
L 412.137801 177.985398 
L 412.368611 177.985398 
L 412.59942 177.985398 
L 412.830229 177.985398 
L 413.061039 177.985398 
L 413.291848 177.985398 
L 413.522657 177.985398 
L 413.753467 177.985398 
L 413.984276 177.985398 
L 414.215085 177.985398 
L 414.445895 177.985398 
L 414.676704 177.985398 
L 414.907513 177.985398 
L 415.138322 177.985398 
L 415.369132 177.985398 
L 415.599941 177.985398 
L 415.83075 177.985398 
L 416.06156 177.985398 
L 416.292369 177.985398 
L 416.523178 177.985398 
L 416.753988 177.985398 
L 416.984797 177.985398 
L 417.215606 177.985398 
L 417.446416 177.985398 
L 417.677225 177.985398 
L 417.908034 177.985398 
L 418.138844 177.985398 
L 418.369653 177.985398 
L 418.600462 177.985398 
L 418.831272 177.985398 
L 419.062081 177.985398 
L 419.29289 177.985398 
L 419.5237 177.985398 
L 419.754509 177.985398 
L 419.985318 177.985398 
L 420.216128 177.985398 
L 420.446937 177.985398 
L 420.677746 177.985398 
L 420.908556 177.985398 
L 421.139365 177.985398 
L 421.370174 177.985398 
L 421.600983 177.985398 
L 421.831793 177.985398 
L 422.062602 177.985398 
L 422.293411 177.985398 
L 422.524221 177.985398 
L 422.75503 177.985398 
L 422.985839 177.985398 
L 423.216649 177.985398 
L 423.447458 177.985398 
L 423.678267 177.985398 
L 423.909077 177.985398 
L 424.139886 177.985398 
L 424.370695 177.985398 
L 424.601505 177.985398 
L 424.832314 177.985398 
L 425.063123 177.985398 
L 425.293933 177.985398 
L 425.524742 177.985398 
L 425.755551 177.985398 
L 425.986361 177.985398 
L 426.21717 177.985398 
L 426.447979 177.985398 
L 426.678789 177.985398 
L 426.909598 177.985398 
L 427.140407 177.985398 
L 427.371217 177.985398 
L 427.602026 177.985398 
L 427.832835 177.985398 
L 428.063645 177.985398 
L 428.294454 177.985398 
L 428.525263 177.985398 
L 428.756072 177.985398 
L 428.986882 177.985398 
L 429.217691 177.985398 
L 429.4485 177.985398 
L 429.67931 177.985398 
L 429.910119 177.985398 
L 430.140928 177.985398 
L 430.371738 177.985398 
L 430.602547 177.985398 
L 430.833356 177.985398 
L 431.064166 177.985398 
L 431.294975 177.985398 
L 431.525784 177.985398 
L 431.756594 177.985398 
L 431.987403 177.985398 
L 432.218212 177.985398 
L 432.449022 177.985398 
L 432.679831 177.985398 
L 432.91064 177.985398 
L 433.14145 177.985398 
L 433.372259 177.985398 
L 433.603068 177.985398 
L 433.833878 177.985398 
L 434.064687 177.985398 
L 434.295496 177.985398 
L 434.526306 177.985398 
L 434.757115 177.985398 
L 434.987924 177.985398 
L 435.218733 177.985398 
L 435.449543 177.985398 
L 435.680352 177.985398 
L 435.911161 177.985398 
L 436.141971 177.985398 
L 436.37278 177.985398 
L 436.603589 177.985398 
L 436.834399 177.985398 
L 437.065208 177.985398 
L 437.296017 177.985398 
L 437.526827 177.985398 
L 437.757636 177.985398 
L 437.988445 177.985398 
L 438.219255 177.985398 
L 438.450064 177.985398 
L 438.680873 177.985398 
L 438.911683 177.985398 
L 439.142492 177.985398 
L 439.373301 177.985398 
L 439.604111 177.985398 
L 439.83492 177.985398 
L 440.065729 177.985398 
L 440.296539 177.985398 
L 440.527348 177.985398 
L 440.758157 177.985398 
L 440.988967 177.985398 
L 441.219776 177.985398 
L 441.450585 177.985398 
L 441.681394 177.985398 
L 441.912204 177.985398 
L 442.143013 177.985398 
L 442.373822 177.985398 
L 442.604632 177.985398 
L 442.835441 177.985398 
L 443.06625 177.985398 
L 443.29706 177.985398 
L 443.527869 177.985398 
L 443.758678 177.985398 
L 443.989488 177.985398 
L 444.220297 177.985398 
L 444.451106 177.985398 
L 444.681916 177.985398 
L 444.912725 177.985398 
L 445.143534 177.985398 
L 445.374344 177.985398 
L 445.605153 177.985398 
L 445.835962 177.985398 
L 446.066772 177.985398 
L 446.297581 177.985398 
L 446.52839 177.985398 
L 446.7592 177.985398 
L 446.990009 177.985398 
L 447.220818 177.985398 
L 447.451628 177.985398 
L 447.682437 177.985398 
L 447.913246 177.985398 
L 448.144055 177.985398 
L 448.374865 177.985398 
L 448.605674 177.985398 
L 448.836483 177.985398 
L 449.067293 177.985398 
L 449.298102 177.985398 
L 449.528911 177.985398 
L 449.759721 177.985398 
L 449.99053 177.985398 
L 450.221339 177.985398 
L 450.452149 177.985398 
L 450.682958 177.985398 
L 450.913767 177.985398 
L 451.144577 177.985398 
L 451.375386 177.985398 
L 451.606195 177.985398 
L 451.837005 177.985398 
L 452.067814 177.985398 
L 452.298623 177.985398 
L 452.529433 177.985398 
L 452.760242 177.985398 
L 452.991051 177.985398 
L 453.221861 177.985398 
L 453.45267 177.985398 
L 453.683479 177.985398 
L 453.914289 177.985398 
L 454.145098 177.985398 
L 454.375907 177.985398 
L 454.606717 177.985398 
L 454.837526 177.985398 
L 455.068335 177.985398 
L 455.299144 177.985398 
L 455.529954 177.985398 
L 455.760763 177.985398 
L 455.991572 177.985398 
L 456.222382 177.985398 
L 456.453191 177.985398 
L 456.684 177.985398 
L 456.91481 177.985398 
L 457.145619 177.985398 
L 457.376428 177.985398 
L 457.607238 177.985398 
L 457.838047 177.985398 
L 458.068856 177.985398 
L 458.299666 177.985398 
L 458.530475 177.985398 
L 458.761284 177.985398 
L 458.992094 177.985398 
L 459.222903 177.985398 
L 459.453712 177.985398 
L 459.684522 177.985398 
L 459.915331 177.985398 
L 460.14614 177.985398 
L 460.37695 177.985398 
L 460.607759 177.985398 
L 460.838568 177.985398 
L 461.069378 177.985398 
L 461.300187 177.985398 
L 461.530996 177.985398 
L 461.761805 177.985398 
L 461.992615 177.985398 
L 462.223424 177.985398 
L 462.454233 177.985398 
L 462.685043 177.985398 
L 462.915852 177.985398 
L 463.146661 177.985398 
L 463.377471 177.985398 
L 463.60828 177.985398 
L 463.839089 177.985398 
L 464.069899 177.985398 
L 464.300708 177.985398 
L 464.531517 177.985398 
L 464.762327 177.985398 
L 464.993136 177.985398 
L 465.223945 177.985398 
L 465.454755 177.985398 
L 465.685564 177.985398 
L 465.916373 177.985398 
L 466.147183 177.985398 
L 466.377992 177.985398 
L 466.608801 177.985398 
L 466.839611 177.985398 
L 467.07042 177.985398 
L 467.301229 177.985398 
L 467.532039 177.985398 
L 467.762848 177.985398 
L 467.993657 177.985398 
L 468.224466 177.985398 
L 468.455276 177.985398 
L 468.686085 177.985398 
L 468.916894 177.985398 
L 469.147704 177.985398 
L 469.378513 177.985398 
L 469.609322 177.985398 
L 469.840132 177.985398 
L 470.070941 177.985398 
L 470.30175 177.985398 
L 470.53256 177.985398 
L 470.763369 177.985398 
L 470.994178 177.985398 
L 471.224988 177.985398 
L 471.455797 177.985398 
L 471.686606 177.985398 
L 471.917416 177.985398 
L 472.148225 177.985398 
L 472.379034 177.985398 
L 472.609844 177.985398 
L 472.840653 177.985398 
L 473.071462 177.985398 
L 473.302272 177.985398 
L 473.533081 177.985398 
L 473.76389 177.985398 
L 473.9947 177.985398 
L 474.225509 177.985398 
L 474.456318 177.985398 
L 474.687127 177.985398 
L 474.917937 177.985398 
L 475.148746 177.985398 
L 475.379555 177.985398 
L 475.610365 177.985398 
L 475.841174 177.985398 
L 476.071983 177.985398 
L 476.302793 177.985398 
L 476.533602 177.985398 
L 476.764411 177.985398 
L 476.995221 177.985398 
L 477.22603 177.985398 
L 477.456839 177.985398 
L 477.687649 177.985398 
L 477.918458 177.985398 
L 478.149267 177.985398 
L 478.380077 177.985398 
L 478.610886 177.985398 
L 478.841695 177.985398 
L 479.072505 177.985398 
L 479.303314 177.985398 
L 479.534123 177.985398 
L 479.764933 177.985398 
L 479.995742 177.985398 
L 480.226551 177.985398 
L 480.457361 177.985398 
L 480.68817 177.985397 
L 480.918979 177.985397 
L 481.149789 177.985397 
L 481.380598 177.985397 
L 481.611407 177.985397 
L 481.842216 177.985397 
L 482.073026 177.985397 
L 482.303835 177.985397 
L 482.534644 177.985396 
L 482.765454 177.985396 
L 482.996263 177.985396 
L 483.227072 177.985396 
L 483.457882 177.985395 
L 483.688691 177.985395 
L 483.9195 177.985394 
L 484.15031 177.985393 
L 484.381119 177.985392 
L 484.611928 177.985391 
L 484.842738 177.98539 
L 485.073547 177.985388 
L 485.304356 177.985386 
L 485.535166 177.985384 
L 485.765975 177.985381 
L 485.996784 177.985378 
L 486.227594 177.985374 
L 486.458403 177.98537 
L 486.689212 177.985365 
L 486.920022 177.985358 
L 487.150831 177.985351 
L 487.38164 177.985342 
L 487.61245 177.985332 
L 487.843259 177.98532 
L 488.074068 177.985306 
L 488.304877 177.985289 
L 488.535687 177.985269 
L 488.766496 177.985246 
L 488.997305 177.985219 
L 489.228115 177.985188 
L 489.458924 177.98515 
L 489.689733 177.985107 
L 489.920543 177.985056 
L 490.151352 177.984997 
L 490.382161 177.984928 
L 490.612971 177.984847 
L 490.84378 177.984754 
L 491.074589 177.984645 
L 491.305399 177.984518 
L 491.536208 177.984372 
L 491.767017 177.984202 
L 491.997827 177.984004 
L 492.228636 177.983776 
L 492.459445 177.983513 
L 492.690255 177.983208 
L 492.921064 177.982857 
L 493.151873 177.982452 
L 493.382683 177.981986 
L 493.613492 177.981449 
L 493.844301 177.980833 
L 494.075111 177.980125 
L 494.30592 177.979313 
L 494.536729 177.978383 
L 494.767538 177.977317 
L 494.998348 177.976099 
L 495.229157 177.974707 
L 495.459966 177.973118 
L 495.690776 177.971306 
L 495.921585 177.969242 
L 496.152394 177.966893 
L 496.383204 177.964222 
L 496.614013 177.961188 
L 496.844822 177.957746 
L 497.075632 177.953844 
L 497.306441 177.949425 
L 497.53725 177.944426 
L 497.76806 177.938777 
L 497.998869 177.932398 
L 498.229678 177.925203 
L 498.460488 177.917097 
L 498.691297 177.907972 
L 498.922106 177.897711 
L 499.152916 177.886185 
L 499.383725 177.87325 
L 499.614534 177.858749 
L 499.845344 177.84251 
L 500.076153 177.824342 
L 500.306962 177.804037 
L 500.537772 177.781368 
L 500.768581 177.756085 
L 500.99939 177.727916 
L 501.230199 177.696565 
L 501.461009 177.661707 
L 501.691818 177.622993 
L 501.922627 177.580039 
L 502.153437 177.532433 
L 502.384246 177.479725 
L 502.615055 177.421431 
L 502.845865 177.357028 
L 503.076674 177.285952 
L 503.307483 177.207594 
L 503.538293 177.121303 
L 503.769102 177.026377 
L 503.999911 176.922065 
L 504.230721 176.807564 
L 504.46153 176.682017 
L 504.692339 176.544509 
L 504.923149 176.394065 
L 505.153958 176.229652 
L 505.384767 176.050172 
L 505.615577 175.854463 
L 505.846386 175.641297 
L 506.077195 175.409378 
L 506.308005 175.157343 
L 506.538814 174.883759 
L 506.769623 174.587124 
L 507.000433 174.265864 
L 507.231242 173.918338 
L 507.462051 173.542836 
L 507.69286 173.137581 
L 507.92367 172.70073 
L 508.154479 172.230375 
L 508.385288 171.724553 
L 508.616098 171.181238 
L 508.846907 170.598358 
L 509.077716 169.973789 
L 509.308526 169.305367 
L 509.539335 168.590896 
L 509.770144 167.82815 
L 510.000954 167.014883 
L 510.231763 166.148842 
L 510.462572 165.227772 
L 510.693382 164.24943 
L 510.924191 163.211595 
L 511.155 162.112082 
L 511.38581 160.948755 
L 511.616619 159.719541 
L 511.847428 158.422446 
L 512.078238 157.05557 
L 512.309047 155.617125 
L 512.539856 154.105451 
L 512.770666 152.519034 
L 513.001475 150.856526 
L 513.232284 149.116764 
L 513.463094 147.298784 
L 513.693903 145.401849 
L 513.924712 143.42546 
L 514.155522 141.369382 
L 514.386331 139.233659 
L 514.61714 137.018635 
L 514.847949 134.724968 
L 515.078759 132.353655 
L 515.309568 129.906041 
L 515.540377 127.38384 
L 515.771187 124.789145 
L 516.001996 122.124445 
L 516.232805 119.392631 
L 516.463615 116.597011 
L 516.694424 113.741313 
L 516.925233 110.829692 
L 517.156043 107.866731 
L 517.386852 104.857444 
L 517.617661 101.807271 
L 517.848471 98.722073 
L 518.07928 95.608126 
L 518.310089 92.472106 
L 518.540899 89.321077 
L 518.771708 86.162475 
L 519.002517 83.004082 
L 519.233327 79.854006 
L 519.464136 76.720656 
L 519.694945 73.612704 
L 519.925755 70.53906 
L 520.156564 67.50883 
L 520.387373 64.531281 
L 520.618183 61.615796 
L 520.848992 58.771831 
L 521.079801 56.008871 
L 521.31061 53.336379 
L 521.54142 50.763746 
L 521.772229 48.300245 
L 522.003038 45.954973 
L 522.233848 43.736801 
L 522.464657 41.654324 
L 522.695466 39.715803 
L 522.926276 37.92912 
L 523.157085 36.301722 
L 523.387894 34.840574 
L 523.618704 33.552112 
L 523.849513 32.4422 
L 524.080322 31.516082 
L 524.311132 30.778351 
L 524.541941 30.232908 
L 524.77275 29.882931 
L 525.00356 29.730852 
L 525.234369 29.778331 
L 525.465178 30.026236 
L 525.695988 30.474637 
L 525.926797 31.122791 
L 526.157606 31.969145 
L 526.388416 33.011336 
L 526.619225 34.246201 
L 526.850034 35.669791 
L 527.080844 37.27739 
L 527.311653 39.063541 
L 527.542462 41.022073 
L 527.773271 43.146139 
L 528.004081 45.428253 
L 528.23489 47.860336 
L 528.465699 50.43376 
L 528.696509 53.139403 
L 528.927318 55.967703 
L 529.158127 58.908712 
L 529.388937 61.952158 
L 529.619746 65.087507 
L 529.850555 68.304022 
L 530.081365 71.590829 
L 530.312174 74.936979 
L 530.542983 78.331508 
L 530.773793 81.763506 
L 531.004602 85.222169 
L 531.235411 88.696863 
L 531.466221 92.177178 
L 531.69703 95.652984 
L 531.927839 99.114476 
L 532.158649 102.552226 
L 532.389458 105.957223 
L 532.620267 109.320912 
L 532.851077 112.635229 
L 533.081886 115.89263 
L 533.312695 119.086117 
L 533.543505 122.209256 
L 533.774314 125.256195 
L 534.005123 128.221675 
L 534.235932 131.101033 
L 534.466742 133.890206 
L 534.697551 136.585728 
L 534.92836 139.184721 
L 535.15917 141.684885 
L 535.389979 144.084484 
L 535.620788 146.382326 
L 535.851598 148.577741 
L 536.082407 150.670558 
L 536.313216 152.661079 
L 536.544026 154.550047 
L 536.774835 156.338617 
L 537.005644 158.028327 
L 537.236454 159.621059 
L 537.467263 161.119011 
L 537.698072 162.524658 
L 537.928882 163.840723 
L 538.159691 165.07014 
L 538.3905 166.216021 
L 538.62131 167.281628 
L 538.852119 168.270335 
L 539.082928 169.185606 
L 539.313738 170.030959 
L 539.544547 170.809947 
L 539.775356 171.526127 
L 540.006166 172.183043 
L 540.236975 172.7842 
L 540.467784 173.333046 
L 540.698594 173.832959 
L 540.929403 174.287229 
L 541.160212 174.699043 
L 541.391021 175.071479 
L 541.621831 175.407496 
L 541.85264 175.709921 
L 542.083449 175.981453 
L 542.314259 176.22465 
L 542.545068 176.441933 
L 542.775877 176.635582 
L 543.006687 176.807736 
L 543.237496 176.960397 
L 543.468305 177.095427 
L 543.699115 177.214558 
L 543.929924 177.319392 
L 544.160733 177.411404 
L 544.391543 177.491951 
L 544.622352 177.562276 
L 544.853161 177.623512 
L 545.083971 177.676692 
L 545.31478 177.722748 
L 545.545589 177.762528 
L 545.776399 177.79679 
L 546.007208 177.826219 
L 546.238017 177.851425 
L 546.468827 177.872953 
L 546.699636 177.891286 
L 546.930445 177.906854 
L 547.161255 177.920035 
L 547.392064 177.931162 
L 547.622873 177.940527 
L 547.853682 177.948385 
L 548.084492 177.954959 
L 548.315301 177.960442 
L 548.54611 177.965 
L 548.77692 177.968777 
L 549.007729 177.971898 
L 549.238538 177.974468 
L 549.469348 177.976577 
L 549.700157 177.978302 
L 549.930966 177.979709 
L 550.161776 177.980853 
L 550.392585 177.981778 
L 550.623394 177.982526 
L 550.854204 177.983126 
L 551.085013 177.983608 
L 551.315822 177.983992 
L 551.546632 177.984298 
L 551.777441 177.984541 
L 552.00825 177.984732 
L 552.23906 177.984883 
L 552.469869 177.985001 
L 552.700678 177.985093 
L 552.931488 177.985165 
L 553.162297 177.98522 
L 553.393106 177.985263 
L 553.623916 177.985296 
L 553.854725 177.985321 
L 554.085534 177.985341 
L 554.316343 177.985355 
L 554.547153 177.985366 
L 554.777962 177.985374 
L 555.008771 177.98538 
L 555.239581 177.985385 
L 555.47039 177.985389 
L 555.701199 177.985391 
L 555.932009 177.985393 
L 556.162818 177.985394 
L 556.393627 177.985395 
L 556.624437 177.985396 
L 556.855246 177.985396 
L 557.086055 177.985397 
L 557.316865 177.985397 
L 557.547674 177.985397 
L 557.778483 177.985397 
L 558.009293 177.985398 
L 558.240102 177.985398 
L 558.470911 177.985398 
L 558.701721 177.985398 
L 558.93253 177.985398 
L 559.163339 177.985398 
L 559.394149 177.985398 
L 559.624958 177.985398 
L 559.855767 177.985398 
L 560.086577 177.985398 
L 560.317386 177.985398 
L 560.548195 177.985398 
L 560.779004 177.985398 
L 561.009814 177.985398 
L 561.240623 177.985398 
L 561.471432 177.985398 
L 561.702242 177.985398 
L 561.933051 177.985398 
L 562.16386 177.985398 
L 562.39467 177.985398 
L 562.625479 177.985398 
L 562.856288 177.985398 
L 563.087098 177.985398 
L 563.317907 177.985398 
L 563.548716 177.985398 
L 563.779526 177.985398 
L 564.010335 177.985398 
L 564.241144 177.985398 
L 564.471954 177.985398 
L 564.702763 177.985398 
L 564.933572 177.985398 
L 565.164382 177.985398 
L 565.395191 177.985398 
L 565.626 177.985398 
L 565.85681 177.985398 
L 566.087619 177.985398 
L 566.318428 177.985398 
L 566.549238 177.985398 
L 566.780047 177.985398 
L 567.010856 177.985398 
L 567.241666 177.985398 
L 567.472475 177.985398 
L 567.703284 177.985398 
L 567.934093 177.985398 
L 568.164903 177.985398 
L 568.395712 177.985398 
L 568.626521 177.985398 
L 568.857331 177.985398 
L 569.08814 177.985398 
L 569.318949 177.985398 
L 569.549759 177.985398 
L 569.780568 177.985398 
L 570.011377 177.985398 
L 570.242187 177.985398 
L 570.472996 177.985398 
L 570.703805 177.985398 
L 570.934615 177.985398 
L 571.165424 177.985398 
L 571.396233 177.985398 
L 571.627043 177.985398 
L 571.857852 177.985398 
L 572.088661 177.985398 
L 572.319471 177.985398 
L 572.55028 177.985398 
L 572.781089 177.985398 
L 573.011899 177.985398 
L 573.242708 177.985398 
L 573.473517 177.985398 
L 573.704327 177.985398 
L 573.935136 177.985398 
L 574.165945 177.985398 
L 574.396754 177.985398 
L 574.627564 177.985398 
L 574.858373 177.985398 
L 575.089182 177.985398 
L 575.319992 177.985398 
L 575.550801 177.985398 
L 575.78161 177.985398 
L 576.01242 177.985398 
L 576.243229 177.985398 
L 576.474038 177.985398 
L 576.704848 177.985398 
L 576.935657 177.985398 
L 577.166466 177.985398 
L 577.397276 177.985398 
L 577.628085 177.985398 
L 577.858894 177.985398 
L 578.089704 177.985398 
L 578.320513 177.985398 
L 578.551322 177.985398 
L 578.782132 177.985398 
L 579.012941 177.985398 
L 579.24375 177.985398 
L 579.47456 177.985398 
L 579.705369 177.985398 
L 579.936178 177.985398 
L 580.166988 177.985398 
L 580.397797 177.985398 
L 580.628606 177.985398 
L 580.859415 177.985398 
L 581.090225 177.985398 
L 581.321034 177.985398 
L 581.551843 177.985398 
L 581.782653 177.985398 
L 582.013462 177.985398 
L 582.244271 177.985398 
L 582.475081 177.985398 
L 582.70589 177.985398 
L 582.936699 177.985398 
z
" style="fill:#0000ff;opacity:0.1;"/>
   </g>
   <g id="matplotlib.axis_3">
    <g id="xtick_7">
     <g id="line2d_28">
      <path clip-path="url(#p95fab46ba6)" d="M 352.358187 185.398125 
L 352.358187 22.318125 
" style="fill:none;opacity:0.2;stroke:#808080;stroke-linecap:square;"/>
     </g>
     <g id="line2d_29">
      <g>
       <use style="stroke:#000000;stroke-width:0.8;" x="352.358187" xlink:href="#m23c9a166a1" y="185.398125"/>
      </g>
     </g>
     <g id="text_15">
      <!-- 0.0 -->
      <g transform="translate(344.406624 199.996563)scale(0.1 -0.1)">
       <use xlink:href="#DejaVuSans-30"/>
       <use x="63.623047" xlink:href="#DejaVuSans-2e"/>
       <use x="95.410156" xlink:href="#DejaVuSans-30"/>
      </g>
     </g>
    </g>
    <g id="xtick_8">
     <g id="line2d_30">
      <path clip-path="url(#p95fab46ba6)" d="M 398.473889 185.398125 
L 398.473889 22.318125 
" style="fill:none;opacity:0.2;stroke:#808080;stroke-linecap:square;"/>
     </g>
     <g id="line2d_31">
      <g>
       <use style="stroke:#000000;stroke-width:0.8;" x="398.473889" xlink:href="#m23c9a166a1" y="185.398125"/>
      </g>
     </g>
     <g id="text_16">
      <!-- 0.2 -->
      <g transform="translate(390.522327 199.996563)scale(0.1 -0.1)">
       <use xlink:href="#DejaVuSans-30"/>
       <use x="63.623047" xlink:href="#DejaVuSans-2e"/>
       <use x="95.410156" xlink:href="#DejaVuSans-32"/>
      </g>
     </g>
    </g>
    <g id="xtick_9">
     <g id="line2d_32">
      <path clip-path="url(#p95fab46ba6)" d="M 444.589592 185.398125 
L 444.589592 22.318125 
" style="fill:none;opacity:0.2;stroke:#808080;stroke-linecap:square;"/>
     </g>
     <g id="line2d_33">
      <g>
       <use style="stroke:#000000;stroke-width:0.8;" x="444.589592" xlink:href="#m23c9a166a1" y="185.398125"/>
      </g>
     </g>
     <g id="text_17">
      <!-- 0.4 -->
      <g transform="translate(436.638029 199.996563)scale(0.1 -0.1)">
       <use xlink:href="#DejaVuSans-30"/>
       <use x="63.623047" xlink:href="#DejaVuSans-2e"/>
       <use x="95.410156" xlink:href="#DejaVuSans-34"/>
      </g>
     </g>
    </g>
    <g id="xtick_10">
     <g id="line2d_34">
      <path clip-path="url(#p95fab46ba6)" d="M 490.705294 185.398125 
L 490.705294 22.318125 
" style="fill:none;opacity:0.2;stroke:#808080;stroke-linecap:square;"/>
     </g>
     <g id="line2d_35">
      <g>
       <use style="stroke:#000000;stroke-width:0.8;" x="490.705294" xlink:href="#m23c9a166a1" y="185.398125"/>
      </g>
     </g>
     <g id="text_18">
      <!-- 0.6 -->
      <g transform="translate(482.753732 199.996563)scale(0.1 -0.1)">
       <use xlink:href="#DejaVuSans-30"/>
       <use x="63.623047" xlink:href="#DejaVuSans-2e"/>
       <use x="95.410156" xlink:href="#DejaVuSans-36"/>
      </g>
     </g>
    </g>
    <g id="xtick_11">
     <g id="line2d_36">
      <path clip-path="url(#p95fab46ba6)" d="M 536.820997 185.398125 
L 536.820997 22.318125 
" style="fill:none;opacity:0.2;stroke:#808080;stroke-linecap:square;"/>
     </g>
     <g id="line2d_37">
      <g>
       <use style="stroke:#000000;stroke-width:0.8;" x="536.820997" xlink:href="#m23c9a166a1" y="185.398125"/>
      </g>
     </g>
     <g id="text_19">
      <!-- 0.8 -->
      <g transform="translate(528.869434 199.996563)scale(0.1 -0.1)">
       <use xlink:href="#DejaVuSans-30"/>
       <use x="63.623047" xlink:href="#DejaVuSans-2e"/>
       <use x="95.410156" xlink:href="#DejaVuSans-38"/>
      </g>
     </g>
    </g>
    <g id="xtick_12">
     <g id="line2d_38">
      <path clip-path="url(#p95fab46ba6)" d="M 582.936699 185.398125 
L 582.936699 22.318125 
" style="fill:none;opacity:0.2;stroke:#808080;stroke-linecap:square;"/>
     </g>
     <g id="line2d_39">
      <g>
       <use style="stroke:#000000;stroke-width:0.8;" x="582.936699" xlink:href="#m23c9a166a1" y="185.398125"/>
      </g>
     </g>
     <g id="text_20">
      <!-- 1.0 -->
      <g transform="translate(574.985137 199.996563)scale(0.1 -0.1)">
       <use xlink:href="#DejaVuSans-31"/>
       <use x="63.623047" xlink:href="#DejaVuSans-2e"/>
       <use x="95.410156" xlink:href="#DejaVuSans-30"/>
      </g>
     </g>
    </g>
   </g>
   <g id="matplotlib.axis_4">
    <g id="ytick_8">
     <g id="line2d_40">
      <path clip-path="url(#p95fab46ba6)" d="M 340.829261 177.985398 
L 594.465625 177.985398 
" style="fill:none;opacity:0.2;stroke:#808080;stroke-linecap:square;"/>
     </g>
     <g id="line2d_41">
      <g>
       <use style="stroke:#000000;stroke-width:0.8;" x="340.829261" xlink:href="#m2a836a246b" y="177.985398"/>
      </g>
     </g>
    </g>
    <g id="ytick_9">
     <g id="line2d_42">
      <path clip-path="url(#p95fab46ba6)" d="M 340.829261 152.72306 
L 594.465625 152.72306 
" style="fill:none;opacity:0.2;stroke:#808080;stroke-linecap:square;"/>
     </g>
     <g id="line2d_43">
      <g>
       <use style="stroke:#000000;stroke-width:0.8;" x="340.829261" xlink:href="#m2a836a246b" y="152.72306"/>
      </g>
     </g>
    </g>
    <g id="ytick_10">
     <g id="line2d_44">
      <path clip-path="url(#p95fab46ba6)" d="M 340.829261 127.460721 
L 594.465625 127.460721 
" style="fill:none;opacity:0.2;stroke:#808080;stroke-linecap:square;"/>
     </g>
     <g id="line2d_45">
      <g>
       <use style="stroke:#000000;stroke-width:0.8;" x="340.829261" xlink:href="#m2a836a246b" y="127.460721"/>
      </g>
     </g>
    </g>
    <g id="ytick_11">
     <g id="line2d_46">
      <path clip-path="url(#p95fab46ba6)" d="M 340.829261 102.198383 
L 594.465625 102.198383 
" style="fill:none;opacity:0.2;stroke:#808080;stroke-linecap:square;"/>
     </g>
     <g id="line2d_47">
      <g>
       <use style="stroke:#000000;stroke-width:0.8;" x="340.829261" xlink:href="#m2a836a246b" y="102.198383"/>
      </g>
     </g>
    </g>
    <g id="ytick_12">
     <g id="line2d_48">
      <path clip-path="url(#p95fab46ba6)" d="M 340.829261 76.936045 
L 594.465625 76.936045 
" style="fill:none;opacity:0.2;stroke:#808080;stroke-linecap:square;"/>
     </g>
     <g id="line2d_49">
      <g>
       <use style="stroke:#000000;stroke-width:0.8;" x="340.829261" xlink:href="#m2a836a246b" y="76.936045"/>
      </g>
     </g>
    </g>
    <g id="ytick_13">
     <g id="line2d_50">
      <path clip-path="url(#p95fab46ba6)" d="M 340.829261 51.673707 
L 594.465625 51.673707 
" style="fill:none;opacity:0.2;stroke:#808080;stroke-linecap:square;"/>
     </g>
     <g id="line2d_51">
      <g>
       <use style="stroke:#000000;stroke-width:0.8;" x="340.829261" xlink:href="#m2a836a246b" y="51.673707"/>
      </g>
     </g>
    </g>
    <g id="ytick_14">
     <g id="line2d_52">
      <path clip-path="url(#p95fab46ba6)" d="M 340.829261 26.411369 
L 594.465625 26.411369 
" style="fill:none;opacity:0.2;stroke:#808080;stroke-linecap:square;"/>
     </g>
     <g id="line2d_53">
      <g>
       <use style="stroke:#000000;stroke-width:0.8;" x="340.829261" xlink:href="#m2a836a246b" y="26.411369"/>
      </g>
     </g>
    </g>
   </g>
   <g id="LineCollection_3">
    <path clip-path="url(#p95fab46ba6)" d="M 527.018208 177.985398 
L 527.018208 167.880462 
" style="fill:none;stroke:#000000;stroke-width:0.5;"/>
    <path clip-path="url(#p95fab46ba6)" d="M 546.188367 177.985398 
L 546.188367 167.880462 
" style="fill:none;stroke:#000000;stroke-width:0.5;"/>
    <path clip-path="url(#p95fab46ba6)" d="M 519.099088 177.985398 
L 519.099088 167.880462 
" style="fill:none;stroke:#000000;stroke-width:0.5;"/>
    <path clip-path="url(#p95fab46ba6)" d="M 517.044562 177.985398 
L 517.044562 167.880462 
" style="fill:none;stroke:#000000;stroke-width:0.5;"/>
    <path clip-path="url(#p95fab46ba6)" d="M 532.802637 177.985398 
L 532.802637 167.880462 
" style="fill:none;stroke:#000000;stroke-width:0.5;"/>
    <path clip-path="url(#p95fab46ba6)" d="M 533.797294 177.985398 
L 533.797294 167.880462 
" style="fill:none;stroke:#000000;stroke-width:0.5;"/>
    <path clip-path="url(#p95fab46ba6)" d="M 537.428709 177.985398 
L 537.428709 167.880462 
" style="fill:none;stroke:#000000;stroke-width:0.5;"/>
    <path clip-path="url(#p95fab46ba6)" d="M 544.043051 177.985398 
L 544.043051 167.880462 
" style="fill:none;stroke:#000000;stroke-width:0.5;"/>
    <path clip-path="url(#p95fab46ba6)" d="M 514.174336 177.985398 
L 514.174336 167.880462 
" style="fill:none;stroke:#000000;stroke-width:0.5;"/>
    <path clip-path="url(#p95fab46ba6)" d="M 522.993746 177.985398 
L 522.993746 167.880462 
" style="fill:none;stroke:#000000;stroke-width:0.5;"/>
   </g>
   <g id="LineCollection_4">
    <path clip-path="url(#p95fab46ba6)" d="M 525.292071 177.985398 
L 525.292071 167.880462 
" style="fill:none;stroke:#ff0000;stroke-width:2;"/>
   </g>
   <g id="line2d_54">
    <path clip-path="url(#p95fab46ba6)" d="M 352.358187 177.985398 
L 499.152916 177.886185 
L 501.461009 177.661707 
L 503.076674 177.285952 
L 504.230721 176.807564 
L 505.153958 176.229652 
L 506.077195 175.409378 
L 507.000433 174.265864 
L 507.92367 172.70073 
L 508.846907 170.598358 
L 509.770144 167.82815 
L 510.693382 164.24943 
L 511.616619 159.719541 
L 512.539856 154.105451 
L 513.693903 145.401849 
L 514.847949 134.724968 
L 516.232805 119.392631 
L 517.848471 98.722073 
L 521.31061 53.336379 
L 522.464657 41.654324 
L 523.157085 36.301722 
L 523.849513 32.4422 
L 524.311132 30.778351 
L 524.77275 29.882931 
L 525.00356 29.730852 
L 525.234369 29.778331 
L 525.465178 30.026236 
L 525.926797 31.122791 
L 526.388416 33.011336 
L 527.080844 37.27739 
L 527.773271 43.146139 
L 528.696509 53.139403 
L 529.850555 68.304022 
L 532.620267 109.320912 
L 534.235932 131.101033 
L 535.389979 144.084484 
L 536.544026 154.550047 
L 537.467263 161.119011 
L 538.3905 166.216021 
L 539.313738 170.030959 
L 540.236975 172.7842 
L 541.160212 174.699043 
L 542.083449 175.981453 
L 543.006687 176.807736 
L 543.929924 177.319392 
L 545.083971 177.676692 
L 546.699636 177.891286 
L 549.469348 177.976577 
L 565.395191 177.985398 
L 582.936699 177.985398 
L 582.936699 177.985398 
" style="fill:none;stroke:#1f77b4;stroke-linecap:square;stroke-width:1.5;"/>
   </g>
   <g id="patch_10">
    <path d="M 340.829261 185.398125 
L 340.829261 22.318125 
" style="fill:none;stroke:#000000;stroke-linecap:square;stroke-linejoin:miter;stroke-width:0.8;"/>
   </g>
   <g id="patch_11">
    <path d="M 594.465625 185.398125 
L 594.465625 22.318125 
" style="fill:none;stroke:#000000;stroke-linecap:square;stroke-linejoin:miter;stroke-width:0.8;"/>
   </g>
   <g id="patch_12">
    <path d="M 340.829261 185.398125 
L 594.465625 185.398125 
" style="fill:none;stroke:#000000;stroke-linecap:square;stroke-linejoin:miter;stroke-width:0.8;"/>
   </g>
   <g id="patch_13">
    <path d="M 340.829261 22.318125 
L 594.465625 22.318125 
" style="fill:none;stroke:#000000;stroke-linecap:square;stroke-linejoin:miter;stroke-width:0.8;"/>
   </g>
   <g id="text_21">
    <!-- posterior distribution -->
    <defs>
     <path d="M 56.203125 29.59375 
L 56.203125 25.203125 
L 14.890625 25.203125 
Q 15.484375 15.921875 20.484375 11.0625 
Q 25.484375 6.203125 34.421875 6.203125 
Q 39.59375 6.203125 44.453125 7.46875 
Q 49.3125 8.734375 54.109375 11.28125 
L 54.109375 2.78125 
Q 49.265625 0.734375 44.1875 -0.34375 
Q 39.109375 -1.421875 33.890625 -1.421875 
Q 20.796875 -1.421875 13.15625 6.1875 
Q 5.515625 13.8125 5.515625 26.8125 
Q 5.515625 40.234375 12.765625 48.109375 
Q 20.015625 56 32.328125 56 
Q 43.359375 56 49.78125 48.890625 
Q 56.203125 41.796875 56.203125 29.59375 
z
M 47.21875 32.234375 
Q 47.125 39.59375 43.09375 43.984375 
Q 39.0625 48.390625 32.421875 48.390625 
Q 24.90625 48.390625 20.390625 44.140625 
Q 15.875 39.890625 15.1875 32.171875 
z
" id="DejaVuSans-65"/>
    </defs>
    <g transform="translate(404.627756 16.318125)scale(0.12 -0.12)">
     <use xlink:href="#DejaVuSans-70"/>
     <use x="63.476562" xlink:href="#DejaVuSans-6f"/>
     <use x="124.658203" xlink:href="#DejaVuSans-73"/>
     <use x="176.757812" xlink:href="#DejaVuSans-74"/>
     <use x="215.966797" xlink:href="#DejaVuSans-65"/>
     <use x="277.490234" xlink:href="#DejaVuSans-72"/>
     <use x="318.603516" xlink:href="#DejaVuSans-69"/>
     <use x="346.386719" xlink:href="#DejaVuSans-6f"/>
     <use x="407.568359" xlink:href="#DejaVuSans-72"/>
     <use x="448.681641" xlink:href="#DejaVuSans-20"/>
     <use x="480.46875" xlink:href="#DejaVuSans-64"/>
     <use x="543.945312" xlink:href="#DejaVuSans-69"/>
     <use x="571.728516" xlink:href="#DejaVuSans-73"/>
     <use x="623.828125" xlink:href="#DejaVuSans-74"/>
     <use x="663.037109" xlink:href="#DejaVuSans-72"/>
     <use x="704.150391" xlink:href="#DejaVuSans-69"/>
     <use x="731.933594" xlink:href="#DejaVuSans-62"/>
     <use x="795.410156" xlink:href="#DejaVuSans-75"/>
     <use x="858.789062" xlink:href="#DejaVuSans-74"/>
     <use x="897.998047" xlink:href="#DejaVuSans-69"/>
     <use x="925.78125" xlink:href="#DejaVuSans-6f"/>
     <use x="986.962891" xlink:href="#DejaVuSans-6e"/>
    </g>
   </g>
  </g>
 </g>
 <defs>
  <clipPath id="p19cce0cd57">
   <rect height="163.08" width="253.636364" x="36.465625" y="22.318125"/>
  </clipPath>
  <clipPath id="p95fab46ba6">
   <rect height="163.08" width="253.636364" x="340.829261" y="22.318125"/>
  </clipPath>
 </defs>
</svg>
