<?xml version="1.0" encoding="utf-8"?>
<!-- Generator: Adobe Illustrator 21.0.2, SVG Export Plug-In . SVG Version: 6.00 Build 0)  -->
<svg version="1.1" id="レイヤー_1" xmlns="http://www.w3.org/2000/svg" xmlns:xlink="http://www.w3.org/1999/xlink" x="0px"
	 y="0px" viewBox="0 0 423.6 210.8" style="enable-background:new 0 0 423.6 210.8;" xml:space="preserve">
<style type="text/css">
	.st0{fill:none;stroke:#000000;stroke-width:0.2835;stroke-miterlimit:10;}
	.st1{fill:none;stroke:#000000;stroke-width:0.5669;stroke-miterlimit:10;}
	.st2{fill:none;stroke:#040000;stroke-width:0.5669;stroke-miterlimit:10;}
	.st3{fill:none;stroke:#040000;stroke-width:0.7087;stroke-miterlimit:10;}
</style>
<image style="overflow:visible;" width="220" height="288" xlink:href="../../../Downloads/ernst_weber.jpg"  transform="matrix(0.48 0 0 0.48 13.114 31.9046)">
</image>
<image style="overflow:visible;" width="250" height="355" xlink:href="../../../Downloads/250px-Gustav_Fechner.jpg"  transform="matrix(0.3894 0 0 0.3894 298.8593 31.9046)">
</image>
<g>
	<path d="M39.8,183.3c0,0.5,0,1.1-0.1,1.7l-0.3,0.1c-0.1-0.5-0.1-0.8-0.3-1c-0.1-0.2-0.4-0.3-0.8-0.3h-1.2c-0.3,0-0.5,0.1-0.5,0.4
		l-0.5,2.5h1.5c0.3,0,0.6-0.2,0.7-0.5l0.1-0.3c0-0.1,0.1-0.1,0.1-0.1h0.3l0,0c-0.1,0.5-0.2,0.8-0.3,1.1c-0.1,0.3-0.1,0.7-0.2,1
		l-0.1,0H38c-0.1,0-0.1,0-0.1-0.1l0-0.3c0,0,0-0.1,0-0.1c0-0.1,0-0.2,0-0.2s-0.1-0.1-0.2-0.1c-0.1,0-0.2,0-0.3,0H36l-0.6,3
		c0,0,0,0,0,0.1s0,0,0,0.1c0,0.1,0,0.2,0.1,0.2c0.1,0,0.1,0.1,0.3,0.1h1.6c0.8,0,1.4-0.5,1.9-1.6l0.3,0.1c-0.1,0.2-0.4,0.9-0.8,2
		c-0.6,0-1.1,0-1.5,0h-2.5c-0.3,0-0.7,0-1.5,0l0,0l0-0.2c0-0.1,0.1-0.1,0.1-0.1l0.4,0c0.2,0,0.4-0.1,0.5-0.1s0.2-0.2,0.2-0.4l1.2-6
		c0-0.1,0-0.1,0-0.2c0-0.1,0-0.1-0.1-0.2c0,0-0.1-0.1-0.2-0.1s-0.2,0-0.3-0.1l-0.3,0c-0.1,0-0.1,0-0.1-0.1l0.1-0.2l0,0
		c0.7,0,1.2,0,1.4,0h2.9C39.4,183.3,39.6,183.3,39.8,183.3C39.8,183.3,39.8,183.3,39.8,183.3z"/>
	<path d="M42.2,187.6L42.2,187.6c0.3-0.6,0.6-1,0.9-1.4s0.6-0.5,0.9-0.5c0.2,0,0.4,0.1,0.5,0.2s0.2,0.2,0.2,0.4
		c0,0.2-0.1,0.3-0.2,0.5s-0.2,0.2-0.4,0.2c-0.1,0-0.3-0.1-0.4-0.3c-0.1-0.1-0.2-0.1-0.3-0.1c-0.2,0-0.7,0.7-1.6,2.2l-0.3,1.4
		c0,0.1,0,0.2-0.1,0.3c0,0.1,0,0.2-0.1,0.3c0,0.1,0,0.1-0.1,0.2s-0.1,0.1-0.1,0.1c-0.1,0-0.1,0-0.2,0c-0.3,0-0.5-0.1-0.5-0.3
		c0-0.1,0-0.1,0-0.2c0-0.1,0-0.2,0.1-0.3c0-0.1,0-0.2,0.1-0.2l0.7-3.1c0.1-0.2,0.1-0.4,0.1-0.5c0-0.1-0.1-0.2-0.2-0.2l-0.5,0
		c-0.1-0.1-0.1-0.2,0-0.3c0.8-0.1,1.3-0.2,1.4-0.2c0.2,0,0.3,0.1,0.3,0.3c0,0,0,0.1,0,0.1s0,0.1,0,0.1s0,0.1,0,0.1s0,0.1,0,0.2
		c0,0.1,0,0.1,0,0.2c0,0,0,0.1,0,0.2s0,0.2,0,0.2L42.2,187.6z"/>
	<path d="M49,189.6c-0.1,0.4-0.1,0.6-0.1,0.7c0,0.1,0,0.2,0.1,0.2c0.1,0,0.2-0.1,0.3-0.2s0.3-0.3,0.5-0.4c0.1,0,0.2,0.1,0.3,0.2
		c-0.6,0.7-1.2,1.1-1.7,1.1c-0.3,0-0.5-0.1-0.5-0.4c0-0.2,0.1-0.6,0.2-1.1l0.5-1.9c0.1-0.4,0.2-0.7,0.2-0.8c0-0.2,0-0.3-0.1-0.3
		s-0.2-0.1-0.3-0.1c-0.4,0-1,0.6-1.8,1.7l-0.4,2c0,0.1,0,0.1-0.1,0.3c0,0.1,0,0.2-0.1,0.3s0,0.1-0.1,0.2s-0.1,0.1-0.1,0.2
		c-0.1,0-0.1,0-0.2,0c-0.3,0-0.5-0.1-0.5-0.3c0,0,0-0.2,0.1-0.7l0.7-3c0.1-0.3,0.1-0.5,0.1-0.6c0-0.1-0.1-0.2-0.2-0.2l-0.5,0
		c-0.1-0.1-0.1-0.2,0-0.3c0.8-0.1,1.3-0.2,1.5-0.2c0.2,0,0.2,0.1,0.2,0.3c0,0.1,0,0.1,0,0.3c0,0.1-0.1,0.3-0.1,0.5s-0.1,0.3-0.1,0.4
		l0,0.1l0,0c0.5-0.6,0.9-1,1.3-1.2s0.6-0.3,1-0.3c0.5,0,0.8,0.3,0.8,1c0,0.2,0,0.5-0.1,0.9L49,189.6z"/>
	<path d="M52.1,191.2c-0.4,0-0.7-0.1-1-0.3c-0.3-0.2-0.4-0.4-0.4-0.6c0-0.1,0-0.2,0.1-0.3s0.2-0.1,0.3-0.1c0.2,0,0.3,0.1,0.4,0.2
		s0.2,0.3,0.2,0.4c0,0.1,0.1,0.2,0.1,0.3s0.2,0.1,0.4,0.1c0.3,0,0.5-0.1,0.7-0.2s0.3-0.4,0.3-0.7c0-0.4-0.2-0.8-0.7-1.1
		c-0.7-0.5-1-1-1-1.5c0-0.4,0.2-0.7,0.5-1s0.7-0.5,1.2-0.5c0.4,0,0.7,0.1,1,0.3s0.4,0.4,0.4,0.7c0,0.3-0.1,0.4-0.4,0.4
		c-0.1,0-0.3-0.1-0.4-0.2s-0.2-0.3-0.2-0.4c0-0.2-0.2-0.3-0.6-0.3c-0.2,0-0.4,0.1-0.6,0.3s-0.2,0.4-0.2,0.6c0,0.3,0.2,0.5,0.5,0.8
		c0.5,0.4,0.9,0.7,1.1,1s0.3,0.6,0.3,0.9c0,0.5-0.2,0.8-0.5,1.1c-0.3,0.3-0.8,0.4-1.4,0.4H52.1z"/>
	<path d="M56.5,185.9l0.1-0.6c0-0.1,0-0.2,0.1-0.3s0.1-0.2,0.1-0.3c0-0.1,0.1-0.2,0.1-0.3s0.1-0.1,0.3-0.1c0.3,0,0.5,0.1,0.5,0.3
		c0,0,0,0.3-0.1,0.7l-0.1,0.5h1.2c0.1,0,0.1,0.1,0,0.2s-0.1,0.2-0.2,0.2h-1.2l-0.7,3.2c-0.1,0.4-0.2,0.6-0.2,0.8
		c0,0.1,0.1,0.2,0.2,0.2c0.2,0,0.5-0.2,1-0.7c0.1,0,0.2,0.1,0.3,0.2c-0.2,0.4-0.5,0.7-0.8,0.9s-0.7,0.3-0.9,0.3
		c-0.2,0-0.3,0-0.4-0.1s-0.1-0.2-0.1-0.4c0-0.2,0.1-0.5,0.2-1l0.7-3.3h-0.8c0,0-0.1,0-0.1,0c0,0,0-0.1,0-0.2c0-0.1,0.1-0.2,0.3-0.2
		L56.5,185.9z"/>
	<path d="M63.5,184.4c0-0.1,0-0.2-0.1-0.3s-0.1-0.2-0.1-0.2s-0.1-0.1-0.2-0.1s-0.2,0-0.2-0.1s-0.1,0-0.3,0c0,0-0.1-0.1-0.1-0.2
		s0-0.1,0.1-0.2c0.6,0,1.1,0,1.3,0c0.4,0,0.9,0,1.4,0c0,0,0.1,0.1,0.1,0.2s0,0.1-0.1,0.2c-0.3,0-0.5,0.1-0.6,0.1s-0.2,0.2-0.2,0.4
		l0.4,4.2l0.1,1.2l0.6-1.2c0.8-1.6,1.4-3,2-4.1c0.3-0.1,0.5-0.2,0.6-0.2c0.1,0.2,0.1,0.6,0.2,1.1l0.4,3.3l0.1,1.2l0.6-1.2l1.8-4.2
		c0.1-0.2,0.1-0.4-0.1-0.5s-0.4-0.2-0.7-0.2c0,0,0-0.1,0-0.2s0-0.1,0-0.2c0.6,0,1.1,0,1.3,0c0.2,0,0.5,0,1.1,0c0,0,0,0.1,0,0.2
		s0,0.1,0,0.2c-0.6,0.1-0.9,0.3-1.1,0.8l-3,6.5c-0.1,0.2-0.2,0.3-0.3,0.3c-0.1,0-0.1,0-0.2-0.1c-0.1-0.1-0.1-0.1-0.1-0.2l-0.5-4.3
		c-0.1-0.4-0.1-0.7-0.1-0.9c0,0,0,0-0.1,0c0,0-0.1,0.1-0.1,0.2s-0.1,0.2-0.2,0.4s-0.1,0.2-0.2,0.3l-2.1,4.3
		c-0.1,0.2-0.2,0.3-0.3,0.3c-0.2,0-0.3-0.1-0.3-0.3L63.5,184.4z"/>
	<path d="M73.2,188.7c0,0.1,0,0.2,0,0.4c0,0.5,0.1,0.9,0.2,1.1s0.4,0.3,0.7,0.3s0.5-0.1,0.7-0.2s0.5-0.3,0.8-0.7
		c0.1,0,0.2,0.1,0.3,0.2c-0.7,0.9-1.4,1.3-2.2,1.3c-0.5,0-0.8-0.2-1.1-0.5s-0.4-0.8-0.4-1.3c0-0.3,0-0.6,0.1-1s0.2-0.6,0.3-1
		s0.3-0.6,0.6-0.8s0.5-0.4,0.8-0.6s0.7-0.2,1.1-0.2c0.4,0,0.7,0.1,0.9,0.3s0.3,0.4,0.3,0.6c0,0.1,0,0.2,0,0.2s0,0.1-0.1,0.3
		s-0.1,0.2-0.2,0.3s-0.2,0.2-0.3,0.3s-0.3,0.2-0.5,0.3s-0.5,0.2-0.8,0.3S73.7,188.6,73.2,188.7z M75.5,186.6c0-0.2,0-0.3-0.1-0.4
		s-0.2-0.1-0.5-0.1c-0.7,0-1.2,0.7-1.6,2.1c0.3,0,0.5-0.1,0.7-0.1s0.5-0.2,0.7-0.3s0.4-0.3,0.5-0.5S75.5,186.9,75.5,186.6z"/>
	<path d="M79.5,184l-0.7,3l0,0c0.2-0.2,0.3-0.3,0.4-0.4c0.1-0.1,0.2-0.2,0.4-0.4c0.2-0.2,0.4-0.3,0.5-0.3c0.2-0.1,0.4-0.1,0.6-0.1
		c0.5,0,0.8,0.1,1,0.4c0.2,0.2,0.3,0.6,0.3,1.1c0,0.6-0.2,1.2-0.7,1.9s-1,1.2-1.5,1.6c-0.4,0.3-0.9,0.4-1.3,0.4
		c-0.5,0-0.9-0.1-1.1-0.4s-0.3-0.6-0.2-1l1.2-5.5c0.1-0.2,0.1-0.4,0.1-0.6c0-0.2-0.1-0.3-0.3-0.3l-0.4,0c0,0-0.1,0-0.1-0.1l0-0.3
		c0.7,0,1.3-0.2,1.7-0.3c0.1,0,0.1,0,0.1,0.1C79.7,183.1,79.6,183.5,79.5,184z M81,187.4c0-0.7-0.2-1.1-0.6-1.1c-0.1,0-0.2,0-0.2,0
		c-0.1,0-0.2,0.1-0.3,0.1c-0.1,0.1-0.2,0.1-0.2,0.2c-0.1,0-0.1,0.1-0.3,0.2c-0.1,0.1-0.2,0.2-0.2,0.2c0,0.1-0.1,0.2-0.2,0.3
		c-0.1,0.1-0.2,0.2-0.2,0.3l-0.4,1.7c-0.2,0.9-0.1,1.3,0.3,1.3c0.5,0,1-0.3,1.6-1C80.7,189,81,188.3,81,187.4z"/>
	<path d="M83.8,188.7c0,0.1,0,0.2,0,0.4c0,0.5,0.1,0.9,0.2,1.1s0.4,0.3,0.7,0.3s0.5-0.1,0.7-0.2s0.5-0.3,0.8-0.7
		c0.1,0,0.2,0.1,0.3,0.2c-0.7,0.9-1.4,1.3-2.2,1.3c-0.5,0-0.8-0.2-1.1-0.5s-0.4-0.8-0.4-1.3c0-0.3,0-0.6,0.1-1s0.2-0.6,0.3-1
		s0.3-0.6,0.6-0.8s0.5-0.4,0.8-0.6s0.7-0.2,1.1-0.2c0.4,0,0.7,0.1,0.9,0.3s0.3,0.4,0.3,0.6c0,0.1,0,0.2,0,0.2s0,0.1-0.1,0.3
		s-0.1,0.2-0.2,0.3s-0.2,0.2-0.3,0.3s-0.3,0.2-0.5,0.3s-0.5,0.2-0.8,0.3S84.2,188.6,83.8,188.7z M86,186.6c0-0.2,0-0.3-0.1-0.4
		s-0.2-0.1-0.5-0.1c-0.7,0-1.2,0.7-1.6,2.1c0.3,0,0.5-0.1,0.7-0.1s0.5-0.2,0.7-0.3s0.4-0.3,0.5-0.5S86,186.9,86,186.6z"/>
	<path d="M89.2,187.6L89.2,187.6c0.3-0.6,0.6-1,0.9-1.4s0.6-0.5,0.9-0.5c0.2,0,0.4,0.1,0.5,0.2s0.2,0.2,0.2,0.4
		c0,0.2-0.1,0.3-0.2,0.5s-0.2,0.2-0.4,0.2c-0.1,0-0.3-0.1-0.4-0.3c-0.1-0.1-0.2-0.1-0.3-0.1c-0.2,0-0.7,0.7-1.6,2.2l-0.3,1.4
		c0,0.1,0,0.2-0.1,0.3c0,0.1,0,0.2-0.1,0.3c0,0.1,0,0.1-0.1,0.2s-0.1,0.1-0.1,0.1c-0.1,0-0.1,0-0.2,0c-0.3,0-0.5-0.1-0.5-0.3
		c0-0.1,0-0.1,0-0.2c0-0.1,0-0.2,0.1-0.3c0-0.1,0-0.2,0.1-0.2l0.7-3.1c0.1-0.2,0.1-0.4,0.1-0.5c0-0.1-0.1-0.2-0.2-0.2l-0.5,0
		c-0.1-0.1-0.1-0.2,0-0.3c0.8-0.1,1.3-0.2,1.4-0.2c0.2,0,0.3,0.1,0.3,0.3c0,0,0,0.1,0,0.1s0,0.1,0,0.1s0,0.1,0,0.1s0,0.1,0,0.2
		c0,0.1,0,0.1,0,0.2c0,0,0,0.1,0,0.2s0,0.2,0,0.2L89.2,187.6z"/>
</g>
<g>
	<path d="M316.8,184c0.5,0,1,0.1,1.5,0.3s0.8,0.3,0.9,0.3c-0.1,0.7-0.1,1.4-0.1,1.8l-0.4,0.1c-0.1-0.6-0.2-1.1-0.6-1.5
		s-0.9-0.6-1.6-0.6c-0.8,0-1.5,0.3-2.2,1s-1.1,1.5-1.3,2.5c0,0.1,0,0.2,0,0.2s0,0.2,0,0.2s0,0.2,0,0.2c0,0.4,0.1,0.7,0.2,1.1
		s0.3,0.6,0.4,0.9s0.5,0.5,0.8,0.7s0.7,0.3,1.1,0.3c0.7,0,1.3-0.2,1.8-0.6l0.4-1.8c0,0,0,0,0-0.1s0,0,0,0s0,0,0,0
		c0-0.1,0-0.1-0.1-0.2s-0.1-0.1-0.2-0.1s-0.2,0-0.3,0l-0.3,0c-0.1,0-0.1,0-0.1-0.1l0.1-0.3l0,0c0.7,0,1.2,0,1.5,0s0.6,0,1.1,0l0,0
		l-0.1,0.3c0,0,0,0.1-0.1,0.1c-0.2,0-0.3,0.1-0.4,0.1c-0.1,0.1-0.2,0.2-0.2,0.4l-0.3,1.4c0,0.1,0,0.2,0.1,0.3
		c-1,0.7-2.1,1.1-3.3,1.1c-1,0-1.8-0.3-2.4-0.9s-0.9-1.3-0.9-2.2c0-0.1,0-0.2,0-0.2s0-0.2,0-0.3s0-0.2,0-0.3
		c0.2-1.3,0.8-2.3,1.8-3.1S315.8,184,316.8,184z"/>
	<path d="M325,187.6l-0.7,2.7c0,0.4-0.1,0.6-0.1,0.7c0,0.1,0,0.2,0.1,0.2c0.1,0,0.2-0.1,0.3-0.2s0.3-0.3,0.5-0.4
		c0.1,0,0.2,0.1,0.3,0.2c-0.6,0.7-1.1,1.1-1.7,1.1c-0.3,0-0.4-0.1-0.4-0.4c0-0.3,0.1-0.6,0.2-1.1l0.1-0.5l0,0
		c-0.5,0.7-0.9,1.2-1.2,1.5s-0.7,0.5-1.2,0.5c-0.2,0-0.4-0.1-0.6-0.2s-0.2-0.4-0.2-0.7c0-0.2,0-0.5,0.1-0.8l0.5-2
		c0.1-0.4,0.2-0.6,0.2-0.7c0-0.1,0-0.2-0.1-0.2c-0.1,0-0.2,0.1-0.4,0.2s-0.3,0.3-0.5,0.4c-0.1,0-0.2-0.1-0.3-0.2
		c0.6-0.7,1.2-1.1,1.8-1.1c0.3,0,0.4,0.1,0.4,0.4c0,0.1-0.1,0.4-0.2,1.1l-0.5,2c-0.1,0.3-0.1,0.5-0.1,0.8c0,0.3,0.1,0.4,0.4,0.4
		c0.3,0,0.6-0.2,0.9-0.6s0.7-1,1.2-1.8l0.3-1.3c0-0.1,0-0.2,0.1-0.3c0-0.2,0.1-0.3,0.1-0.3s0.1-0.1,0.1-0.2c0.1-0.1,0.1-0.1,0.2-0.1
		c0.3,0,0.5,0.1,0.5,0.3c0,0,0,0.1,0,0.2c0,0.1,0,0.2-0.1,0.3C325,187.5,325,187.6,325,187.6z"/>
	<path d="M327.3,192c-0.4,0-0.7-0.1-1-0.3c-0.3-0.2-0.4-0.4-0.4-0.6c0-0.1,0-0.2,0.1-0.3s0.2-0.1,0.3-0.1c0.2,0,0.3,0.1,0.4,0.2
		s0.2,0.3,0.2,0.4c0,0.1,0.1,0.2,0.1,0.3s0.2,0.1,0.4,0.1c0.3,0,0.5-0.1,0.7-0.2s0.3-0.4,0.3-0.7c0-0.4-0.2-0.8-0.7-1.1
		c-0.7-0.5-1-1-1-1.5c0-0.4,0.2-0.7,0.5-1s0.7-0.5,1.2-0.5c0.4,0,0.7,0.1,1,0.3s0.4,0.4,0.4,0.7c0,0.3-0.1,0.4-0.4,0.4
		c-0.1,0-0.3-0.1-0.4-0.2s-0.2-0.3-0.2-0.4c0-0.2-0.2-0.3-0.6-0.3c-0.2,0-0.4,0.1-0.6,0.3s-0.2,0.4-0.2,0.6c0,0.3,0.2,0.5,0.5,0.8
		c0.5,0.4,0.9,0.7,1.1,1s0.3,0.6,0.3,0.9c0,0.5-0.2,0.8-0.5,1.1c-0.3,0.3-0.8,0.4-1.4,0.4H327.3z"/>
	<path d="M331.7,186.7l0.1-0.6c0-0.1,0-0.2,0.1-0.3s0.1-0.2,0.1-0.3c0-0.1,0.1-0.2,0.1-0.3s0.1-0.1,0.3-0.1c0.3,0,0.5,0.1,0.5,0.3
		c0,0,0,0.3-0.1,0.7l-0.1,0.5h1.2c0.1,0,0.1,0.1,0,0.2s-0.1,0.2-0.2,0.2h-1.2l-0.7,3.2c-0.1,0.4-0.2,0.6-0.2,0.8
		c0,0.1,0.1,0.2,0.2,0.2c0.2,0,0.5-0.2,1-0.7c0.1,0,0.2,0.1,0.3,0.2c-0.2,0.4-0.5,0.7-0.8,0.9s-0.7,0.3-0.9,0.3
		c-0.2,0-0.3,0-0.4-0.1s-0.1-0.2-0.1-0.4c0-0.2,0.1-0.5,0.2-1l0.7-3.3h-0.8c0,0-0.1,0-0.1,0c0,0,0-0.1,0-0.2c0-0.1,0.1-0.2,0.3-0.2
		L331.7,186.7z"/>
	<path d="M338,186.7c0.1,0,0.3,0,0.8,0l-0.8,3.7c-0.1,0.4-0.1,0.6-0.1,0.7c0,0.1,0,0.2,0.1,0.2c0.1,0,0.4-0.2,0.7-0.6
		c0.1,0,0.2,0.1,0.3,0.2c-0.4,0.8-0.9,1.2-1.5,1.2c-0.3,0-0.5-0.2-0.5-0.5c0-0.2,0-0.4,0.1-0.7l0.2-0.5l0,0c-0.8,1.2-1.5,1.7-2,1.7
		c-0.8,0-1.2-0.5-1.2-1.6c0-0.9,0.3-1.8,1-2.6s1.3-1.2,2-1.2C337.3,186.6,337.6,186.6,338,186.7z M337.4,189.2
		c0.1-0.2,0.2-0.5,0.2-0.8s0.1-0.6,0.1-0.8l0-0.3c-0.2-0.2-0.5-0.2-0.7-0.2c-0.5,0-1,0.4-1.4,1.1s-0.7,1.4-0.7,2.1
		c0,0.8,0.2,1.2,0.5,1.2c0.2,0,0.5-0.2,0.9-0.6S337.1,189.8,337.4,189.2z"/>
	<path d="M342.5,190.9L342.5,190.9c0.2-0.1,0.5-0.4,0.8-0.9c0.2-0.2,0.3-0.4,0.5-0.7s0.3-0.5,0.4-0.8c0.1-0.2,0.1-0.5,0.1-0.6
		c0-0.2-0.1-0.5-0.3-0.7c0-0.1-0.1-0.1-0.1-0.2c0-0.3,0.2-0.4,0.6-0.4c0.4,0,0.6,0.2,0.6,0.6c0,0.3-0.1,0.8-0.3,1.3
		c-0.1,0.1-0.1,0.3-0.2,0.4s-0.1,0.3-0.2,0.4c-0.1,0.1-0.1,0.2-0.2,0.4s-0.2,0.2-0.2,0.3s-0.1,0.2-0.2,0.3c-0.1,0.1-0.1,0.2-0.1,0.2
		c-0.3,0.4-0.6,0.8-1,1.2c-0.3,0.3-0.4,0.4-0.5,0.4c-0.2,0-0.3-0.3-0.4-0.8l-0.5-2.9c-0.1-0.5-0.2-0.7-0.3-0.7c0,0-0.1,0-0.1,0
		s-0.1,0-0.1,0.1s-0.1,0.1-0.2,0.1s-0.1,0.1-0.2,0.2s-0.1,0.1-0.2,0.2c0,0-0.1,0-0.1,0s-0.1,0-0.1,0s0,0-0.1-0.1s0-0.1,0-0.1
		c0.2-0.3,0.5-0.7,0.8-0.9s0.5-0.4,0.7-0.4c0.2,0,0.3,0.1,0.4,0.3c0.1,0.2,0.2,0.6,0.3,1.2L342.5,190.9z"/>
	<path d="M351.9,188h-1.5l-0.6,3c0,0.1,0,0.1,0,0.2c0,0.1,0,0.2,0.1,0.3c0.1,0.1,0.2,0.1,0.4,0.1l0.3,0c0.1,0,0.1,0,0.1,0.1
		l-0.1,0.2l0,0c-0.7,0-1.2,0-1.5,0c-0.2,0-0.7,0-1.4,0l0,0l0-0.2c0-0.1,0.1-0.1,0.1-0.1l0.3,0c0.2,0,0.4-0.1,0.5-0.1
		s0.2-0.2,0.2-0.4l1.2-6l0-0.2c0-0.1,0-0.1-0.1-0.2c0,0-0.1-0.1-0.2-0.1s-0.2,0-0.3-0.1l-0.3,0c-0.1,0-0.1,0-0.1-0.1l0.1-0.2l0,0
		c0.7,0,1.2,0,1.4,0h2.9c0.2,0,0.4,0,0.6,0c0,0,0,0,0,0c0,0.3,0,0.9-0.1,1.7l-0.3,0.1c-0.1-0.5-0.1-0.8-0.3-1
		c-0.1-0.2-0.4-0.3-0.8-0.3h-1.2c-0.3,0-0.5,0.1-0.5,0.4l-0.5,2.5h1.5c0.3,0,0.6-0.2,0.7-0.5l0.1-0.3c0-0.1,0.1-0.1,0.1-0.1h0.3l0,0
		c-0.1,0.5-0.2,0.8-0.3,1.1c-0.1,0.3-0.1,0.7-0.2,1l-0.1,0h-0.3c-0.1,0-0.1,0-0.1-0.1l0-0.3c0,0,0-0.1,0-0.1c0-0.1,0-0.2-0.1-0.2
		c0-0.1-0.1-0.1-0.2-0.1S352,188,351.9,188z"/>
	<path d="M355.1,189.5c0,0.1,0,0.2,0,0.4c0,0.5,0.1,0.9,0.2,1.1s0.4,0.3,0.7,0.3s0.5-0.1,0.7-0.2s0.5-0.3,0.8-0.7
		c0.1,0,0.2,0.1,0.3,0.2c-0.7,0.9-1.4,1.3-2.2,1.3c-0.5,0-0.8-0.2-1.1-0.5s-0.4-0.8-0.4-1.3c0-0.3,0-0.6,0.1-1s0.2-0.6,0.3-1
		s0.3-0.6,0.6-0.8s0.5-0.4,0.8-0.6s0.7-0.2,1.1-0.2c0.4,0,0.7,0.1,0.9,0.3s0.3,0.4,0.3,0.6c0,0.1,0,0.2,0,0.2s0,0.1-0.1,0.3
		s-0.1,0.2-0.2,0.3s-0.2,0.2-0.3,0.3s-0.3,0.2-0.5,0.3s-0.5,0.2-0.8,0.3S355.5,189.4,355.1,189.5z M357.4,187.4c0-0.2,0-0.3-0.1-0.4
		s-0.2-0.1-0.5-0.1c-0.7,0-1.2,0.7-1.6,2.1c0.3,0,0.5-0.1,0.7-0.1s0.5-0.2,0.7-0.3s0.4-0.3,0.5-0.5S357.4,187.7,357.4,187.4z"/>
	<path d="M360.4,192c-0.5,0-0.9-0.2-1.2-0.6c-0.2-0.3-0.4-0.8-0.4-1.3c0-0.5,0.1-1,0.3-1.5s0.4-0.8,0.7-1.2c0.2-0.2,0.3-0.3,0.6-0.5
		s0.4-0.2,0.6-0.3s0.4-0.1,0.6-0.1c0.3,0,0.6,0,0.8,0.1s0.3,0.2,0.4,0.3s0.1,0.3,0.1,0.4s0,0.2,0,0.4c0,0.1-0.1,0.3-0.2,0.4
		s-0.3,0.2-0.4,0.2c-0.1,0-0.2,0-0.2-0.1s-0.1-0.2-0.1-0.3s0-0.2,0.1-0.3s0.1-0.1,0.1-0.2c0-0.3-0.2-0.5-0.5-0.5
		c-0.5,0-0.9,0.3-1.2,0.8s-0.5,1.2-0.5,2.1c0,0.5,0.1,0.9,0.3,1.2c0.1,0.2,0.3,0.3,0.6,0.3c0.3,0,0.6-0.1,0.8-0.2s0.5-0.4,0.8-0.7
		c0.1,0,0.1,0,0.2,0.1s0.1,0.1,0.1,0.1c-0.2,0.3-0.4,0.5-0.6,0.7s-0.5,0.4-0.8,0.5S360.7,192,360.4,192z"/>
	<path d="M364.7,191c0,0.1,0,0.1-0.1,0.3c0,0.1,0,0.2-0.1,0.3s0,0.1-0.1,0.2s-0.1,0.1-0.1,0.2s-0.1,0-0.2,0c-0.3,0-0.5-0.1-0.5-0.3
		c0,0,0.1-0.2,0.2-0.7l1.3-5.9c0.1-0.2,0.1-0.4,0.1-0.6c0-0.2-0.1-0.3-0.3-0.3l-0.4,0c0,0-0.1,0-0.1-0.1l0-0.3
		c0.7,0,1.3-0.2,1.7-0.3c0.1,0,0.1,0,0.1,0.1c-0.1,0.3-0.2,0.7-0.3,1.3l-0.7,3.3c0.5-0.6,0.9-1,1.3-1.2s0.7-0.3,1-0.3
		c0.5,0,0.8,0.3,0.8,1c0,0.2-0.1,0.5-0.2,0.9l-0.5,1.9c-0.1,0.4-0.1,0.6-0.1,0.7c0,0.1,0,0.2,0.1,0.2c0.1,0,0.2-0.1,0.3-0.2
		s0.3-0.3,0.5-0.4c0.1,0,0.2,0.1,0.3,0.2c-0.6,0.7-1.1,1.1-1.7,1.1c-0.3,0-0.5-0.1-0.5-0.4c0-0.2,0.1-0.6,0.2-1.1l0.4-1.9
		c0.1-0.3,0.1-0.6,0.1-0.8c0-0.2,0-0.3-0.1-0.4s-0.2-0.1-0.3-0.1c-0.2,0-0.5,0.2-0.8,0.5c-0.4,0.3-0.7,0.7-1.1,1.2L364.7,191z"/>
	<path d="M374,190.4c-0.1,0.4-0.1,0.6-0.1,0.7c0,0.1,0,0.2,0.1,0.2c0.1,0,0.2-0.1,0.3-0.2s0.3-0.3,0.5-0.4c0.1,0,0.2,0.1,0.3,0.2
		c-0.6,0.7-1.2,1.1-1.7,1.1c-0.3,0-0.5-0.1-0.5-0.4c0-0.2,0.1-0.6,0.2-1.1l0.5-1.9c0.1-0.4,0.2-0.7,0.2-0.8c0-0.2,0-0.3-0.1-0.3
		s-0.2-0.1-0.3-0.1c-0.4,0-1,0.6-1.8,1.7l-0.4,2c0,0.1,0,0.1-0.1,0.3c0,0.1,0,0.2-0.1,0.3s0,0.1-0.1,0.2s-0.1,0.1-0.1,0.2
		c-0.1,0-0.1,0-0.2,0c-0.3,0-0.5-0.1-0.5-0.3c0,0,0-0.2,0.1-0.7l0.7-3c0.1-0.3,0.1-0.5,0.1-0.6c0-0.1-0.1-0.2-0.2-0.2l-0.5,0
		c-0.1-0.1-0.1-0.2,0-0.3c0.8-0.1,1.3-0.2,1.5-0.2c0.2,0,0.2,0.1,0.2,0.3c0,0.1,0,0.1,0,0.3c0,0.1-0.1,0.3-0.1,0.5s-0.1,0.3-0.1,0.4
		l0,0.1l0,0c0.5-0.6,0.9-1,1.3-1.2s0.6-0.3,1-0.3c0.5,0,0.8,0.3,0.8,1c0,0.2,0,0.5-0.1,0.9L374,190.4z"/>
	<path d="M377,189.5c0,0.1,0,0.2,0,0.4c0,0.5,0.1,0.9,0.2,1.1s0.4,0.3,0.7,0.3s0.5-0.1,0.7-0.2s0.5-0.3,0.8-0.7
		c0.1,0,0.2,0.1,0.3,0.2c-0.7,0.9-1.4,1.3-2.2,1.3c-0.5,0-0.8-0.2-1.1-0.5s-0.4-0.8-0.4-1.3c0-0.3,0-0.6,0.1-1s0.2-0.6,0.3-1
		s0.3-0.6,0.6-0.8s0.5-0.4,0.8-0.6s0.7-0.2,1.1-0.2c0.4,0,0.7,0.1,0.9,0.3s0.3,0.4,0.3,0.6c0,0.1,0,0.2,0,0.2s0,0.1-0.1,0.3
		s-0.1,0.2-0.2,0.3s-0.2,0.2-0.3,0.3s-0.3,0.2-0.5,0.3s-0.5,0.2-0.8,0.3S377.4,189.4,377,189.5z M379.3,187.4c0-0.2,0-0.3-0.1-0.4
		s-0.2-0.1-0.5-0.1c-0.7,0-1.2,0.7-1.6,2.1c0.3,0,0.5-0.1,0.7-0.1s0.5-0.2,0.7-0.3s0.4-0.3,0.5-0.5S379.3,187.7,379.3,187.4z"/>
	<path d="M382.5,188.4L382.5,188.4c0.3-0.6,0.6-1,0.9-1.4s0.6-0.5,0.9-0.5c0.2,0,0.4,0.1,0.5,0.2s0.2,0.2,0.2,0.4
		c0,0.2-0.1,0.3-0.2,0.5s-0.2,0.2-0.4,0.2c-0.1,0-0.3-0.1-0.4-0.3c-0.1-0.1-0.2-0.1-0.3-0.1c-0.2,0-0.7,0.7-1.6,2.2l-0.3,1.4
		c0,0.1,0,0.2-0.1,0.3c0,0.1,0,0.2-0.1,0.3c0,0.1,0,0.1-0.1,0.2s-0.1,0.1-0.1,0.1c-0.1,0-0.1,0-0.2,0c-0.3,0-0.5-0.1-0.5-0.3
		c0-0.1,0-0.1,0-0.2c0-0.1,0-0.2,0.1-0.3c0-0.1,0-0.2,0.1-0.2l0.7-3.1c0.1-0.2,0.1-0.4,0.1-0.5c0-0.1-0.1-0.2-0.2-0.2l-0.5,0
		c-0.1-0.1-0.1-0.2,0-0.3c0.8-0.1,1.3-0.2,1.4-0.2c0.2,0,0.3,0.1,0.3,0.3c0,0,0,0.1,0,0.1s0,0.1,0,0.1s0,0.1,0,0.1s0,0.1,0,0.2
		c0,0.1,0,0.1,0,0.2c0,0,0,0.1,0,0.2s0,0.2,0,0.2L382.5,188.4z"/>
</g>
<polyline class="st0" points="265.7,171.2 151.9,171.2 151.9,99.8 "/>
<g>
	<path d="M239.9,165.5c-0.1-0.1-0.1-0.1-0.1-0.2s0-0.1,0.1-0.2c0.1-0.1,0.1-0.1,0.2-0.1c0.1,0,0.1,0,0.2,0.1
		c0.1,0.1,0.1,0.1,0.1,0.2s0,0.1-0.1,0.2s-0.1,0.1-0.2,0.1C240,165.6,240,165.6,239.9,165.5z M239.9,167.3c0-0.5,0-0.9,0-1.1l0,0
		c0.2,0,0.3,0,0.5,0c0,0,0,0,0,0s0,0,0,0c0,0.3,0,0.6-0.1,1v0.4c0,0.4,0,0.7,0.1,1l0,0c-0.1,0-0.2,0-0.3,0s-0.2,0-0.3,0l0,0
		c0-0.2,0-0.6,0-1V167.3z"/>
	<path d="M243.4,167.6c0,0.4,0,0.8,0.1,1l0,0c-0.1,0-0.2,0-0.3,0c-0.1,0-0.2,0-0.3,0l0,0c0-0.2,0-0.6,0-1v-0.5c0-0.2,0-0.4-0.1-0.4
		s-0.2-0.1-0.3-0.1c-0.1,0-0.2,0-0.4,0.1c-0.1,0.1-0.3,0.2-0.4,0.3v0.6c0,0.4,0,0.8,0,1l0,0c-0.1,0-0.2,0-0.3,0c-0.1,0-0.2,0-0.3,0
		l0,0c0-0.2,0-0.6,0-1v-0.3c0-0.5,0-0.9,0-1.1l0,0c0.2,0,0.3,0,0.4,0c0,0,0,0,0,0.1v0.4l0,0c0.3-0.3,0.6-0.5,1-0.5
		c0.2,0,0.4,0.1,0.5,0.2s0.2,0.4,0.2,0.7c0,0.1,0,0.2,0,0.3C243.4,167.5,243.4,167.6,243.4,167.6z"/>
	<path d="M244.3,166.3c0-0.1,0-0.2,0-0.4c0-0.1,0-0.3,0-0.3l0,0c0.1,0,0.1,0,0.2,0c0,0,0.1,0,0.1-0.1s0.1,0,0.1-0.1
		c0,0,0.1,0,0.1,0.1c0,0.2,0,0.5,0,0.8h0.3c0.1,0,0.2,0,0.4,0l0,0c0,0.1-0.1,0.1-0.1,0.2c-0.1,0-0.2,0-0.4,0h-0.2v0.7
		c0,0.1,0,0.3,0,0.4c0,0.2,0,0.3,0,0.3c0,0.3,0.1,0.4,0.2,0.5c0.1,0,0.3,0,0.4,0l0.1,0.1c-0.2,0.1-0.4,0.2-0.6,0.2
		c-0.1,0-0.2,0-0.3-0.1c-0.1-0.1-0.1-0.2-0.1-0.4c0,0,0-0.2,0-0.4c0-0.2,0-0.4,0-0.5v-0.8c-0.2,0-0.3,0-0.4,0l0,0
		c0.1-0.1,0.1-0.1,0.1-0.2C244.1,166.3,244.2,166.3,244.3,166.3z"/>
	<path d="M247.8,168.1l0.1,0.1c-0.1,0.1-0.2,0.3-0.4,0.4c-0.2,0.1-0.3,0.1-0.5,0.1c-0.4,0-0.7-0.1-0.8-0.4c-0.2-0.2-0.2-0.5-0.2-0.8
		c0-0.4,0.1-0.7,0.3-0.9c0.2-0.2,0.5-0.3,0.8-0.3c0.3,0,0.5,0.1,0.7,0.3c0.1,0.2,0.2,0.5,0.2,0.7c0,0.1,0,0.1-0.1,0.1h-1.5
		c0,0.3,0,0.6,0.1,0.7c0.1,0.2,0.3,0.3,0.6,0.3C247.4,168.4,247.6,168.3,247.8,168.1z M246.3,167.1h1c0.1,0,0.1,0,0.1-0.1
		c0-0.2,0-0.3-0.1-0.4c-0.1-0.1-0.2-0.2-0.3-0.2c0,0-0.1,0-0.1,0c-0.1,0-0.1,0-0.2,0.1s-0.1,0.1-0.2,0.2
		C246.4,166.9,246.4,167,246.3,167.1z"/>
	<path d="M250.8,167.6c0,0.4,0,0.8,0.1,1l0,0c-0.1,0-0.2,0-0.3,0c-0.1,0-0.2,0-0.3,0l0,0c0-0.2,0-0.6,0-1v-0.5c0-0.2,0-0.4-0.1-0.4
		s-0.2-0.1-0.3-0.1c-0.1,0-0.2,0-0.4,0.1c-0.1,0.1-0.3,0.2-0.4,0.3v0.6c0,0.4,0,0.8,0,1l0,0c-0.1,0-0.2,0-0.3,0c-0.1,0-0.2,0-0.3,0
		l0,0c0-0.2,0-0.6,0-1v-0.3c0-0.5,0-0.9,0-1.1l0,0c0.2,0,0.3,0,0.4,0c0,0,0,0,0,0.1v0.4l0,0c0.3-0.3,0.6-0.5,1-0.5
		c0.2,0,0.4,0.1,0.5,0.2s0.2,0.4,0.2,0.7c0,0.1,0,0.2,0,0.3C250.8,167.5,250.8,167.6,250.8,167.6z"/>
	<path d="M251.5,168.1L251.5,168.1c0.3,0.3,0.5,0.4,0.7,0.4c0.2,0,0.3,0,0.4-0.1c0.1-0.1,0.1-0.2,0.1-0.3c0-0.1,0-0.2-0.1-0.3
		s-0.2-0.1-0.4-0.2c-0.2-0.1-0.4-0.1-0.5-0.2c-0.1-0.1-0.2-0.2-0.2-0.4c0-0.2,0.1-0.4,0.2-0.5c0.2-0.1,0.4-0.2,0.6-0.2
		c0.3,0,0.5,0.1,0.8,0.2l0,0l-0.1,0.4l-0.1,0c-0.1-0.1-0.1-0.1-0.2-0.2c0,0-0.1-0.1-0.2-0.1c-0.1,0-0.2-0.1-0.3-0.1
		c-0.1,0-0.2,0-0.3,0.1s-0.1,0.1-0.1,0.3c0,0.2,0.2,0.3,0.5,0.4c0.2,0.1,0.4,0.1,0.6,0.2c0.1,0.1,0.2,0.3,0.2,0.5c0,0.1,0,0.2,0,0.3
		s-0.1,0.2-0.1,0.2c-0.1,0.1-0.2,0.1-0.3,0.2c-0.1,0-0.3,0.1-0.5,0.1c-0.3,0-0.6-0.1-0.8-0.2L251.5,168.1z"/>
	<path d="M253.9,165.5c-0.1-0.1-0.1-0.1-0.1-0.2s0-0.1,0.1-0.2c0.1-0.1,0.1-0.1,0.2-0.1c0.1,0,0.1,0,0.2,0.1
		c0.1,0.1,0.1,0.1,0.1,0.2s0,0.1-0.1,0.2s-0.1,0.1-0.2,0.1C254.1,165.6,254,165.6,253.9,165.5z M253.9,167.3c0-0.5,0-0.9,0-1.1l0,0
		c0.2,0,0.3,0,0.5,0c0,0,0,0,0,0s0,0,0,0c0,0.3,0,0.6-0.1,1v0.4c0,0.4,0,0.7,0.1,1l0,0c-0.1,0-0.2,0-0.3,0s-0.2,0-0.3,0l0,0
		c0-0.2,0-0.6,0-1V167.3z"/>
	<path d="M255.4,166.3c0-0.1,0-0.2,0-0.4c0-0.1,0-0.3,0-0.3l0,0c0.1,0,0.1,0,0.2,0c0,0,0.1,0,0.1-0.1s0.1,0,0.1-0.1
		c0,0,0.1,0,0.1,0.1c0,0.2,0,0.5,0,0.8h0.3c0.1,0,0.2,0,0.4,0l0,0c0,0.1-0.1,0.1-0.1,0.2c-0.1,0-0.2,0-0.4,0h-0.2v0.7
		c0,0.1,0,0.3,0,0.4c0,0.2,0,0.3,0,0.3c0,0.3,0.1,0.4,0.2,0.5c0.1,0,0.3,0,0.4,0l0.1,0.1c-0.2,0.1-0.4,0.2-0.6,0.2
		c-0.1,0-0.2,0-0.3-0.1c-0.1-0.1-0.1-0.2-0.1-0.4c0,0,0-0.2,0-0.4c0-0.2,0-0.4,0-0.5v-0.8c-0.2,0-0.3,0-0.4,0l0,0
		c0.1-0.1,0.1-0.1,0.1-0.2C255.1,166.3,255.2,166.3,255.4,166.3z"/>
	<path d="M256.9,166.2c0.1,0,0.1,0,0.3,0c0.1,0,0.2,0,0.3,0c0.1,0.4,0.4,1,0.7,1.9h0c0.2-0.5,0.5-1.2,0.7-1.9c0,0,0.1,0,0.2,0
		c0.1,0,0.2,0,0.2,0c-0.2,0.3-0.4,0.9-0.9,1.9s-0.7,1.5-0.8,1.8c-0.1,0-0.2,0-0.3,0c-0.1,0-0.1,0-0.2,0c0.3-0.4,0.5-0.9,0.7-1.3
		C257.9,168.5,257.5,167.7,256.9,166.2z"/>
</g>
<g>
	<path d="M154.1,101.5L154.1,101.5c0.2-0.3,0.5-0.5,0.8-0.5c0.3,0,0.5,0.1,0.7,0.3s0.2,0.5,0.2,0.8c0,0.4-0.1,0.7-0.3,1
		c-0.2,0.3-0.5,0.4-0.8,0.4c-0.2,0-0.4,0-0.6-0.1v0.2c0,0.5,0,0.9,0,1.1l0,0c-0.1,0-0.2,0-0.3,0c-0.1,0-0.2,0-0.3,0l0,0
		c0-0.2,0-0.6,0-1.1v-1.5c0-0.5,0-0.9,0-1.1l0,0c0.2,0,0.3,0,0.4,0c0,0,0,0,0,0.1V101.5z M154.1,101.8v1.2c0.1,0.2,0.3,0.2,0.5,0.3
		c0.1,0,0.3,0,0.4-0.1c0.1-0.1,0.2-0.1,0.2-0.3c0-0.1,0.1-0.2,0.1-0.3c0-0.1,0-0.2,0-0.4c0-0.6-0.2-1-0.6-1c-0.1,0-0.2,0.1-0.4,0.2
		C154.2,101.6,154.1,101.7,154.1,101.8z"/>
	<path d="M157,101.6L157,101.6c0.1-0.2,0.3-0.4,0.4-0.5c0.1-0.1,0.2-0.1,0.4-0.1c0,0,0.1,0,0.2,0l0,0l-0.1,0.4l0,0
		c-0.1-0.1-0.2-0.1-0.3-0.1c-0.1,0-0.2,0.1-0.3,0.2c-0.1,0.2-0.2,0.4-0.2,0.6v0.3c0,0.4,0,0.7,0,1l0,0c-0.1,0-0.2,0-0.3,0
		s-0.2,0-0.3,0l0,0c0-0.2,0-0.6,0-1v-0.3c0-0.5,0-0.9,0-1.1l0,0c0.2,0,0.3,0,0.4,0c0,0,0,0,0,0.1V101.6z"/>
	<path d="M158.3,102.3c0-0.4,0.1-0.7,0.3-1c0.2-0.2,0.5-0.4,0.8-0.4c0.4,0,0.6,0.1,0.8,0.3s0.3,0.5,0.3,0.9c0,0.4-0.1,0.7-0.3,0.9
		c-0.2,0.2-0.5,0.3-0.8,0.3c-0.3,0-0.6-0.1-0.8-0.3C158.4,103,158.3,102.7,158.3,102.3z M159.4,101.3c-0.2,0-0.3,0-0.4,0.1
		c-0.1,0.1-0.2,0.2-0.2,0.4s-0.1,0.3-0.1,0.5c0,0.2,0,0.3,0.1,0.5c0,0.1,0.1,0.3,0.2,0.4c0.1,0.1,0.3,0.2,0.4,0.2
		c0.2,0,0.3-0.1,0.5-0.3c0.1-0.2,0.2-0.4,0.2-0.7c0-0.4,0-0.6-0.1-0.8C159.8,101.4,159.6,101.3,159.4,101.3z"/>
	<path d="M161.7,100.7v0.6c0.2-0.2,0.4-0.3,0.7-0.3c0.3,0,0.5,0.1,0.7,0.3c0.2,0.2,0.3,0.5,0.3,0.8c0,0.4-0.1,0.8-0.4,1
		s-0.5,0.3-0.8,0.3c-0.2,0-0.4-0.1-0.7-0.3c-0.1,0.1-0.1,0.2-0.2,0.3c-0.1,0-0.1,0-0.2,0c0-0.1,0-0.2,0-0.4v-2.3
		c0-0.5,0-0.8-0.1-1.1l0,0c0.2,0,0.3,0,0.5-0.1c0,0,0,0,0,0.1C161.7,99.9,161.7,100.3,161.7,100.7z M161.7,103
		c0.1,0.1,0.1,0.1,0.2,0.2c0.1,0.1,0.2,0.1,0.3,0.1c0.3,0,0.4-0.1,0.6-0.3s0.2-0.4,0.2-0.8c0-0.3-0.1-0.6-0.2-0.7s-0.3-0.2-0.5-0.2
		c-0.1,0-0.2,0-0.3,0.1c-0.1,0-0.2,0.1-0.3,0.3V103z"/>
	<path d="M165.3,103.2L165.3,103.2c-0.2,0.1-0.3,0.2-0.4,0.3c-0.1,0-0.2,0.1-0.4,0.1c-0.2,0-0.4,0-0.5-0.1c-0.1-0.1-0.2-0.2-0.2-0.5
		c0-0.2,0.1-0.4,0.2-0.5c0.2-0.1,0.4-0.2,0.7-0.3l0.5-0.1c0,0,0,0,0-0.1c0-0.1,0-0.2,0-0.3s-0.1-0.2-0.1-0.2c0,0-0.1-0.1-0.1-0.1
		c-0.1,0-0.1,0-0.1,0s-0.1,0-0.1,0c-0.2,0-0.4,0.2-0.6,0.5l-0.1,0l-0.1-0.4l0,0c0.3-0.2,0.5-0.3,0.8-0.3c0.6,0,0.9,0.3,0.9,0.9
		c0,0,0,0.1,0,0.1c0,0.1,0,0.2,0,0.2s0,0.2,0,0.3c0,0.1,0,0.2,0,0.2c0,0.2,0,0.4,0.1,0.4c0,0,0.1,0,0.2,0c0,0,0.1,0,0.1,0l0,0.1
		c-0.1,0.1-0.3,0.2-0.4,0.2c-0.1,0-0.2,0-0.3-0.1C165.4,103.4,165.4,103.3,165.3,103.2z M165.3,102.2l-0.5,0.1
		c-0.2,0.1-0.4,0.1-0.4,0.2s-0.1,0.2-0.1,0.3c0,0.1,0,0.2,0.1,0.2c0.1,0.1,0.2,0.1,0.3,0.1c0.1,0,0.3-0.1,0.5-0.2
		c0.1,0,0.1-0.1,0.1-0.1L165.3,102.2z"/>
	<path d="M167.2,100.7v0.6c0.2-0.2,0.4-0.3,0.7-0.3c0.3,0,0.5,0.1,0.7,0.3c0.2,0.2,0.3,0.5,0.3,0.8c0,0.4-0.1,0.8-0.4,1
		s-0.5,0.3-0.8,0.3c-0.2,0-0.4-0.1-0.7-0.3c-0.1,0.1-0.1,0.2-0.2,0.3c-0.1,0-0.1,0-0.2,0c0-0.1,0-0.2,0-0.4v-2.3
		c0-0.5,0-0.8-0.1-1.1l0,0c0.2,0,0.3,0,0.5-0.1c0,0,0,0,0,0.1C167.2,99.9,167.2,100.3,167.2,100.7z M167.2,103
		c0.1,0.1,0.1,0.1,0.2,0.2c0.1,0.1,0.2,0.1,0.3,0.1c0.3,0,0.4-0.1,0.6-0.3s0.2-0.4,0.2-0.8c0-0.3-0.1-0.6-0.2-0.7s-0.3-0.2-0.5-0.2
		c-0.1,0-0.2,0-0.3,0.1c-0.1,0-0.2,0.1-0.3,0.3V103z"/>
	<path d="M169.6,100.4c-0.1-0.1-0.1-0.1-0.1-0.2s0-0.1,0.1-0.2c0.1-0.1,0.1-0.1,0.2-0.1c0.1,0,0.1,0,0.2,0.1
		c0.1,0.1,0.1,0.1,0.1,0.2s0,0.1-0.1,0.2s-0.1,0.1-0.2,0.1C169.7,100.4,169.7,100.4,169.6,100.4z M169.6,102.2c0-0.5,0-0.9,0-1.1
		l0,0c0.2,0,0.3,0,0.5,0c0,0,0,0,0,0s0,0,0,0c0,0.3,0,0.6-0.1,1v0.4c0,0.4,0,0.7,0.1,1l0,0c-0.1,0-0.2,0-0.3,0s-0.2,0-0.3,0l0,0
		c0-0.2,0-0.6,0-1V102.2z"/>
	<path d="M171,102.4v-1.6c0-0.5,0-0.9,0-1.1l0,0c0.2,0,0.3,0,0.5-0.1c0,0,0,0,0.1,0.1c0,0.4,0,0.8-0.1,1v1.7c0,0.5,0,0.9,0.1,1.1
		l0,0c-0.1,0-0.2,0-0.3,0s-0.2,0-0.3,0l0,0C171,103.2,171,102.9,171,102.4z"/>
	<path d="M172.4,100.4c-0.1-0.1-0.1-0.1-0.1-0.2s0-0.1,0.1-0.2c0.1-0.1,0.1-0.1,0.2-0.1c0.1,0,0.1,0,0.2,0.1
		c0.1,0.1,0.1,0.1,0.1,0.2s0,0.1-0.1,0.2s-0.1,0.1-0.2,0.1C172.6,100.4,172.5,100.4,172.4,100.4z M172.4,102.2c0-0.5,0-0.9,0-1.1
		l0,0c0.2,0,0.3,0,0.5,0c0,0,0,0,0,0s0,0,0,0c0,0.3,0,0.6-0.1,1v0.4c0,0.4,0,0.7,0.1,1l0,0c-0.1,0-0.2,0-0.3,0s-0.2,0-0.3,0l0,0
		c0-0.2,0-0.6,0-1V102.2z"/>
	<path d="M173.9,101.1c0-0.1,0-0.2,0-0.4c0-0.1,0-0.3,0-0.3l0,0c0.1,0,0.1,0,0.2,0c0,0,0.1,0,0.1-0.1s0.1,0,0.1-0.1
		c0,0,0.1,0,0.1,0.1c0,0.2,0,0.5,0,0.8h0.3c0.1,0,0.2,0,0.4,0l0,0c0,0.1-0.1,0.1-0.1,0.2c-0.1,0-0.2,0-0.4,0h-0.2v0.7
		c0,0.1,0,0.3,0,0.4c0,0.2,0,0.3,0,0.3c0,0.3,0.1,0.4,0.2,0.5c0.1,0,0.3,0,0.4,0l0.1,0.1c-0.2,0.1-0.4,0.2-0.6,0.2
		c-0.1,0-0.2,0-0.3-0.1c-0.1-0.1-0.1-0.2-0.1-0.4c0,0,0-0.2,0-0.4c0-0.2,0-0.4,0-0.5v-0.8c-0.2,0-0.3,0-0.4,0l0,0
		c0.1-0.1,0.1-0.1,0.1-0.2C173.6,101.1,173.7,101.1,173.9,101.1z"/>
	<path d="M175.4,101.1c0.1,0,0.1,0,0.3,0c0.1,0,0.2,0,0.3,0c0.1,0.4,0.4,1,0.7,1.9h0c0.2-0.5,0.5-1.2,0.7-1.9c0,0,0.1,0,0.2,0
		c0.1,0,0.2,0,0.2,0c-0.2,0.3-0.4,0.9-0.9,1.9s-0.7,1.5-0.8,1.8c-0.1,0-0.2,0-0.3,0c-0.1,0-0.1,0-0.2,0c0.3-0.4,0.5-0.9,0.7-1.3
		C176.4,103.3,176,102.5,175.4,101.1z"/>
</g>
<path class="st1" d="M151.9,171.2c6.7-1.7,17-5,26.5-11.8c15.9-11.4,15.8-22.6,29-34.7c6.5-5.9,18-13.6,39-18.5"/>
<path class="st2" d="M193.3,67.5L190,46.2c-0.2-1.1-1.2-1.9-2.3-1.9h-7.7c0.1-0.5,0.2-1.1,0.2-1.6c0-4.2-3.4-7.7-7.7-7.7
	s-7.7,3.4-7.7,7.7c0,0.6,0.1,1.1,0.2,1.6h-7.7c-1.1,0-2.1,0.9-2.3,1.9l-3.3,21.3c-0.1,0.6,0.1,1.1,0.4,1.5c0.3,0.4,0.8,0.6,1.4,0.6
	h37.8c0.6,0,1.1-0.2,1.4-0.6C193.2,68.6,193.4,68.1,193.3,67.5z M172.6,38c2.5,0,4.6,2.1,4.6,4.6c0,2.5-2.1,4.6-4.6,4.6
	c-2.5,0-4.6-2.1-4.6-4.6C168,40.1,170.1,38,172.6,38z"/>
<path class="st3" d="M266.9,67.4l-3.4-21.9c-0.2-1.1-1.2-2-2.3-2h-7.9c0.1-0.5,0.2-1.1,0.2-1.7c0-4.4-3.5-7.9-7.9-7.9
	c-4.4,0-7.9,3.5-7.9,7.9c0,0.6,0.1,1.1,0.2,1.7H230c-1.1,0-2.2,0.9-2.3,2l-3.4,21.9c-0.1,0.6,0.1,1.1,0.4,1.5
	c0.4,0.4,0.9,0.6,1.4,0.6H265c0.6,0,1.1-0.2,1.4-0.6C266.8,68.5,267,68,266.9,67.4z M245.6,37.1c2.6,0,4.8,2.1,4.8,4.8
	c0,2.6-2.1,4.8-4.8,4.8c-2.6,0-4.8-2.1-4.8-4.8C240.8,39.2,243,37.1,245.6,37.1z"/>
<g>
	<path d="M206.3,56.5l-3.8-1.4v-0.6l4.6,1.7v0.6l-4.6,1.7v-0.6L206.3,56.5z"/>
	<path d="M212.2,56.5l3.8,1.4v0.6l-4.6-1.7v-0.6l4.6-1.7v0.6L212.2,56.5z"/>
</g>
<g>
	<path d="M209.3,40.8c-0.5,0-1,0.4-1.5,1.1l-0.2,0l-0.2-0.8l0-0.1c0.6-0.5,1.2-0.8,1.9-0.8c0.6,0,1.1,0.2,1.5,0.5s0.6,0.8,0.6,1.3
		c0,0.3-0.1,0.6-0.2,0.8c-0.2,0.3-0.3,0.4-0.5,0.6c-0.2,0.1-0.4,0.3-0.6,0.5c-0.3,0.2-0.5,0.4-0.6,0.6c-0.1,0.3-0.2,0.6-0.2,0.9V46
		c0,0.1-0.1,0.1-0.2,0.1c-0.1,0-0.2,0-0.2-0.1v-0.5c0-0.2,0-0.4,0-0.6c0-0.2,0.1-0.4,0.2-0.6c0.1-0.3,0.3-0.5,0.5-0.7
		c0.3-0.2,0.5-0.5,0.6-0.6c0.1-0.2,0.2-0.4,0.2-0.7c0-0.4-0.1-0.7-0.3-1S209.6,40.8,209.3,40.8z M208.5,47.7L208.5,47.7
		c0.1-0.3,0.3-0.6,0.6-0.7h0c0.3,0.1,0.5,0.3,0.5,0.6v0c-0.1,0.3-0.3,0.6-0.5,0.6h0c-0.2,0-0.3-0.1-0.4-0.2
		C208.6,48,208.5,47.9,208.5,47.7z"/>
</g>
<g>
	<path d="M168.3,76.7c-0.2,0-0.3,0-0.4,0.1c0,0-0.1,0.1-0.1,0.1c0,0,0,0.1-0.1,0.1c0,0,0,0.1-0.1,0.1s0,0.1,0,0.1l-0.1,0l-0.1-0.4
		c0.1-0.1,0.1-0.1,0.2-0.2s0.2-0.1,0.3-0.2c0.1-0.1,0.3-0.1,0.4-0.1c0.2,0,0.4,0,0.5,0.1c0.1,0.1,0.2,0.2,0.3,0.3
		c0.1,0.1,0.1,0.3,0.1,0.5c0,0.3-0.1,0.6-0.4,0.9c-0.1,0.2-0.2,0.3-0.3,0.4c-0.1,0.1-0.2,0.2-0.3,0.3c-0.1,0.1-0.2,0.2-0.3,0.3
		c-0.1,0.1-0.1,0.1-0.1,0.2c0,0,0,0,0,0c0,0,0,0,0,0c0.1,0,0.3,0,0.5,0c0.3,0,0.7,0,1,0c0,0.1,0,0.2,0,0.3c0,0,0,0.1,0,0.2
		c-0.4,0-0.7,0-0.9,0c0,0-0.4,0-1.1,0c0-0.1-0.1-0.1-0.1-0.2c0,0,0-0.1,0-0.1c0,0,0.1-0.1,0.2-0.2c0.1-0.1,0.2-0.2,0.3-0.3
		c0.1-0.1,0.2-0.2,0.3-0.3s0.2-0.2,0.3-0.3c0.1-0.1,0.2-0.2,0.3-0.3c0.1-0.2,0.2-0.5,0.2-0.7c0-0.2-0.1-0.3-0.2-0.5
		C168.6,76.8,168.5,76.7,168.3,76.7z"/>
	<path d="M170.7,78.5c-0.1,0.3-0.2,0.5-0.3,0.7c-0.1,0.2-0.1,0.4-0.2,0.6c0,0-0.1,0-0.2,0c-0.1,0-0.1,0-0.2,0
		c0.6-1.4,1.2-2.6,1.6-3.7h0.2c0.1,0.3,0.3,0.7,0.5,1.3c0.2,0.6,0.4,1.1,0.6,1.5c0.2,0.4,0.3,0.7,0.4,0.9c-0.1,0-0.2,0-0.3,0
		c-0.1,0-0.2,0-0.3,0c0,0,0-0.1,0-0.1c0,0,0-0.1,0-0.1c0-0.1,0-0.1-0.1-0.2c0-0.1,0-0.2-0.1-0.2c0-0.1-0.1-0.2-0.1-0.3
		c0-0.1-0.1-0.2-0.1-0.3c-0.1,0-0.2,0-0.3,0c-0.1,0-0.2,0-0.3,0C171.2,78.5,170.9,78.5,170.7,78.5z M171.9,78.3
		c-0.1-0.2-0.2-0.4-0.3-0.7c-0.1-0.2-0.2-0.5-0.3-0.7h0l-0.6,1.4c0,0,0.1,0,0.3,0s0.2,0,0.3,0C171.5,78.3,171.7,78.3,171.9,78.3z"/>
	<path d="M175.4,76.2c0.1,0,0.3,0,0.3,0l0,0c0,0.1,0,0.2,0,0.2c0,0.1,0,0.1,0,0.2l0,0c-0.5,0-1-0.1-1.5-0.1c0,0.1,0,0.4,0,0.8v0.4
		c0.4,0,0.8,0,1.2-0.1l0,0c0,0.1,0,0.1,0,0.2c0,0.1,0,0.1,0,0.2l0,0c-0.4,0-0.8-0.1-1.2-0.1v0.6c0,0.5,0,0.8,0.1,1.1l0,0
		c-0.1,0-0.2,0-0.3,0l-0.3,0l0,0c0-0.3,0.1-0.6,0.1-1.1v-1.4c0-0.5,0-0.8-0.1-1.1l0,0c0.1,0,0.1,0,0.3,0H175.4z"/>
	<path d="M178.1,76.1c0.2,0,0.4,0,0.6,0.1c0.2,0,0.4,0.1,0.5,0.1l0.2,0.1l0,0c-0.1,0.3-0.1,0.5-0.1,0.6l-0.1,0
		c-0.2-0.4-0.6-0.6-1.1-0.6c-0.1,0-0.2,0-0.4,0.1c-0.1,0.1-0.3,0.1-0.4,0.3c-0.1,0.1-0.2,0.3-0.3,0.5s-0.1,0.4-0.1,0.7
		c0,0.3,0,0.5,0.1,0.8c0.1,0.2,0.2,0.4,0.4,0.6c0.2,0.2,0.4,0.2,0.7,0.2c0.3,0,0.5,0,0.6-0.1c0.2-0.1,0.4-0.2,0.6-0.5l0.1,0.1
		c-0.4,0.5-0.8,0.8-1.4,0.8c-0.4,0-0.7-0.1-1-0.3c-0.3-0.2-0.5-0.4-0.6-0.7c-0.1-0.3-0.2-0.6-0.2-0.9c0-0.5,0.2-1,0.6-1.3
		C177.2,76.3,177.6,76.1,178.1,76.1z"/>
	<path d="M183.7,78v0.3h-2.2V78H183.7z M183.7,78.7V79h-2.2v-0.3H183.7z"/>
	<path d="M185.9,77.4c0-0.1,0-0.2,0-0.4c0-0.1,0-0.3,0-0.3l0,0c0.1,0,0.1,0,0.2,0s0.1,0,0.1-0.1s0.1,0,0.1-0.1c0,0,0.1,0,0.1,0.1
		c0,0.2,0,0.5,0,0.8h0.3c0.1,0,0.2,0,0.4,0l0,0c0,0.1-0.1,0.1-0.1,0.2c-0.1,0-0.2,0-0.4,0h-0.2v0.7c0,0.1,0,0.3,0,0.4
		c0,0.2,0,0.3,0,0.3c0,0.3,0.1,0.4,0.2,0.5c0.1,0,0.3,0,0.4,0l0.1,0.1c-0.2,0.1-0.4,0.2-0.6,0.2c-0.1,0-0.2,0-0.3-0.1
		c-0.1-0.1-0.1-0.2-0.1-0.4c0,0,0-0.2,0-0.4c0-0.2,0-0.4,0-0.5v-0.8c-0.2,0-0.3,0-0.4,0l0,0c0.1-0.1,0.1-0.1,0.1-0.2
		C185.7,77.4,185.8,77.4,185.9,77.4z"/>
	<path d="M188.4,79.8c-0.4-0.9-0.7-1.7-1-2.4c0.1,0,0.2,0,0.3,0c0.1,0,0.2,0,0.3,0c0,0,0,0.1,0.1,0.3s0.1,0.3,0.1,0.3
		c0,0.1,0,0.2,0.1,0.3c0,0.1,0.1,0.3,0.1,0.3c0,0.1,0.1,0.2,0.1,0.3c0,0.1,0.1,0.2,0.1,0.3h0c0.1-0.2,0.3-0.7,0.5-1.2
		c-0.1-0.3-0.2-0.5-0.2-0.7c0.1,0,0.2,0,0.3,0c0.1,0,0.2,0,0.3,0c0.2,0.8,0.3,1.4,0.5,1.9h0c0.2-0.5,0.4-1.1,0.7-1.9
		c0,0,0.1,0,0.2,0c0.1,0,0.2,0,0.2,0c-0.2,0.5-0.6,1.3-1,2.4c0,0-0.1,0-0.2,0c-0.1,0-0.1,0-0.1,0c-0.1-0.2-0.1-0.4-0.2-0.7
		s-0.2-0.5-0.2-0.7c-0.1,0.3-0.3,0.7-0.5,1.3c0,0-0.1,0-0.2,0C188.5,79.8,188.4,79.8,188.4,79.8z"/>
	<path d="M191.5,78.7c0-0.4,0.1-0.7,0.3-1s0.5-0.4,0.8-0.4c0.4,0,0.6,0.1,0.8,0.3c0.2,0.2,0.3,0.5,0.3,0.9c0,0.4-0.1,0.7-0.3,0.9
		c-0.2,0.2-0.5,0.3-0.8,0.3c-0.3,0-0.6-0.1-0.8-0.3C191.6,79.3,191.5,79,191.5,78.7z M192.6,77.6c-0.2,0-0.3,0-0.4,0.1
		c-0.1,0.1-0.2,0.2-0.2,0.4s-0.1,0.3-0.1,0.5c0,0.2,0,0.3,0.1,0.5s0.1,0.3,0.2,0.4c0.1,0.1,0.3,0.2,0.4,0.2c0.2,0,0.3-0.1,0.5-0.3
		c0.1-0.2,0.2-0.4,0.2-0.7c0-0.4,0-0.6-0.1-0.8C193.1,77.7,192.9,77.6,192.6,77.6z"/>
	<path d="M197.2,79.5L197.2,79.5c-0.2,0.1-0.3,0.2-0.4,0.3c-0.1,0-0.2,0.1-0.4,0.1c-0.2,0-0.4,0-0.5-0.1s-0.2-0.2-0.2-0.5
		c0-0.2,0.1-0.4,0.2-0.5s0.4-0.2,0.7-0.3l0.5-0.1c0,0,0,0,0-0.1c0-0.1,0-0.2,0-0.3c0-0.1-0.1-0.2-0.1-0.2c0,0-0.1-0.1-0.1-0.1
		c-0.1,0-0.1,0-0.1,0c0,0-0.1,0-0.1,0c-0.2,0-0.4,0.2-0.6,0.5l-0.1,0l-0.1-0.4l0,0c0.3-0.2,0.5-0.3,0.8-0.3c0.6,0,0.9,0.3,0.9,0.9
		c0,0,0,0.1,0,0.1s0,0.2,0,0.2s0,0.2,0,0.3c0,0.1,0,0.2,0,0.2c0,0.2,0,0.4,0.1,0.4c0,0,0.1,0,0.2,0c0,0,0.1,0,0.1,0l0,0.1
		c-0.1,0.1-0.3,0.2-0.4,0.2c-0.1,0-0.2,0-0.3-0.1C197.2,79.7,197.2,79.6,197.2,79.5z M197.2,78.5l-0.5,0.1c-0.2,0.1-0.4,0.1-0.4,0.2
		c-0.1,0.1-0.1,0.2-0.1,0.3c0,0.1,0,0.2,0.1,0.2c0.1,0.1,0.2,0.1,0.3,0.1c0.1,0,0.3-0.1,0.5-0.2c0.1,0,0.1-0.1,0.1-0.1L197.2,78.5z"
		/>
	<path d="M198.6,78.7v-1.6c0-0.5,0-0.9,0-1.1l0,0c0.2,0,0.3,0,0.5-0.1c0,0,0,0,0.1,0.1c0,0.4,0,0.8-0.1,1v1.7c0,0.5,0,0.9,0.1,1.1
		l0,0c-0.1,0-0.2,0-0.3,0s-0.2,0-0.3,0l0,0C198.6,79.6,198.6,79.2,198.6,78.7z"/>
	<path d="M200,77.4c0-0.1,0-0.2,0-0.4c0-0.1,0-0.3,0-0.3l0,0c0.1,0,0.1,0,0.2,0s0.1,0,0.1-0.1s0.1,0,0.1-0.1c0,0,0.1,0,0.1,0.1
		c0,0.2,0,0.5,0,0.8h0.3c0.1,0,0.2,0,0.4,0l0,0c0,0.1-0.1,0.1-0.1,0.2c-0.1,0-0.2,0-0.4,0h-0.2v0.7c0,0.1,0,0.3,0,0.4
		c0,0.2,0,0.3,0,0.3c0,0.3,0.1,0.4,0.2,0.5c0.1,0,0.3,0,0.4,0l0.1,0.1c-0.2,0.1-0.4,0.2-0.6,0.2c-0.1,0-0.2,0-0.3-0.1
		c-0.1-0.1-0.1-0.2-0.1-0.4c0,0,0-0.2,0-0.4c0-0.2,0-0.4,0-0.5v-0.8c-0.2,0-0.3,0-0.4,0l0,0c0.1-0.1,0.1-0.1,0.1-0.2
		C199.8,77.4,199.9,77.4,200,77.4z"/>
	<path d="M203.5,79.2l0.1,0.1c-0.1,0.1-0.2,0.3-0.4,0.4c-0.2,0.1-0.3,0.1-0.5,0.1c-0.4,0-0.7-0.1-0.8-0.4c-0.2-0.2-0.2-0.5-0.2-0.8
		c0-0.4,0.1-0.7,0.3-0.9c0.2-0.2,0.5-0.3,0.8-0.3c0.3,0,0.5,0.1,0.7,0.3c0.1,0.2,0.2,0.5,0.2,0.7c0,0.1,0,0.1-0.1,0.1H202
		c0,0.3,0,0.6,0.1,0.7c0.1,0.2,0.3,0.3,0.6,0.3C203.1,79.5,203.3,79.4,203.5,79.2z M202,78.3h1c0.1,0,0.1,0,0.1-0.1
		c0-0.2,0-0.3-0.1-0.4c-0.1-0.1-0.2-0.2-0.3-0.2c0,0-0.1,0-0.1,0c-0.1,0-0.1,0-0.2,0.1s-0.1,0.1-0.2,0.2
		C202.1,78,202.1,78.1,202,78.3z"/>
	<path d="M204.8,77.9L204.8,77.9c0.1-0.2,0.3-0.4,0.4-0.5c0.1-0.1,0.2-0.1,0.4-0.1c0,0,0.1,0,0.2,0l0,0l-0.1,0.4l0,0
		c-0.1-0.1-0.2-0.1-0.3-0.1c-0.1,0-0.2,0.1-0.3,0.2c-0.1,0.2-0.2,0.4-0.2,0.5v0.3c0,0.4,0,0.7,0,1l0,0c-0.1,0-0.2,0-0.3,0
		s-0.2,0-0.3,0l0,0c0-0.2,0-0.6,0-1v-0.3c0-0.5,0-0.9,0-1.1l0,0c0.2,0,0.3,0,0.4,0c0,0,0,0,0,0.1V77.9z"/>
	<path d="M208.4,78.8c0,0.4,0,0.8,0.1,1l0,0c-0.1,0-0.2,0-0.3,0c-0.1,0-0.2,0-0.3,0l0,0c0-0.2,0-0.6,0-1v-0.5c0-0.2,0-0.4-0.1-0.4
		c-0.1-0.1-0.2-0.1-0.3-0.1c-0.1,0-0.2,0-0.4,0.1c-0.1,0.1-0.3,0.2-0.4,0.3v0.6c0,0.4,0,0.8,0,1l0,0c-0.1,0-0.2,0-0.3,0
		c-0.1,0-0.2,0-0.3,0l0,0c0-0.2,0-0.6,0-1v-0.3c0-0.5,0-0.9,0-1.1l0,0c0.2,0,0.3,0,0.4,0c0,0,0,0,0,0.1v0.4l0,0
		c0.3-0.3,0.6-0.5,1-0.5c0.2,0,0.4,0.1,0.5,0.2s0.2,0.4,0.2,0.7c0,0.1,0,0.2,0,0.3C208.4,78.6,208.4,78.7,208.4,78.8z"/>
	<path d="M210.6,79.5L210.6,79.5c-0.2,0.1-0.3,0.2-0.4,0.3c-0.1,0-0.2,0.1-0.4,0.1c-0.2,0-0.4,0-0.5-0.1s-0.2-0.2-0.2-0.5
		c0-0.2,0.1-0.4,0.2-0.5s0.4-0.2,0.7-0.3l0.5-0.1c0,0,0,0,0-0.1c0-0.1,0-0.2,0-0.3c0-0.1-0.1-0.2-0.1-0.2c0,0-0.1-0.1-0.1-0.1
		c-0.1,0-0.1,0-0.1,0c0,0-0.1,0-0.1,0c-0.2,0-0.4,0.2-0.6,0.5l-0.1,0l-0.1-0.4l0,0c0.3-0.2,0.5-0.3,0.8-0.3c0.6,0,0.9,0.3,0.9,0.9
		c0,0,0,0.1,0,0.1s0,0.2,0,0.2s0,0.2,0,0.3c0,0.1,0,0.2,0,0.2c0,0.2,0,0.4,0.1,0.4c0,0,0.1,0,0.2,0c0,0,0.1,0,0.1,0l0,0.1
		c-0.1,0.1-0.3,0.2-0.4,0.2c-0.1,0-0.2,0-0.3-0.1C210.7,79.7,210.6,79.6,210.6,79.5z M210.6,78.5l-0.5,0.1c-0.2,0.1-0.4,0.1-0.4,0.2
		c-0.1,0.1-0.1,0.2-0.1,0.3c0,0.1,0,0.2,0.1,0.2c0.1,0.1,0.2,0.1,0.3,0.1c0.1,0,0.3-0.1,0.5-0.2c0.1,0,0.1-0.1,0.1-0.1L210.6,78.5z"
		/>
	<path d="M212.1,77.4c0-0.1,0-0.2,0-0.4c0-0.1,0-0.3,0-0.3l0,0c0.1,0,0.1,0,0.2,0s0.1,0,0.1-0.1s0.1,0,0.1-0.1c0,0,0.1,0,0.1,0.1
		c0,0.2,0,0.5,0,0.8h0.3c0.1,0,0.2,0,0.4,0l0,0c0,0.1-0.1,0.1-0.1,0.2c-0.1,0-0.2,0-0.4,0h-0.2v0.7c0,0.1,0,0.3,0,0.4
		c0,0.2,0,0.3,0,0.3c0,0.3,0.1,0.4,0.2,0.5c0.1,0,0.3,0,0.4,0l0.1,0.1c-0.2,0.1-0.4,0.2-0.6,0.2c-0.1,0-0.2,0-0.3-0.1
		c-0.1-0.1-0.1-0.2-0.1-0.4c0,0,0-0.2,0-0.4c0-0.2,0-0.4,0-0.5v-0.8c-0.2,0-0.3,0-0.4,0l0,0c0.1-0.1,0.1-0.1,0.1-0.2
		C211.8,77.4,211.9,77.4,212.1,77.4z"/>
	<path d="M214,76.7c-0.1-0.1-0.1-0.1-0.1-0.2s0-0.1,0.1-0.2c0.1-0.1,0.1-0.1,0.2-0.1c0.1,0,0.1,0,0.2,0.1c0.1,0.1,0.1,0.1,0.1,0.2
		s0,0.1-0.1,0.2s-0.1,0.1-0.2,0.1C214.1,76.8,214,76.7,214,76.7z M213.9,78.5c0-0.5,0-0.9,0-1.1l0,0c0.2,0,0.3,0,0.5,0c0,0,0,0,0,0
		c0,0,0,0,0,0c0,0.3,0,0.6-0.1,1v0.4c0,0.4,0,0.7,0.1,1l0,0c-0.1,0-0.2,0-0.3,0s-0.2,0-0.3,0l0,0c0-0.2,0-0.6,0-1V78.5z"/>
	<path d="M216,79.8c-0.4-1.1-0.7-1.9-1-2.4c0.1,0,0.2,0,0.3,0c0.1,0,0.2,0,0.3,0c0,0.1,0.1,0.2,0.1,0.4c0.1,0.2,0.1,0.3,0.1,0.4
		c0,0.1,0.1,0.2,0.1,0.4c0.1,0.1,0.1,0.3,0.1,0.4s0.1,0.2,0.2,0.4h0c0.1-0.2,0.2-0.3,0.2-0.6c0.1-0.2,0.2-0.5,0.2-0.7
		c0.1-0.3,0.2-0.5,0.2-0.6c0,0,0.1,0,0.2,0c0.1,0,0.2,0,0.2,0c-0.5,1-0.8,1.8-1,2.4c0,0-0.1,0-0.2,0S216,79.8,216,79.8z"/>
	<path d="M219.5,79.2l0.1,0.1c-0.1,0.1-0.2,0.3-0.4,0.4c-0.2,0.1-0.3,0.1-0.5,0.1c-0.4,0-0.7-0.1-0.8-0.4c-0.2-0.2-0.2-0.5-0.2-0.8
		c0-0.4,0.1-0.7,0.3-0.9c0.2-0.2,0.5-0.3,0.8-0.3c0.3,0,0.5,0.1,0.7,0.3c0.1,0.2,0.2,0.5,0.2,0.7c0,0.1,0,0.1-0.1,0.1H218
		c0,0.3,0,0.6,0.1,0.7c0.1,0.2,0.3,0.3,0.6,0.3C219.1,79.5,219.3,79.4,219.5,79.2z M218,78.3h1c0.1,0,0.1,0,0.1-0.1
		c0-0.2,0-0.3-0.1-0.4c-0.1-0.1-0.2-0.2-0.3-0.2c0,0-0.1,0-0.1,0c-0.1,0-0.1,0-0.2,0.1s-0.1,0.1-0.2,0.2
		C218.1,78,218.1,78.1,218,78.3z"/>
	<path d="M221.8,77.4v-0.2c0-0.3,0.1-0.6,0.3-0.9c0.1-0.1,0.2-0.2,0.4-0.3c0.2-0.1,0.3-0.1,0.5-0.1c0.1,0,0.2,0,0.2,0.1l0,0
		c-0.1,0.1-0.1,0.3-0.2,0.5l-0.1,0c-0.1-0.1-0.2-0.2-0.3-0.2c-0.2,0-0.3,0-0.4,0.1c-0.1,0.1-0.1,0.2-0.1,0.4c0,0,0,0.1,0,0.3
		s0,0.3,0,0.3v0h0.2c0.1,0,0.2,0,0.4,0l0,0c0,0.1-0.1,0.1-0.1,0.2c-0.1,0-0.2,0-0.4,0h-0.2v1c0,0.5,0,0.9,0.1,1.1l0,0
		c-0.1,0-0.2,0-0.3,0c-0.1,0-0.2,0-0.3,0l0,0c0-0.2,0.1-0.6,0.1-1.1v-1h0c-0.2,0-0.3,0-0.4,0l0,0c0.1-0.1,0.1-0.2,0.1-0.2
		C221.6,77.4,221.7,77.4,221.8,77.4z"/>
	<path d="M223.3,78.7c0-0.4,0.1-0.7,0.3-1s0.5-0.4,0.8-0.4c0.4,0,0.6,0.1,0.8,0.3c0.2,0.2,0.3,0.5,0.3,0.9c0,0.4-0.1,0.7-0.3,0.9
		c-0.2,0.2-0.5,0.3-0.8,0.3c-0.3,0-0.6-0.1-0.8-0.3C223.4,79.3,223.3,79,223.3,78.7z M224.4,77.6c-0.2,0-0.3,0-0.4,0.1
		c-0.1,0.1-0.2,0.2-0.2,0.4s-0.1,0.3-0.1,0.5c0,0.2,0,0.3,0.1,0.5s0.1,0.3,0.2,0.4c0.1,0.1,0.3,0.2,0.4,0.2c0.2,0,0.3-0.1,0.5-0.3
		c0.1-0.2,0.2-0.4,0.2-0.7c0-0.4,0-0.6-0.1-0.8C224.8,77.7,224.6,77.6,224.4,77.6z"/>
	<path d="M226.7,77.9L226.7,77.9c0.1-0.2,0.3-0.4,0.4-0.5c0.1-0.1,0.2-0.1,0.4-0.1c0,0,0.1,0,0.2,0l0,0l-0.1,0.4l0,0
		c-0.1-0.1-0.2-0.1-0.3-0.1c-0.1,0-0.2,0.1-0.3,0.2c-0.1,0.2-0.2,0.4-0.2,0.5v0.3c0,0.4,0,0.7,0,1l0,0c-0.1,0-0.2,0-0.3,0
		s-0.2,0-0.3,0l0,0c0-0.2,0-0.6,0-1v-0.3c0-0.5,0-0.9,0-1.1l0,0c0.2,0,0.3,0,0.4,0c0,0,0,0,0,0.1V77.9z"/>
	<path d="M229.1,77.6c-0.2,0-0.4,0.1-0.5,0.3c-0.1,0.2-0.2,0.4-0.2,0.7c0,0.3,0.1,0.6,0.2,0.7c0.1,0.2,0.3,0.3,0.5,0.3
		c0.2,0,0.4-0.1,0.6-0.2h0l0.1,0.1c-0.2,0.3-0.5,0.4-0.8,0.4c-0.3,0-0.6-0.1-0.8-0.3S228,79,228,78.6c0-0.4,0.1-0.7,0.3-0.9
		c0.2-0.2,0.5-0.3,0.8-0.3c0.3,0,0.5,0.1,0.7,0.2l0,0l-0.1,0.5l-0.1,0C229.5,77.7,229.3,77.6,229.1,77.6z"/>
	<path d="M232.3,79.2l0.1,0.1c-0.1,0.1-0.2,0.3-0.4,0.4c-0.2,0.1-0.3,0.1-0.5,0.1c-0.4,0-0.7-0.1-0.8-0.4c-0.2-0.2-0.2-0.5-0.2-0.8
		c0-0.4,0.1-0.7,0.3-0.9c0.2-0.2,0.5-0.3,0.8-0.3c0.3,0,0.5,0.1,0.7,0.3c0.1,0.2,0.2,0.5,0.2,0.7c0,0.1,0,0.1-0.1,0.1h-1.5
		c0,0.3,0,0.6,0.1,0.7c0.1,0.2,0.3,0.3,0.6,0.3C231.8,79.5,232.1,79.4,232.3,79.2z M230.8,78.3h1c0.1,0,0.1,0,0.1-0.1
		c0-0.2,0-0.3-0.1-0.4c-0.1-0.1-0.2-0.2-0.3-0.2c0,0-0.1,0-0.1,0c-0.1,0-0.1,0-0.2,0.1s-0.1,0.1-0.2,0.2
		C230.9,78,230.8,78.1,230.8,78.3z"/>
	<path d="M234.6,79.5c-0.2,0.3-0.4,0.4-0.7,0.4c-0.3,0-0.5-0.1-0.7-0.4c-0.2-0.2-0.3-0.5-0.3-0.9c0-0.4,0.1-0.7,0.3-0.9
		s0.5-0.3,0.9-0.3c0.2,0,0.3,0,0.5,0.1v-0.4c0-0.5,0-0.9,0-1.1l0,0c0.2,0,0.3,0,0.5-0.1c0,0,0,0,0.1,0.1c0,0.4,0,0.8-0.1,1v1.7
		c0,0.4,0,0.7,0.1,1.1l0,0c-0.1,0-0.2,0-0.2,0c0,0-0.1,0-0.2,0c0,0,0,0,0,0L234.6,79.5L234.6,79.5z M234.6,79.2v-1.3
		c-0.1-0.1-0.1-0.2-0.2-0.2c-0.1-0.1-0.2-0.1-0.3-0.1c-0.1,0-0.2,0-0.2,0s-0.2,0.1-0.2,0.1s-0.1,0.2-0.2,0.3c0,0.1-0.1,0.3-0.1,0.5
		c0,0.3,0.1,0.6,0.2,0.7c0.1,0.2,0.2,0.2,0.4,0.2C234.2,79.6,234.4,79.4,234.6,79.2z"/>
	<path d="M238.3,77.6c-0.2,0-0.4,0.1-0.5,0.3c-0.1,0.2-0.2,0.4-0.2,0.7c0,0.3,0.1,0.6,0.2,0.7c0.1,0.2,0.3,0.3,0.5,0.3
		c0.2,0,0.4-0.1,0.6-0.2h0l0.1,0.1c-0.2,0.3-0.5,0.4-0.8,0.4c-0.3,0-0.6-0.1-0.8-0.3s-0.3-0.5-0.3-0.9c0-0.4,0.1-0.7,0.3-0.9
		c0.2-0.2,0.5-0.3,0.8-0.3c0.3,0,0.5,0.1,0.7,0.2l0,0L239,78l-0.1,0C238.7,77.7,238.6,77.6,238.3,77.6z"/>
	<path d="M240.3,77.8L240.3,77.8c0.3-0.3,0.6-0.5,1-0.5c0.2,0,0.4,0.1,0.5,0.2s0.2,0.4,0.2,0.7c0,0.1,0,0.2,0,0.3c0,0.1,0,0.2,0,0.3
		c0,0.4,0,0.8,0.1,1l0,0c-0.1,0-0.2,0-0.3,0c-0.1,0-0.2,0-0.3,0l0,0c0-0.2,0-0.6,0.1-1v-0.5c0-0.2,0-0.4-0.1-0.4
		c-0.1-0.1-0.2-0.1-0.3-0.1c-0.1,0-0.2,0-0.4,0.1s-0.3,0.2-0.4,0.3v0.6c0,0.4,0,0.7,0.1,1l0,0c-0.1,0-0.2,0-0.3,0s-0.2,0-0.3,0l0,0
		c0-0.2,0-0.6,0-1v-1.7c0-0.5,0-0.9,0-1.1l0,0c0.2,0,0.3,0,0.5-0.1c0,0,0,0,0.1,0.1c0,0.4,0,0.8-0.1,1V77.8z"/>
	<path d="M242.6,78.7c0-0.4,0.1-0.7,0.3-1s0.5-0.4,0.8-0.4c0.4,0,0.6,0.1,0.8,0.3c0.2,0.2,0.3,0.5,0.3,0.9c0,0.4-0.1,0.7-0.3,0.9
		c-0.2,0.2-0.5,0.3-0.8,0.3c-0.3,0-0.6-0.1-0.8-0.3C242.7,79.3,242.6,79,242.6,78.7z M243.8,77.6c-0.2,0-0.3,0-0.4,0.1
		c-0.1,0.1-0.2,0.2-0.2,0.4s-0.1,0.3-0.1,0.5c0,0.2,0,0.3,0.1,0.5s0.1,0.3,0.2,0.4c0.1,0.1,0.3,0.2,0.4,0.2c0.2,0,0.3-0.1,0.5-0.3
		c0.1-0.2,0.2-0.4,0.2-0.7c0-0.4,0-0.6-0.1-0.8C244.2,77.7,244,77.6,243.8,77.6z"/>
	<path d="M245.7,76.7c-0.1-0.1-0.1-0.1-0.1-0.2s0-0.1,0.1-0.2c0.1-0.1,0.1-0.1,0.2-0.1c0.1,0,0.1,0,0.2,0.1c0.1,0.1,0.1,0.1,0.1,0.2
		s0,0.1-0.1,0.2s-0.1,0.1-0.2,0.1C245.9,76.8,245.8,76.7,245.7,76.7z M245.7,78.5c0-0.5,0-0.9,0-1.1l0,0c0.2,0,0.3,0,0.5,0
		c0,0,0,0,0,0c0,0,0,0,0,0c0,0.3,0,0.6-0.1,1v0.4c0,0.4,0,0.7,0.1,1l0,0c-0.1,0-0.2,0-0.3,0s-0.2,0-0.3,0l0,0c0-0.2,0-0.6,0-1V78.5z
		"/>
	<path d="M248,77.6c-0.2,0-0.4,0.1-0.5,0.3c-0.1,0.2-0.2,0.4-0.2,0.7c0,0.3,0.1,0.6,0.2,0.7c0.1,0.2,0.3,0.3,0.5,0.3
		c0.2,0,0.4-0.1,0.6-0.2h0l0.1,0.1c-0.2,0.3-0.5,0.4-0.8,0.4c-0.3,0-0.6-0.1-0.8-0.3s-0.3-0.5-0.3-0.9c0-0.4,0.1-0.7,0.3-0.9
		c0.2-0.2,0.5-0.3,0.8-0.3c0.3,0,0.5,0.1,0.7,0.2l0,0l-0.1,0.5l-0.1,0C248.4,77.7,248.2,77.6,248,77.6z"/>
	<path d="M251.1,79.2l0.1,0.1c-0.1,0.1-0.2,0.3-0.4,0.4c-0.2,0.1-0.3,0.1-0.5,0.1c-0.4,0-0.7-0.1-0.8-0.4c-0.2-0.2-0.2-0.5-0.2-0.8
		c0-0.4,0.1-0.7,0.3-0.9c0.2-0.2,0.5-0.3,0.8-0.3c0.3,0,0.5,0.1,0.7,0.3c0.1,0.2,0.2,0.5,0.2,0.7c0,0.1,0,0.1-0.1,0.1h-1.5
		c0,0.3,0,0.6,0.1,0.7c0.1,0.2,0.3,0.3,0.6,0.3C250.7,79.5,250.9,79.4,251.1,79.2z M249.7,78.3h1c0.1,0,0.1,0,0.1-0.1
		c0-0.2,0-0.3-0.1-0.4c-0.1-0.1-0.2-0.2-0.3-0.2c0,0-0.1,0-0.1,0c-0.1,0-0.1,0-0.2,0.1s-0.1,0.1-0.2,0.2
		C249.7,78,249.7,78.1,249.7,78.3z"/>
</g>
</svg>
